<?xml version="1.0" standalone="no"?>
<!DOCTYPE svg PUBLIC "-//W3C//DTD SVG 1.1//EN" "http://www.w3.org/Graphics/SVG/1.1/DTD/svg11.dtd" >
<svg xmlns="http://www.w3.org/2000/svg" xmlns:xlink="http://www.w3.org/1999/xlink" version="1.1">
<metadata>
Created by FontForge 20170731 at Fri May 27 22:45:59 2022
 By Aleksey,,,
Copyright 2008-2010, 2013-2016, 2019-2022 Dalton Maag Ltd. Modification of this file requires prior written permission from Dalton Maag Ltd.
</metadata>
<defs>
<font id="EffraTrial-Bold" horiz-adv-x="545" >
  <font-face 
    font-family="Effra Trial"
    font-weight="700"
    font-stretch="normal"
    units-per-em="1000"
    panose-1="2 11 8 3 2 2 3 2 2 4"
    ascent="800"
    descent="-200"
    x-height="469"
    cap-height="667"
    bbox="-298 -487 1433 990"
    underline-thickness="77"
    underline-position="-224"
    unicode-range="U+000D-FEFF"
  />
<missing-glyph horiz-adv-x="500" 
d="M50 750h400v-750h-400v750zM400 700h-300v-650h300v650z" />
    <glyph glyph-name="uniFEF5" unicode="&#xfedf;&#xfe82;" horiz-adv-x="477" arabic-form="isolated" 
d="M307 637l124 22q0 -97 -27 -181t-66 -150q48 -55 75.5 -104t27.5 -96q0 -49 -27.5 -79t-74 -43.5t-105.5 -13.5q-29 0 -63 3.5t-64.5 10t-50.5 14.5l-22 111q47 39 92 85t80 93q-51 49 -106.5 95t-119.5 88l85 104q30 -25 59.5 -52t63.5 -60t76 -78q43 99 43 231z
M335 148q0 10 -14.5 34t-43.5 57q-23 -30 -49 -59.5t-57 -58.5q21 -2 39.5 -3t32.5 -1q43 0 67.5 8t24.5 23zM98 659q-20 0 -55 13q-22 9 -34 12t-21 3q-26 0 -50 -37l-36 21q14 41 36.5 63t53.5 22q11 0 24 -3.5t31 -9.5q22 -9 34 -12.5t21 -3.5q25 0 50 37l36 -20
q-28 -85 -90 -85z" />
    <glyph glyph-name="uniFEF6" unicode="&#xfee0;&#xfe82;" horiz-adv-x="537" arabic-form="final" 
d="M321 192l-5 445l123 22l-5 -468q14 -25 37 -35.5t66 -10.5l16 -10v-125l-16 -10q-102 0 -153 53q-69 -61 -209 -61q-30 0 -57 2t-58 7l-32 142q59 -11 142 -11q-27 88 -61 180.5t-68 170.5l108 62q32 -79 63 -184t56 -218q23 7 38 18.5t15 30.5zM132 599q-20 0 -55 13
q-22 9 -34 12t-21 3q-26 0 -50 -37l-36 21q14 41 36.5 63t53.5 22q11 0 24 -3.5t31 -9.5q22 -9 34 -12.5t21 -3.5q25 0 50 37l36 -20q-28 -85 -90 -85z" />
    <glyph glyph-name="uniFEF7" unicode="&#xfedf;&#xfe84;" horiz-adv-x="477" arabic-form="isolated" 
d="M307 637l124 22q0 -97 -27 -181t-66 -150q48 -55 75.5 -104t27.5 -96q0 -49 -27.5 -79t-74 -43.5t-105.5 -13.5q-29 0 -63 3.5t-64.5 10t-50.5 14.5l-22 111q47 39 92 85t80 93q-51 49 -106.5 95t-119.5 88l85 104q30 -25 59.5 -52t63.5 -60t76 -78q43 99 43 231z
M335 148q0 10 -14.5 34t-43.5 57q-23 -30 -49 -59.5t-57 -58.5q21 -2 39.5 -3t32.5 -1q43 0 67.5 8t24.5 23zM-31 767q0 35 24 60t59 25q41 0 65 -37l-25 -35q-16 10 -35 10q-16 0 -26 -7t-10 -18q0 -13 14.5 -21t38.5 -11q36 7 68 9l-9 -64q-43 -3 -82.5 -10t-80.5 -20
l-20 49q21 9 47 17q-28 21 -28 53z" />
    <glyph glyph-name="uniFEF8" unicode="&#xfee0;&#xfe84;" horiz-adv-x="537" arabic-form="final" 
d="M321 192l-5 445l123 22l-5 -468q14 -25 37 -35.5t66 -10.5l16 -10v-125l-16 -10q-102 0 -153 53q-69 -61 -209 -61q-30 0 -57 2t-58 7l-32 142q59 -11 142 -11q-27 88 -61 180.5t-68 170.5l108 62q32 -79 63 -184t56 -218q23 7 38 18.5t15 30.5zM3 707q0 35 24 60t59 25
q41 0 65 -37l-25 -35q-16 10 -35 10q-16 0 -26 -7t-10 -18q0 -13 14.5 -21t38.5 -11q36 7 68 9l-9 -64q-43 -3 -82.5 -10t-80.5 -20l-20 49q21 9 47 17q-28 21 -28 53z" />
    <glyph glyph-name="uniFEF9" unicode="&#xfedf;&#xfe88;" horiz-adv-x="477" arabic-form="isolated" 
d="M307 637l124 22q0 -97 -27 -181t-66 -150q48 -55 75.5 -104t27.5 -96q0 -49 -27.5 -79t-74 -43.5t-105.5 -13.5q-29 0 -63 3.5t-64.5 10t-50.5 14.5l-22 111q47 39 92 85t80 93q-51 49 -106.5 95t-119.5 88l85 104q30 -25 59.5 -52t63.5 -60t76 -78q43 99 43 231z
M335 148q0 10 -14.5 34t-43.5 57q-23 -30 -49 -59.5t-57 -58.5q21 -2 39.5 -3t32.5 -1q43 0 67.5 8t24.5 23zM11 -146q0 35 24 59.5t59 24.5q20 0 37 -9.5t28 -26.5l-25 -36q-17 11 -35 11q-16 0 -26 -7.5t-10 -18.5q0 -13 14 -20.5t37 -11.5q38 7 70 9l-9 -64
q-43 -3 -82.5 -9.5t-80.5 -19.5l-20 48q21 9 46 17q-27 21 -27 54z" />
    <glyph glyph-name="uniFEFA" unicode="&#xfee0;&#xfe88;" horiz-adv-x="537" arabic-form="final" 
d="M321 192l-5 445l123 22l-5 -468q14 -25 37 -35.5t66 -10.5l16 -10v-125l-16 -10q-102 0 -153 53q-69 -61 -209 -61q-30 0 -57 2t-58 7l-32 142q59 -11 142 -11q-27 88 -61 180.5t-68 170.5l108 62q32 -79 63 -184t56 -218q23 7 38 18.5t15 30.5zM161 -146q0 35 24 59.5
t59 24.5q20 0 37 -9.5t28 -26.5l-25 -36q-17 11 -35 11q-16 0 -26 -7.5t-10 -18.5q0 -13 14 -20.5t37 -11.5q38 7 70 9l-9 -64q-43 -3 -82.5 -9.5t-80.5 -19.5l-20 48q21 9 46 17q-27 21 -27 54z" />
    <glyph glyph-name="uniFEFB" unicode="&#xfedf;&#xfe8e;" horiz-adv-x="477" arabic-form="isolated" 
d="M307 637l124 22q0 -97 -27 -181t-66 -150q48 -55 75.5 -104t27.5 -96q0 -49 -27.5 -79t-74 -43.5t-105.5 -13.5q-29 0 -63 3.5t-64.5 10t-50.5 14.5l-22 111q47 39 92 85t80 93q-51 49 -106.5 95t-119.5 88l85 104q30 -25 59.5 -52t63.5 -60t76 -78q43 99 43 231z
M335 148q0 10 -14.5 34t-43.5 57q-23 -30 -49 -59.5t-57 -58.5q21 -2 39.5 -3t32.5 -1q43 0 67.5 8t24.5 23z" />
    <glyph glyph-name="uniFEFC" unicode="&#xfee0;&#xfe8e;" horiz-adv-x="537" arabic-form="final" 
d="M321 192l-5 445l123 22l-5 -468q14 -25 37 -35.5t66 -10.5l16 -10v-125l-16 -10q-102 0 -153 53q-69 -61 -209 -61q-30 0 -57 2t-58 7l-32 142q59 -11 142 -11q-27 88 -61 180.5t-68 170.5l108 62q32 -79 63 -184t56 -218q23 7 38 18.5t15 30.5z" />
    <glyph glyph-name="f_i" unicode="fi" horiz-adv-x="605" 
d="M407 357h-175v-357h-144v357h-76v112h76q0 104 67 158.5t188 54.5q105 0 181 -44l-42 -101q-30 17 -62.5 25t-70.5 8q-59 0 -88 -22t-29 -73v-6h319v-469h-144v357z" />
    <glyph glyph-name="f_l" unicode="fl" horiz-adv-x="605" 
d="M12 469h76q2 107 69 160t193 53q117 0 201 -41v-641h-144v560q-28 10 -69 10q-55 0 -80.5 -23t-25.5 -76v-2h113v-112h-113v-357h-144v357h-76v112z" />
    <glyph glyph-name="f_f_i" unicode="ffi" horiz-adv-x="935" 
d="M12 469h76v17q0 92 50 144t136 52q76 0 135 -44l-52 -94q-29 26 -62 26q-63 0 -63 -80v-21h187q0 104 66.5 158.5t187.5 54.5q107 0 181 -44l-41 -101q-60 33 -134 33q-59 0 -87.5 -22t-28.5 -73v-6h319v-469h-144v357h-175v-357h-144v357h-187v-357h-144v357h-76v112z
" />
    <glyph glyph-name="f_f_l" unicode="ffl" horiz-adv-x="935" 
d="M12 470h76v16q0 92 50 144t136 52q76 0 135 -44l-52 -94q-29 26 -62 26q-63 0 -63 -80v-20h187q2 107 68.5 159.5t192.5 52.5q57 0 109.5 -10.5t92.5 -30.5v-641h-144v559q-14 5 -32 8t-38 3q-55 0 -80 -23.5t-25 -76.5h112v-113h-112v-357h-144v357h-187v-357h-144v357
h-76v113z" />
    <glyph glyph-name="f_f" unicode="ff" horiz-adv-x="687" 
d="M12 469h76v17q0 92 50 144t136 52q76 0 135 -44l-52 -94q-29 26 -62 26q-63 0 -63 -80v-21h187v17q0 92 51.5 144t141.5 52q79 0 140 -44l-52 -94q-31 26 -68 26q-69 0 -69 -80v-21h112v-112h-112v-357h-144v357h-187v-357h-144v357h-76v112z" />
    <glyph glyph-name="lam_uni0671.fina" unicode="&#xfee0;&#xfb51;" horiz-adv-x="537" 
d="M321 192l-5 445l123 22l-5 -468q14 -25 37 -35.5t66 -10.5l16 -10v-125l-16 -10q-102 0 -153 53q-69 -61 -209 -61q-30 0 -57 2t-58 7l-32 142q59 -11 142 -11q-27 88 -61 180.5t-68 170.5l108 62q32 -79 63 -184t56 -218q23 7 38 18.5t15 30.5zM198 684q0 -85 -124 -85
q-31 0 -54.5 1t-45.5 3l-14 63q27 -5 56 -7q49 113 112 113q31 0 50.5 -25t19.5 -63zM152 686q0 25 -27 25q-30 0 -59 -54h12q74 0 74 29z" />
    <glyph glyph-name="lam_uni0671" unicode="&#xfedf;&#xfb51;" horiz-adv-x="477" 
d="M307 637l124 22q0 -97 -27 -181t-66 -150q48 -55 75.5 -104t27.5 -96q0 -49 -27.5 -79t-74 -43.5t-105.5 -13.5q-29 0 -63 3.5t-64.5 10t-50.5 14.5l-22 111q47 39 92 85t80 93q-51 49 -106.5 95t-119.5 88l85 104q30 -25 59.5 -52t63.5 -60t76 -78q43 99 43 231z
M335 148q0 10 -14.5 34t-43.5 57q-23 -30 -49 -59.5t-57 -58.5q21 -2 39.5 -3t32.5 -1q43 0 67.5 8t24.5 23zM164 744q0 -85 -124 -85q-31 0 -54.5 1t-45.5 3l-14 63q27 -5 56 -7q49 113 112 113q31 0 50.5 -25t19.5 -63zM118 746q0 25 -27 25q-30 0 -59 -54h12q74 0 74 29z
" />
    <glyph glyph-name="uni0621" unicode="&#x621;" horiz-adv-x="484" arabic-form="isolated" 
d="M78 241q0 50 23 91t62.5 65.5t86.5 24.5q41 0 78 -19t65 -59l-55 -70q-19 10 -37.5 15t-41.5 5q-36 0 -59 -16t-23 -42q0 -56 134 -69q66 11 131 15l-20 -140q-175 -11 -341 -60l-49 104q49 21 99 37q-53 47 -53 118z" />
    <glyph glyph-name="uni0622" unicode="&#x622;" horiz-adv-x="243" arabic-form="isolated" 
d="M60 637l123 22l-8 -659h-107zM174 728q-20 0 -55 13q-22 9 -34 12t-21 3q-26 0 -50 -37l-36 21q14 41 36.5 63t53.5 22q11 0 24 -3.5t31 -9.5q22 -9 34 -12.5t21 -3.5q25 0 50 37l36 -20q-28 -85 -90 -85z" />
    <glyph glyph-name="uni0623" unicode="&#x623;" horiz-adv-x="243" arabic-form="isolated" 
d="M60 637l123 22l-8 -659h-107zM45 836q0 35 24 60t59 25q41 0 65 -37l-25 -35q-16 10 -35 10q-16 0 -26 -7t-10 -18q0 -13 14.5 -21t38.5 -11q36 7 68 9l-9 -64q-43 -3 -82.5 -10t-80.5 -20l-20 49q21 9 47 17q-28 21 -28 53z" />
    <glyph glyph-name="uni0624" unicode="&#x624;" horiz-adv-x="451" arabic-form="isolated" 
d="M52 198q0 63 22.5 111.5t62.5 76.5t90 28q54 0 95 -36t64 -101t23 -151q0 -148 -80.5 -228.5t-232.5 -106.5l-53 125q125 19 187.5 51t77.5 91q-45 -39 -104 -39q-68 0 -110 50t-42 129zM147 202q0 -31 20.5 -49t55.5 -18q51 0 87 24q-7 63 -30 94.5t-58 31.5
q-33 0 -54 -23.5t-21 -59.5zM153 589q0 35 24 60t59 25q41 0 65 -37l-25 -35q-16 10 -35 10q-16 0 -26 -7t-10 -18q0 -13 14.5 -21t38.5 -11q36 7 68 9l-9 -64q-43 -3 -82.5 -10t-80.5 -20l-20 49q21 9 47 17q-28 21 -28 53z" />
    <glyph glyph-name="uni0625" unicode="&#x625;" horiz-adv-x="243" arabic-form="isolated" 
d="M60 637l123 22l-8 -659h-107zM45 -146q0 35 24 59.5t59 24.5q20 0 37 -9.5t28 -26.5l-25 -36q-17 11 -35 11q-16 0 -26 -7.5t-10 -18.5q0 -13 14 -20.5t37 -11.5q38 7 70 9l-9 -64q-43 -3 -82.5 -9.5t-80.5 -19.5l-20 48q21 9 46 17q-27 21 -27 54z" />
    <glyph glyph-name="uni0626" unicode="&#x626;" horiz-adv-x="690" arabic-form="isolated" 
d="M406 252q0 -19 14.5 -29.5t62.5 -25.5l59 -18q56 -16 83 -44.5t27 -75.5q0 -77 -46 -137t-124.5 -93.5t-176.5 -33.5q-80 0 -140 29.5t-93.5 84.5t-33.5 131q0 59 22 121t61 113l82 -51q-47 -81 -47 -150q0 -60 44 -96t123 -36q59 0 104.5 13.5t72 35.5t26.5 45
q0 10 -10 16t-40 16l-63 20q-54 17 -82 50t-28 95q0 55 26.5 102.5t68.5 77t90 29.5q52 0 92.5 -33t62.5 -89l-72 -54q-34 47 -87 47q-33 0 -55.5 -18.5t-22.5 -41.5zM88 450q0 35 24 59.5t59 24.5q41 0 65 -37l-25 -35q-17 11 -35 11q-16 0 -26 -7.5t-10 -18.5
q0 -13 14 -20.5t37 -11.5q38 7 70 9l-9 -64q-43 -3 -82.5 -9.5t-80.5 -19.5l-20 48q22 9 47 17q-28 21 -28 54z" />
    <glyph glyph-name="uni0627" unicode="&#x627;" horiz-adv-x="243" arabic-form="isolated" 
d="M60 637l123 22l-8 -659h-107z" />
    <glyph glyph-name="uni0628" unicode="&#x628;" horiz-adv-x="790" arabic-form="isolated" 
d="M750 197q0 -73 -36 -119t-114.5 -67t-206.5 -21q-184 0 -270 50t-86 156q0 49 18 104.5t49 104.5l87 -43q-31 -68 -31 -119q0 -58 54.5 -82t178.5 -24q115 0 179 14.5t64 39.5q0 20 -9 51t-23.5 66.5t-33.5 68.5l115 63q19 -33 33.5 -76t23 -86.5t8.5 -80.5zM393 -226
l-80 80l80 80l80 -80z" />
    <glyph glyph-name="uni0629" unicode="&#x629;" horiz-adv-x="462" arabic-form="isolated" 
d="M371 41.5q-51 -49.5 -140 -49.5q-92 0 -142 48.5t-50 139.5q0 73 26.5 133t70 96t95.5 36q53 0 96.5 -35.5t69 -96.5t25.5 -136q0 -86 -51 -135.5zM295 271q-25 37 -64 37q-37 0 -63.5 -32t-26.5 -76q0 -75 90 -75q38 0 63.5 15.5t25.5 35.5q0 58 -25 95zM231 577
l-72 -73l-78 78l78 78l72 -73l72 73l78 -78l-78 -78z" />
    <glyph glyph-name="uni062A" unicode="&#x62a;" horiz-adv-x="790" arabic-form="isolated" 
d="M750 197q0 -73 -36 -119t-114.5 -67t-206.5 -21q-184 0 -270 50t-86 156q0 49 18 104.5t49 104.5l87 -43q-31 -68 -31 -119q0 -58 54.5 -82t178.5 -24q115 0 179 14.5t64 39.5q0 20 -9 51t-23.5 66.5t-33.5 68.5l115 63q19 -33 33.5 -76t23 -86.5t8.5 -80.5zM387 513
l-72 -73l-78 78l78 78l72 -73l72 73l78 -78l-78 -78z" />
    <glyph glyph-name="uni062B" unicode="&#x62b;" horiz-adv-x="790" arabic-form="isolated" 
d="M750 197q0 -73 -36 -119t-114.5 -67t-206.5 -21q-184 0 -270 50t-86 156q0 49 18 104.5t49 104.5l87 -43q-31 -68 -31 -119q0 -58 54.5 -82t178.5 -24q115 0 179 14.5t64 39.5q0 20 -9 51t-23.5 66.5t-33.5 68.5l115 63q19 -33 33.5 -76t23 -86.5t8.5 -80.5zM459 440
l-72 72l-72 -72l-76 76l76 76l72 -72l72 72l76 -76zM387 585l-74 74l74 74l74 -74z" />
    <glyph glyph-name="uni062C" unicode="&#x62c;" horiz-adv-x="623" arabic-form="isolated" 
d="M569 228q-189 -41 -290 -108t-101 -145q0 -61 54.5 -97.5t149.5 -36.5q52 0 105.5 11t89.5 29l41 -87q-48 -46 -117.5 -72.5t-147.5 -26.5q-87 0 -153 31.5t-103 87t-37 127.5q0 102 77 187t217 134q-11 2 -21 4t-19 4q-45 13 -75.5 18t-47.5 5q-22 0 -39 -8t-37 -30
l-72 55q31 57 69 87t93 30q34 0 74.5 -8.5t108.5 -28.5q52 -14 91 -21.5t67 -7.5h23v-133zM403 88l78 -79l-78 -78l-78 78z" />
    <glyph glyph-name="uni062D" unicode="&#x62d;" horiz-adv-x="623" arabic-form="isolated" 
d="M569 228q-189 -41 -290 -108t-101 -145q0 -61 54.5 -97.5t149.5 -36.5q52 0 105.5 11t89.5 29l41 -87q-48 -46 -117.5 -72.5t-147.5 -26.5q-87 0 -153 31.5t-103 87t-37 127.5q0 102 77 187t217 134q-11 2 -21 4t-19 4q-45 13 -75.5 18t-47.5 5q-22 0 -39 -8t-37 -30
l-72 55q31 57 69 87t93 30q34 0 74.5 -8.5t108.5 -28.5q52 -14 91 -21.5t67 -7.5h23v-133z" />
    <glyph glyph-name="uni062E" unicode="&#x62e;" horiz-adv-x="623" arabic-form="isolated" 
d="M569 228q-189 -41 -290 -108t-101 -145q0 -61 54.5 -97.5t149.5 -36.5q52 0 105.5 11t89.5 29l41 -87q-48 -46 -117.5 -72.5t-147.5 -26.5q-87 0 -153 31.5t-103 87t-37 127.5q0 102 77 187t217 134q-11 2 -21 4t-19 4q-45 13 -75.5 18t-47.5 5q-22 0 -39 -8t-37 -30
l-72 55q31 57 69 87t93 30q34 0 74.5 -8.5t108.5 -28.5q52 -14 91 -21.5t67 -7.5h23v-133zM315 486l-80 81l80 80l80 -80z" />
    <glyph glyph-name="uni062F" unicode="&#x62f;" horiz-adv-x="439" arabic-form="isolated" 
d="M289 164q0 23 -22 60t-58 78.5t-78 78.5l96 91q86 -76 130.5 -161t44.5 -153q0 -86 -54.5 -126t-174.5 -40q-27 0 -60.5 2.5t-59.5 6.5l-31 148q31 -5 68 -8.5t68 -3.5q56 0 93.5 8.5t37.5 18.5z" />
    <glyph glyph-name="uni0630" unicode="&#x630;" horiz-adv-x="439" arabic-form="isolated" 
d="M289 164q0 23 -22 60t-58 78.5t-78 78.5l96 91q86 -76 130.5 -161t44.5 -153q0 -86 -54.5 -126t-174.5 -40q-27 0 -60.5 2.5t-59.5 6.5l-31 148q31 -5 68 -8.5t68 -3.5q56 0 93.5 8.5t37.5 18.5zM171 531l-80 81l80 80l80 -80z" />
    <glyph glyph-name="uni0631" unicode="&#x631;" horiz-adv-x="389" arabic-form="isolated" 
d="M239 114q0 20 -14 56t-37.5 80t-52.5 87l113 63q29 -35 52 -83t36.5 -98t13.5 -93q0 -72 -35 -137t-102 -116t-163 -82l-72 124q73 26 132 60.5t94 71t35 67.5z" />
    <glyph glyph-name="uni0632" unicode="&#x632;" horiz-adv-x="389" arabic-form="isolated" 
d="M239 114q0 20 -14 56t-37.5 80t-52.5 87l113 63q29 -35 52 -83t36.5 -98t13.5 -93q0 -72 -35 -137t-102 -116t-163 -82l-72 124q73 26 132 60.5t94 71t35 67.5zM193 460l-80 81l80 80l80 -80z" />
    <glyph glyph-name="uni0633" unicode="&#x633;" horiz-adv-x="1141" arabic-form="isolated" 
d="M38 40q0 59 22 121t61 113l82 -51q-47 -81 -47 -150q0 -60 41 -96t116 -36q70 0 115 27.5t45 65.5q0 35 -16.5 90t-51.5 131l114 63q15 -32 28 -70t22 -77q25 -32 73 -32q32 0 53 13.5t28 47.5q3 15 6.5 37.5l7 45t5.5 35.5l108 -14q-7 -47 -10 -76.5t-3 -37.5
q0 -24 19 -37.5t50 -13.5q34 0 58 14t24 33q0 33 -18.5 86t-47.5 105l114 63q21 -36 35.5 -79t22 -84t7.5 -72q0 -94 -47 -149.5t-154 -55.5q-85 0 -130 46q-49 -46 -130 -46q-30 0 -55 7q-9 -63 -45 -111t-94.5 -74.5t-132.5 -26.5q-129 0 -202 65.5t-73 179.5z" />
    <glyph glyph-name="uni0634" unicode="&#x634;" horiz-adv-x="1141" arabic-form="isolated" 
d="M38 40q0 59 22 121t61 113l82 -51q-47 -81 -47 -150q0 -60 41 -96t116 -36q70 0 115 27.5t45 65.5q0 35 -16.5 90t-51.5 131l114 63q15 -32 28 -70t22 -77q25 -32 73 -32q32 0 53 13.5t28 47.5q3 15 6.5 37.5l7 45t5.5 35.5l108 -14q-7 -47 -10 -76.5t-3 -37.5
q0 -24 19 -37.5t50 -13.5q34 0 58 14t24 33q0 33 -18.5 86t-47.5 105l114 63q21 -36 35.5 -79t22 -84t7.5 -72q0 -94 -47 -149.5t-154 -55.5q-85 0 -130 46q-49 -46 -130 -46q-30 0 -55 7q-9 -63 -45 -111t-94.5 -74.5t-132.5 -26.5q-129 0 -202 65.5t-73 179.5zM835 423
l-72 72l-72 -72l-76 76l76 76l72 -72l72 72l76 -76zM763 568l-74 74l74 74l74 -74z" />
    <glyph glyph-name="uni0635" unicode="&#x635;" horiz-adv-x="1137" arabic-form="isolated" 
d="M38 40q0 59 21.5 121t61.5 113l82 -51q-47 -81 -47 -150q0 -60 41 -96t116 -36q46 0 82 12.5t57 34t21 46.5q0 35 -16.5 90t-51.5 131l114 63l13 -28q23 -53 48 -84.5t58 -48.5q68 143 139 212.5t144 69.5q52 0 93.5 -30t66 -81t24.5 -115q0 -107 -83.5 -165t-241.5 -58
q-119 0 -193 50q-1 -73 -36 -128t-96.5 -86t-141.5 -31q-129 0 -202 65.5t-73 179.5zM976.5 274.5q-24.5 24.5 -58.5 24.5q-44 0 -90.5 -43t-90.5 -123q26 -2 60 -2q98 0 151 22t53 64q0 33 -24.5 57.5z" />
    <glyph glyph-name="uni0636" unicode="&#x636;" horiz-adv-x="1137" arabic-form="isolated" 
d="M38 40q0 59 21.5 121t61.5 113l82 -51q-47 -81 -47 -150q0 -60 41 -96t116 -36q46 0 82 12.5t57 34t21 46.5q0 35 -16.5 90t-51.5 131l114 63l13 -28q23 -53 48 -84.5t58 -48.5q68 143 139 212.5t144 69.5q52 0 93.5 -30t66 -81t24.5 -115q0 -107 -83.5 -165t-241.5 -58
q-119 0 -193 50q-1 -73 -36 -128t-96.5 -86t-141.5 -31q-129 0 -202 65.5t-73 179.5zM976.5 274.5q-24.5 24.5 -58.5 24.5q-44 0 -90.5 -43t-90.5 -123q26 -2 60 -2q98 0 151 22t53 64q0 33 -24.5 57.5zM895 508l-80 81l80 80l80 -80z" />
    <glyph glyph-name="uni0637" unicode="&#x637;" horiz-adv-x="679" arabic-form="isolated" 
d="M647 213q0 -106 -83.5 -164.5t-246.5 -58.5q-69 0 -141 3t-131 8l-30 141q79 -7 152 -9l-10 505l123 21l-9 -380q45 81 95 120.5t96 39.5q52 0 93.5 -30t66.5 -81t25 -115zM542 217q0 32 -24 57t-58 25q-43 0 -90 -42.5t-93 -125.5h53q108 0 160 22.5t52 63.5z" />
    <glyph glyph-name="uni0638" unicode="&#x638;" horiz-adv-x="679" arabic-form="isolated" 
d="M647 213q0 -106 -83.5 -164.5t-246.5 -58.5q-69 0 -141 3t-131 8l-30 141q79 -7 152 -9l-10 505l123 21l-9 -380q45 81 95 120.5t96 39.5q52 0 93.5 -30t66.5 -81t25 -115zM542 217q0 32 -24 57t-58 25q-43 0 -90 -42.5t-93 -125.5h53q108 0 160 22.5t52 63.5zM454 508
l-80 81l80 80l80 -80z" />
    <glyph glyph-name="uni0639" unicode="&#x639;" horiz-adv-x="527" arabic-form="isolated" 
d="M136 -59q0 -46 44.5 -73t129.5 -27q51 0 104.5 11t89.5 29l40 -87q-47 -46 -116.5 -72.5t-144.5 -26.5q-80 0 -140.5 28t-94 79.5t-33.5 121.5q0 81 43.5 138t110.5 94q-35 29 -50.5 65t-15.5 79q0 55 26 100t68.5 71.5t93.5 26.5q44 0 84 -22t68 -62l-55 -70
q-43 23 -87 23q-39 0 -67 -19.5t-28 -51.5q0 -29 27.5 -51t95.5 -30q37 8 73 12.5t69 6.5l-19 -135q-157 -8 -236.5 -50.5t-79.5 -107.5z" />
    <glyph glyph-name="uni063A" unicode="&#x63a;" horiz-adv-x="527" arabic-form="isolated" 
d="M136 -59q0 -46 44.5 -73t129.5 -27q51 0 104.5 11t89.5 29l40 -87q-47 -46 -116.5 -72.5t-144.5 -26.5q-80 0 -140.5 28t-94 79.5t-33.5 121.5q0 81 43.5 138t110.5 94q-35 29 -50.5 65t-15.5 79q0 55 26 100t68.5 71.5t93.5 26.5q44 0 84 -22t68 -62l-55 -70
q-43 23 -87 23q-39 0 -67 -19.5t-28 -51.5q0 -29 27.5 -51t95.5 -30q37 8 73 12.5t69 6.5l-19 -135q-157 -8 -236.5 -50.5t-79.5 -107.5zM291 556l-80 81l80 80l80 -80z" />
    <glyph glyph-name="uni0641" unicode="&#x641;" horiz-adv-x="794" arabic-form="isolated" 
d="M397 362q0 60 23 107t61 74t82 27q89 0 134 -90.5t45 -255.5q0 -90 -21 -134t-74 -65q-41 -18 -105 -26.5t-149 -8.5q-184 0 -270 50t-86 156q0 49 18 104.5t49 104.5l87 -43q-31 -68 -31 -119q0 -58 54.5 -82t178.5 -24q137 0 194 11t57 37v43q-44 -28 -94 -28
q-73 0 -113 43.5t-40 118.5zM488 367q0 -28 18.5 -43.5t52.5 -15.5q47 0 80 21q-7 64 -27.5 89.5t-50.5 25.5q-32 0 -52.5 -22.5t-20.5 -54.5zM563 629l-80 81l80 80l80 -80z" />
    <glyph glyph-name="uni0642" unicode="&#x642;" horiz-adv-x="671" arabic-form="isolated" 
d="M280 204q0 61 23.5 108.5t62 74.5t82.5 27q92 0 138.5 -96t46.5 -282q0 -112 -74 -176.5t-223 -64.5q-95 0 -161.5 31t-101.5 86t-35 128q0 59 21.5 120.5t61.5 113.5l82 -51q-22 -37 -34.5 -76t-12.5 -76q0 -62 49 -100t139 -38q54 0 97 8.5t68 23.5t25 35v62
q-46 -29 -96 -29q-73 0 -115.5 46.5t-42.5 124.5zM371 208q0 -28 20 -46t54 -18q25 0 45 6t38 16q-9 66 -30.5 94t-52.5 28q-33 0 -53.5 -23t-20.5 -57zM445 545l-72 -73l-78 78l78 78l72 -73l72 73l78 -78l-78 -78z" />
    <glyph glyph-name="uni0643" unicode="&#x643;" horiz-adv-x="710" arabic-form="isolated" 
d="M37 196q0 49 18 104.5t49 104.5l87 -43q-31 -68 -31 -119q0 -56 48 -81t139 -25q57 0 102.5 7.5t72 20.5t25.5 30l-5 443l123 21l-5 -463q-1 -100 -78.5 -153t-234.5 -53q-310 0 -310 206zM338.5 505.5q39.5 25.5 101.5 28.5l-5 -64q-28 -2 -44.5 -7.5t-16.5 -12.5
q0 -6 20 -15l14 -7q41 -18 41 -44q0 -36 -45.5 -61t-117.5 -30l-14 63q45 5 71 11t26 13q0 2 -3.5 4t-16.5 7l-12 5q-38 17 -38 51q0 33 39.5 58.5z" />
    <glyph glyph-name="uni0644" unicode="&#x644;" horiz-adv-x="631" arabic-form="isolated" 
d="M38 40q0 59 22 121t61 113l82 -51q-47 -81 -47 -150q0 -60 38 -96t112 -36q68 0 110 27t41 66l-6 604l122 21l-7 -615q-1 -75 -32.5 -131t-89.5 -87t-141 -31q-125 0 -195 65t-70 180z" />
    <glyph glyph-name="uni0645" unicode="&#x645;" horiz-adv-x="576" arabic-form="isolated" 
d="M169 172q0 70 25 124.5t67 86t94 31.5q51 0 92 -30.5t65.5 -83.5t24.5 -122q0 -91 -44 -138.5t-127 -47.5q-22 0 -46.5 3t-50.5 7q-20 4 -38 6.5t-35 2.5q-22 0 -32.5 -12.5t-10.5 -42.5l-1 -326l-110 -10l-6 346q-1 82 36.5 128.5t98.5 50.5q-2 16 -2 27zM414 255.5
q-25 27.5 -59 27.5q-42 0 -67 -32.5t-25 -88.5q0 -10 1 -27h2q29 -4 52.5 -7.5t42.5 -3.5q78 0 78 64q0 40 -25 67.5z" />
    <glyph glyph-name="uni0646" unicode="&#x646;" horiz-adv-x="625" arabic-form="isolated" 
d="M587 43q0 -73 -34.5 -129t-96.5 -87.5t-143 -31.5q-129 0 -202 65.5t-73 179.5q0 59 22 121t61 113l82 -51q-47 -81 -47 -150q0 -60 41 -96t116 -36q70 0 115 27.5t45 65.5q0 35 -16.5 90t-51.5 131l114 63q20 -41 35 -90.5t24 -98t9 -86.5zM307 327l-80 81l80 80l80 -80
z" />
    <glyph glyph-name="uni0647" unicode="&#x647;" horiz-adv-x="462" arabic-form="isolated" 
d="M371 41.5q-51 -49.5 -140 -49.5q-92 0 -142 48.5t-50 139.5q0 73 26.5 133t70 96t95.5 36q53 0 96.5 -35.5t69 -96.5t25.5 -136q0 -86 -51 -135.5zM295 271q-25 37 -64 37q-37 0 -63.5 -32t-26.5 -76q0 -75 90 -75q38 0 63.5 15.5t25.5 35.5q0 58 -25 95z" />
    <glyph glyph-name="uni0648" unicode="&#x648;" horiz-adv-x="451" arabic-form="isolated" 
d="M52 198q0 63 22.5 111.5t62.5 76.5t90 28q54 0 95 -36t64 -101t23 -151q0 -148 -80.5 -228.5t-232.5 -106.5l-53 125q125 19 187.5 51t77.5 91q-45 -39 -104 -39q-68 0 -110 50t-42 129zM147 202q0 -31 20.5 -49t55.5 -18q51 0 87 24q-7 63 -30 94.5t-58 31.5
q-33 0 -54 -23.5t-21 -59.5z" />
    <glyph glyph-name="uni0649" unicode="&#x649;" horiz-adv-x="690" arabic-form="isolated" 
d="M406 252q0 -19 14.5 -29.5t62.5 -25.5l59 -18q56 -16 83 -44.5t27 -75.5q0 -77 -46 -137t-124.5 -93.5t-176.5 -33.5q-80 0 -140 29.5t-93.5 84.5t-33.5 131q0 59 22 121t61 113l82 -51q-47 -81 -47 -150q0 -60 44 -96t123 -36q59 0 104.5 13.5t72 35.5t26.5 45
q0 10 -10 16t-40 16l-63 20q-54 17 -82 50t-28 95q0 55 26.5 102.5t68.5 77t90 29.5q52 0 92.5 -33t62.5 -89l-72 -54q-34 47 -87 47q-33 0 -55.5 -18.5t-22.5 -41.5z" />
    <glyph glyph-name="uni064A" unicode="&#x64a;" horiz-adv-x="690" arabic-form="isolated" 
d="M406 252q0 -19 14.5 -29.5t62.5 -25.5l59 -18q56 -16 83 -44.5t27 -75.5q0 -77 -46 -137t-124.5 -93.5t-176.5 -33.5q-80 0 -140 29.5t-93.5 84.5t-33.5 131q0 59 22 121t61 113l82 -51q-47 -81 -47 -150q0 -60 44 -96t123 -36q59 0 104.5 13.5t72 35.5t26.5 45
q0 10 -10 16t-40 16l-63 20q-54 17 -82 50t-28 95q0 55 26.5 102.5t68.5 77t90 29.5q52 0 92.5 -33t62.5 -89l-72 -54q-34 47 -87 47q-33 0 -55.5 -18.5t-22.5 -41.5zM302 -353l-72 -73l-78 78l78 77l72 -72l72 72l78 -77l-78 -78z" />
    <glyph glyph-name="uni066E.init" unicode="&#x66e;" horiz-adv-x="290" 
d="M-16 135l16 10q61 0 98.5 14.5t37.5 34.5t-9 50.5t-23.5 65.5t-33.5 67l115 63q20 -33 34 -76t22 -85t8 -74q0 -108 -62 -156.5t-187 -48.5l-16 10v125z" />
    <glyph glyph-name="uni066E.medi" unicode="&#x66e;" horiz-adv-x="339" 
d="M-16 135l16 10q59 0 85.5 13t32.5 41q5 23 10.5 58.5t9.5 63.5l109 -14q-5 -37 -9 -71t-4 -42q0 -25 24.5 -37t80.5 -12l16 -10v-125l-16 -10q-62 0 -100 17t-61 53q-26 -35 -69.5 -52.5t-108.5 -17.5l-16 10v125z" />
    <glyph glyph-name="uni066E.fina" unicode="&#x66e;" horiz-adv-x="865" 
d="M37 196q0 49 18 104.5t49 104.5l87 -43q-31 -68 -31 -119q0 -58 54.5 -82t178.5 -24q91 0 144.5 6.5t79 22.5t31.5 46q4 18 9.5 52t8.5 57l108 -14q-5 -37 -9 -71t-4 -42q0 -25 24.5 -37t79.5 -12l16 -10v-125l-16 -10q-57 0 -97.5 16t-64.5 58q-43 -50 -123.5 -67
t-186.5 -17q-184 0 -270 50t-86 156z" />
    <glyph glyph-name="uni0671" unicode="&#x671;" horiz-adv-x="243" arabic-form="isolated" 
d="M60 637l123 22l-8 -659h-107zM240 813q0 -85 -124 -85q-31 0 -54.5 1t-45.5 3l-14 63q27 -5 56 -7q49 113 112 113q31 0 50.5 -25t19.5 -63zM194 815q0 25 -27 25q-30 0 -59 -54h12q74 0 74 29z" />
    <glyph glyph-name="uni0679" unicode="&#x679;" horiz-adv-x="790" arabic-form="isolated" 
d="M750 197q0 -73 -36 -119t-114.5 -67t-206.5 -21q-184 0 -270 50t-86 156q0 49 18 104.5t49 104.5l87 -43q-31 -68 -31 -119q0 -58 54.5 -82t178.5 -24q115 0 179 14.5t64 39.5q0 20 -9 51t-23.5 66.5t-33.5 68.5l115 63q19 -33 33.5 -76t23 -86.5t8.5 -80.5zM506 526
q0 -85 -124 -85q-30 0 -54 1t-46 3l-14 63q29 -5 57 -7l-5 187l55 11l-4 -135q30 50 65 50q31 0 50.5 -25t19.5 -63zM460 528q0 25 -27 25q-30 0 -59 -54h12q74 0 74 29z" />
    <glyph glyph-name="uni067E" unicode="&#x67e;" horiz-adv-x="790" arabic-form="isolated" 
d="M750 197q0 -73 -36 -119t-114.5 -67t-206.5 -21q-184 0 -270 50t-86 156q0 49 18 104.5t49 104.5l87 -43q-31 -68 -31 -119q0 -58 54.5 -82t178.5 -24q115 0 179 14.5t64 39.5q0 20 -9 51t-23.5 66.5t-33.5 68.5l115 63q19 -33 33.5 -76t23 -86.5t8.5 -80.5zM465 -218
l-72 72l-72 -72l-76 76l76 76l72 -72l72 72l76 -76zM393 -359l-75 75l75 74l74 -74z" />
    <glyph glyph-name="uni0686" unicode="&#x686;" horiz-adv-x="623" arabic-form="isolated" 
d="M569 228q-189 -41 -290 -108t-101 -145q0 -61 54.5 -97.5t149.5 -36.5q52 0 105.5 11t89.5 29l41 -87q-48 -46 -117.5 -72.5t-147.5 -26.5q-87 0 -153 31.5t-103 87t-37 127.5q0 102 77 187t217 134q-11 2 -21 4t-19 4q-45 13 -75.5 18t-47.5 5q-22 0 -39 -8t-37 -30
l-72 55q31 57 69 87t93 30q34 0 74.5 -8.5t108.5 -28.5q52 -14 91 -21.5t67 -7.5h23v-133zM403 57l48 49l54 -54l-54 -53l-48 48l-48 -48l-54 53l54 54zM349 -47l54 54l54 -54l-54 -54z" />
    <glyph glyph-name="uni0688" unicode="&#x688;" horiz-adv-x="439" arabic-form="isolated" 
d="M289 164q0 23 -22 60t-58 78.5t-78 78.5l96 91q86 -76 130.5 -161t44.5 -153q0 -86 -54.5 -126t-174.5 -40q-27 0 -60.5 2.5t-59.5 6.5l-31 148q31 -5 68 -8.5t68 -3.5q56 0 93.5 8.5t37.5 18.5zM290 617q0 -85 -124 -85q-30 0 -54 1t-46 3l-14 63q29 -5 57 -7l-5 187
l55 11l-4 -135q30 50 65 50q31 0 50.5 -25t19.5 -63zM244 619q0 25 -27 25q-30 0 -59 -54h12q74 0 74 29z" />
    <glyph glyph-name="uni0691" unicode="&#x691;" horiz-adv-x="389" arabic-form="isolated" 
d="M239 114q0 20 -14 56t-37.5 80t-52.5 87l113 63q29 -35 52 -83t36.5 -98t13.5 -93q0 -72 -35 -137t-102 -116t-163 -82l-72 124q73 26 132 60.5t94 71t35 67.5zM312 546q0 -85 -124 -85q-30 0 -54 1t-46 3l-14 63q29 -5 57 -7l-5 187l55 11l-4 -135q30 50 65 50
q31 0 50.5 -25t19.5 -63zM266 548q0 25 -27 25q-30 0 -59 -54h12q74 0 74 29z" />
    <glyph glyph-name="uni0698" unicode="&#x698;" horiz-adv-x="389" arabic-form="isolated" 
d="M239 114q0 20 -14 56t-37.5 80t-52.5 87l113 63q29 -35 52 -83t36.5 -98t13.5 -93q0 -72 -35 -137t-102 -116t-163 -82l-72 124q73 26 132 60.5t94 71t35 67.5zM265 460l-72 72l-72 -72l-76 76l76 76l72 -72l72 72l76 -76zM193 605l-74 74l74 74l74 -74z" />
    <glyph glyph-name="uni06A1.init" unicode="&#x6a1;" horiz-adv-x="431" 
d="M33 362q0 60 23.5 107t61.5 74t82 27q89 0 134 -90.5t45 -255.5q0 -82 -18.5 -129t-70.5 -68q-41 -16 -100 -21.5t-158 -5.5h-32l-16 10v125l16 10h32q93 0 147 3.5t77.5 12.5t23.5 24v43q-44 -28 -93 -28q-73 0 -113.5 43.5t-40.5 118.5zM125 367q0 -28 18 -43.5
t52 -15.5q47 0 80 20q-7 65 -27 90.5t-51 25.5t-51.5 -22.5t-20.5 -54.5z" />
    <glyph glyph-name="uni06A1.medi" unicode="&#x6a1;" horiz-adv-x="444" 
d="M-16 135l16 10q18 0 37 0.5t37 1.5q-27 41 -27 96q0 57 24 103t64 72.5t87 26.5q46 0 85.5 -26.5t63.5 -72.5t24 -103q0 -30 -7 -53.5t-20 -43.5q23 0 43.5 -0.5t32.5 -0.5l16 -10v-125l-16 -10q-54 0 -110.5 8.5t-111.5 30.5q-56 -23 -113 -31t-109 -8l-16 10v125z
M145 242q0 -52 75 -78q34 9 55.5 28t21.5 50q0 33 -21.5 54.5t-53.5 21.5q-33 0 -55 -21.5t-22 -54.5z" />
    <glyph glyph-name="uni06A1.fina" unicode="&#x6a1;" horiz-adv-x="835" 
d="M37 196q0 49 18 104.5t49 104.5l83 -41q-16 -34 -23.5 -65t-7.5 -56q0 -37 22.5 -60.5t74.5 -34.5t140 -11q20 0 39 1t37 2q-31 44 -31 103q0 57 24 103t63.5 72.5t86.5 26.5q46 0 85.5 -26.5t64 -72.5t24.5 -103q0 -29 -7.5 -53t-20.5 -44q19 0 38.5 -0.5t38.5 -0.5
l16 -10v-125l-16 -10q-51 0 -107.5 8t-112.5 29q-50 -21 -108 -34t-117 -13q-182 0 -267.5 51t-85.5 155zM536 242q0 -25 19 -46t58 -33q75 26 75 79q0 33 -22 54.5t-54 21.5q-33 0 -54.5 -21.5t-21.5 -54.5z" />
    <glyph glyph-name="uni06A4" unicode="&#x6a4;" horiz-adv-x="794" arabic-form="isolated" 
d="M397 362q0 60 23 107t61 74t82 27q89 0 134 -90.5t45 -255.5q0 -90 -21 -134t-74 -65q-41 -18 -105 -26.5t-149 -8.5q-184 0 -270 50t-86 156q0 49 18 104.5t49 104.5l87 -43q-31 -68 -31 -119q0 -58 54.5 -82t178.5 -24q137 0 194 11t57 37v43q-44 -28 -94 -28
q-73 0 -113 43.5t-40 118.5zM488 367q0 -28 18.5 -43.5t52.5 -15.5q47 0 80 21q-7 64 -27.5 89.5t-50.5 25.5q-32 0 -52.5 -22.5t-20.5 -54.5zM635 629l-72 72l-72 -72l-76 76l76 76l72 -72l72 72l76 -76zM563 774l-74 74l74 74l74 -74z" />
    <glyph glyph-name="uni06A5.init" unicode="&#x6a5;" horiz-adv-x="431" 
d="M33 362q0 60 23.5 107t61.5 74t82 27q89 0 134 -90.5t45 -255.5q0 -82 -18.5 -129t-70.5 -68q-41 -16 -100 -21.5t-158 -5.5h-32l-16 10v125l16 10h32q93 0 147 3.5t77.5 12.5t23.5 24v43q-44 -28 -93 -28q-73 0 -113.5 43.5t-40.5 118.5zM125 367q0 -28 18 -43.5
t52 -15.5q47 0 80 20q-7 65 -27 90.5t-51 25.5t-51.5 -22.5t-20.5 -54.5zM259 -218l-72 72l-72 -72l-76 76l76 76l72 -72l72 72l76 -76zM187 -359l-75 75l75 74l74 -74z" />
    <glyph glyph-name="uni06A5.medi" unicode="&#x6a5;" horiz-adv-x="444" 
d="M-16 135l16 10q18 0 37 0.5t37 1.5q-27 41 -27 96q0 57 24 103t64 72.5t87 26.5q46 0 85.5 -26.5t63.5 -72.5t24 -103q0 -30 -7 -53.5t-20 -43.5q23 0 43.5 -0.5t32.5 -0.5l16 -10v-125l-16 -10q-54 0 -110.5 8.5t-111.5 30.5q-56 -23 -113 -31t-109 -8l-16 10v125z
M145 242q0 -52 75 -78q34 9 55.5 28t21.5 50q0 33 -21.5 54.5t-53.5 21.5q-33 0 -55 -21.5t-22 -54.5zM291 -229l-72 72l-72 -72l-76 76l76 76l72 -72l72 72l76 -76zM219 -370l-75 75l75 74l74 -74z" />
    <glyph glyph-name="uni06A5.fina" unicode="&#x6a5;" horiz-adv-x="835" 
d="M37 196q0 49 18 104.5t49 104.5l83 -41q-16 -34 -23.5 -65t-7.5 -56q0 -37 22.5 -60.5t74.5 -34.5t140 -11q20 0 39 1t37 2q-31 44 -31 103q0 57 24 103t63.5 72.5t86.5 26.5q46 0 85.5 -26.5t64 -72.5t24.5 -103q0 -29 -7.5 -53t-20.5 -44q19 0 38.5 -0.5t38.5 -0.5
l16 -10v-125l-16 -10q-51 0 -107.5 8t-112.5 29q-50 -21 -108 -34t-117 -13q-182 0 -267.5 51t-85.5 155zM536 242q0 -25 19 -46t58 -33q75 26 75 79q0 33 -22 54.5t-54 21.5q-33 0 -54.5 -21.5t-21.5 -54.5zM461 -229l-72 72l-72 -72l-76 76l76 76l72 -72l72 72l76 -76z
M389 -370l-75 75l75 74l74 -74z" />
    <glyph glyph-name="uni06A8.init" unicode="&#x6a8;" horiz-adv-x="431" 
d="M33 362q0 60 23.5 107t61.5 74t82 27q89 0 134 -90.5t45 -255.5q0 -82 -18.5 -129t-70.5 -68q-41 -16 -100 -21.5t-158 -5.5h-32l-16 10v125l16 10h32q93 0 147 3.5t77.5 12.5t23.5 24v43q-44 -28 -93 -28q-73 0 -113.5 43.5t-40.5 118.5zM125 367q0 -28 18 -43.5
t52 -15.5q47 0 80 20q-7 65 -27 90.5t-51 25.5t-51.5 -22.5t-20.5 -54.5zM271 629l-72 72l-72 -72l-76 76l76 76l72 -72l72 72l76 -76zM199 774l-74 74l74 74l74 -74z" />
    <glyph glyph-name="uni06A8.medi" unicode="&#x6a8;" horiz-adv-x="444" 
d="M-16 135l16 10q18 0 37 0.5t37 1.5q-27 41 -27 96q0 57 24 103t64 72.5t87 26.5q46 0 85.5 -26.5t63.5 -72.5t24 -103q0 -30 -7 -53.5t-20 -43.5q23 0 43.5 -0.5t32.5 -0.5l16 -10v-125l-16 -10q-54 0 -110.5 8.5t-111.5 30.5q-56 -23 -113 -31t-109 -8l-16 10v125z
M145 242q0 -52 75 -78q34 9 55.5 28t21.5 50q0 33 -21.5 54.5t-53.5 21.5q-33 0 -55 -21.5t-22 -54.5zM294 503l-72 72l-72 -72l-76 76l76 76l72 -72l72 72l76 -76zM222 648l-74 74l74 74l74 -74z" />
    <glyph glyph-name="uni06A8.fina" unicode="&#x6a8;" horiz-adv-x="670" 
d="M38 40q0 59 21.5 120.5t61.5 113.5l82 -51q-22 -37 -34.5 -76t-12.5 -76q0 -63 49 -100.5t139 -37.5q54 0 97 8.5t68 23.5t25 35v18h-38q-103 0 -159.5 47t-56.5 139q0 61 23.5 108.5t62 74.5t82.5 27q155 0 180 -269h42l16 -10v-125l-16 -10h-39q-10 -98 -84 -151.5
t-212 -53.5q-94 0 -160.5 31t-101.5 86t-35 128zM371 208q0 -68 122 -68h38q-7 79 -30 113.5t-57 34.5q-32 0 -52.5 -23t-20.5 -57zM517 472l-72 72l-72 -72l-76 76l76 76l72 -72l72 72l76 -76zM445 617l-74 74l74 74l74 -74z" />
    <glyph glyph-name="uni06A9" unicode="&#x6a9;" horiz-adv-x="771" arabic-form="isolated" 
d="M660 172q0 -85 -80.5 -133.5t-230.5 -48.5q-312 0 -312 206q0 49 18 104.5t49 104.5l87 -43q-31 -68 -31 -119q0 -56 49 -81t140 -25q56 0 100.5 6.5t70.5 18t26 24.5q0 32 -46.5 87t-141.5 119l19 115q93 47 182.5 86.5t172.5 71.5l24 -126q-65 -23 -124 -46t-133 -55
q77 -69 119 -136t42 -130z" />
    <glyph glyph-name="uni06AF" unicode="&#x6af;" horiz-adv-x="771" arabic-form="isolated" 
d="M660 172q0 -85 -80.5 -133.5t-230.5 -48.5q-312 0 -312 206q0 49 18 104.5t49 104.5l87 -43q-31 -68 -31 -119q0 -56 49 -81t140 -25q56 0 100.5 6.5t70.5 18t26 24.5q0 32 -46.5 87t-141.5 119l19 115q93 47 182.5 86.5t172.5 71.5l24 -126q-65 -23 -124 -46t-133 -55
q77 -69 119 -136t42 -130zM672 708q-74 -36 -145.5 -67t-142.5 -57v65q71 26 140.5 56t147.5 68v-65z" />
    <glyph glyph-name="uni06BA" unicode="&#x6ba;" horiz-adv-x="625" arabic-form="isolated" 
d="M587 43q0 -73 -34.5 -129t-96.5 -87.5t-143 -31.5q-129 0 -202 65.5t-73 179.5q0 59 22 121t61 113l82 -51q-47 -81 -47 -150q0 -60 41 -96t116 -36q70 0 115 27.5t45 65.5q0 35 -16.5 90t-51.5 131l114 63q20 -41 35 -90.5t24 -98t9 -86.5z" />
    <glyph glyph-name="uni06BE" unicode="&#x6be;" horiz-adv-x="738" arabic-form="isolated" 
d="M196 233q0 50 19 91.5t51.5 67.5t72.5 30l41 98q98 -31 170.5 -83.5t112 -120.5t39.5 -147q0 -85 -51.5 -127t-140.5 -42q-43 0 -84 11.5t-76 28.5q-47 -19 -98 -29.5t-100 -10.5q-22 0 -51.5 2t-49.5 6l-31 147q26 -4 63 -7t69 -3q39 0 69 1q-25 42 -25 87zM284 239
q0 -48 69 -74q37 12 53.5 30.5t16.5 43.5q0 29 -20 49t-50 20q-27 0 -48 -20t-21 -49zM604 174q0 42 -31.5 85t-86.5 78q25 -46 25 -102q0 -26 -6.5 -49t-17.5 -42h9q51 0 79.5 8.5t28.5 21.5z" />
    <glyph glyph-name="uni06C0" unicode="&#x6c0;" horiz-adv-x="462" arabic-form="isolated" 
d="M371 41.5q-51 -49.5 -140 -49.5q-92 0 -142 48.5t-50 139.5q0 73 26.5 133t70 96t95.5 36q53 0 96.5 -35.5t69 -96.5t25.5 -136q0 -86 -51 -135.5zM295 271q-25 37 -64 37q-37 0 -63.5 -32t-26.5 -76q0 -75 90 -75q38 0 63.5 15.5t25.5 35.5q0 58 -25 95zM155 613
q0 35 24 60t59 25q41 0 65 -37l-25 -35q-16 10 -35 10q-16 0 -26 -7t-10 -18q0 -13 14.5 -21t38.5 -11q36 7 68 9l-9 -64q-43 -3 -82.5 -10t-80.5 -20l-20 49q21 9 47 17q-28 21 -28 53z" />
    <glyph glyph-name="uni06C1" unicode="&#x6c1;" horiz-adv-x="462" arabic-form="isolated" 
d="M371 41.5q-51 -49.5 -140 -49.5q-92 0 -142 48.5t-50 139.5q0 73 26.5 133t70 96t95.5 36q53 0 96.5 -35.5t69 -96.5t25.5 -136q0 -86 -51 -135.5zM295 271q-25 37 -64 37q-37 0 -63.5 -32t-26.5 -76q0 -75 90 -75q38 0 63.5 15.5t25.5 35.5q0 58 -25 95z" />
    <glyph glyph-name="uni06C2.fina" unicode="&#x6c2;" horiz-adv-x="564" 
d="M491.5 161.5q24.5 -16.5 72.5 -16.5l16 -10v-125l-16 -10q-58 0 -95 12t-62 42.5t-49 83.5q-15 34 -27.5 46t-34.5 12q-35 0 -94 -28.5t-118 -77.5l-52 90q37 45 87 81.5t101.5 58t92.5 21.5q51 0 79.5 -26.5t53.5 -85.5q21 -51 45.5 -67.5zM178 507q0 35 24 60t59 25
q41 0 65 -37l-25 -35q-16 10 -35 10q-16 0 -26 -7t-10 -18q0 -13 14.5 -21t38.5 -11q36 7 68 9l-9 -64q-43 -3 -82.5 -10t-80.5 -20l-20 49q21 9 47 17q-28 21 -28 53z" />
    <glyph glyph-name="uni06C3.fina" unicode="&#x6c3;" horiz-adv-x="564" 
d="M491.5 161.5q24.5 -16.5 72.5 -16.5l16 -10v-125l-16 -10q-58 0 -95 12t-62 42.5t-49 83.5q-15 34 -27.5 46t-34.5 12q-35 0 -94 -28.5t-118 -77.5l-52 90q37 45 87 81.5t101.5 58t92.5 21.5q51 0 79.5 -26.5t53.5 -85.5q21 -51 45.5 -67.5zM254 471l-72 -73l-78 78
l78 78l72 -73l72 73l78 -78l-78 -78z" />
    <glyph glyph-name="uni06CC" unicode="&#x6cc;" horiz-adv-x="690" arabic-form="isolated" 
d="M406 252q0 -19 14.5 -29.5t62.5 -25.5l59 -18q56 -16 83 -44.5t27 -75.5q0 -77 -46 -137t-124.5 -93.5t-176.5 -33.5q-80 0 -140 29.5t-93.5 84.5t-33.5 131q0 59 22 121t61 113l82 -51q-47 -81 -47 -150q0 -60 44 -96t123 -36q59 0 104.5 13.5t72 35.5t26.5 45
q0 10 -10 16t-40 16l-63 20q-54 17 -82 50t-28 95q0 55 26.5 102.5t68.5 77t90 29.5q52 0 92.5 -33t62.5 -89l-72 -54q-34 47 -87 47q-33 0 -55.5 -18.5t-22.5 -41.5z" />
    <glyph glyph-name="uni06D2" unicode="&#x6d2;" horiz-adv-x="663" arabic-form="isolated" 
d="M33 154q0 37 22 79t59 83.5t82 75t90.5 54t85.5 20.5q42 0 69 -42t32 -117l-88 -29q-6 23 -13 33t-19 10q-24 0 -57 -15t-65 -38t-53.5 -46.5t-21.5 -40.5q0 -24 50 -36t154 -12q30 0 70 1.5t81.5 4.5t76 6.5t53.5 6.5l-27 -143q-30 -5 -74.5 -9t-94 -6.5t-94.5 -2.5
q-167 0 -242.5 40t-75.5 123z" />
    <glyph glyph-name="uni06D3" unicode="&#x6d3;" horiz-adv-x="663" arabic-form="isolated" 
d="M33 154q0 37 22 79t59 83.5t82 75t90.5 54t85.5 20.5q42 0 69 -42t32 -117l-88 -29q-6 23 -13 33t-19 10q-24 0 -57 -15t-65 -38t-53.5 -46.5t-21.5 -40.5q0 -24 50 -36t154 -12q30 0 70 1.5t81.5 4.5t76 6.5t53.5 6.5l-27 -143q-30 -5 -74.5 -9t-94 -6.5t-94.5 -2.5
q-167 0 -242.5 40t-75.5 123zM258 634q0 35 24 60t59 25q41 0 65 -37l-25 -35q-16 10 -35 10q-16 0 -26 -7t-10 -18q0 -13 14.5 -21t38.5 -11q36 7 68 9l-9 -64q-43 -3 -82.5 -10t-80.5 -20l-20 49q21 9 47 17q-28 21 -28 53z" />
    <glyph glyph-name="uni06D5.fina" unicode="&#x6d5;" horiz-adv-x="479" 
d="M29 234q0 84 67.5 145t194.5 93l-1 56l117 21l-5 -344q0 -33 17.5 -46.5t59.5 -13.5l16 -10v-125l-16 -10q-146 0 -175 102q-46 -28 -105 -28q-48 0 -86.5 19.5t-61 55.5t-22.5 85zM132 260q0 -26 26 -38t63 -12q39 0 75 12l-3 126q-45 -5 -81.5 -17.5t-58 -30.5
t-21.5 -40z" />
    <glyph glyph-name="uniFB51" unicode="&#x671;" horiz-adv-x="253" arabic-form="final" 
d="M190.5 159q19.5 -14 62.5 -14l16 -10v-125l-16 -10q-192 0 -194 160l-6 477l123 22l-5 -453q0 -33 19.5 -47zM236 813q0 -85 -124 -85q-31 0 -54.5 1t-45.5 3l-14 63q27 -5 56 -7q49 113 112 113q31 0 50.5 -25t19.5 -63zM190 815q0 25 -27 25q-30 0 -59 -54h12
q74 0 74 29z" />
    <glyph glyph-name="uniFB57" unicode="&#x67e;" horiz-adv-x="865" arabic-form="final" 
d="M37 196q0 49 18 104.5t49 104.5l87 -43q-31 -68 -31 -119q0 -58 54.5 -82t178.5 -24q91 0 144.5 6.5t79 22.5t31.5 46q4 18 9.5 52t8.5 57l108 -14q-5 -37 -9 -71t-4 -42q0 -25 24.5 -37t79.5 -12l16 -10v-125l-16 -10q-57 0 -97.5 16t-64.5 58q-43 -50 -123.5 -67
t-186.5 -17q-184 0 -270 50t-86 156zM464 -218l-72 72l-72 -72l-76 76l76 76l72 -72l72 72l76 -76zM392 -359l-75 75l75 74l74 -74z" />
    <glyph glyph-name="uniFB58" unicode="&#x67e;" horiz-adv-x="290" arabic-form="initial" 
d="M-16 135l16 10q61 0 98.5 14.5t37.5 34.5t-9 50.5t-23.5 65.5t-33.5 67l115 63q20 -33 34 -76t22 -85t8 -74q0 -108 -62 -156.5t-187 -48.5l-16 10v125zM193 -218l-72 72l-72 -72l-76 76l76 76l72 -72l72 72l76 -76zM121 -359l-75 75l75 74l74 -74z" />
    <glyph glyph-name="uniFB59" unicode="&#x67e;" horiz-adv-x="339" arabic-form="medial" 
d="M-16 135l16 10q59 0 85.5 13t32.5 41q5 23 10.5 58.5t9.5 63.5l109 -14q-5 -37 -9 -71t-4 -42q0 -25 24.5 -37t80.5 -12l16 -10v-125l-16 -10q-62 0 -100 17t-61 53q-26 -35 -69.5 -52.5t-108.5 -17.5l-16 10v125zM217 -218l-72 72l-72 -72l-76 76l76 76l72 -72l72 72
l76 -76zM145 -359l-75 75l75 74l74 -74z" />
    <glyph glyph-name="uniFB67" unicode="&#x679;" horiz-adv-x="865" arabic-form="final" 
d="M37 196q0 49 18 104.5t49 104.5l87 -43q-31 -68 -31 -119q0 -58 54.5 -82t178.5 -24q91 0 144.5 6.5t79 22.5t31.5 46q4 18 9.5 52t8.5 57l108 -14q-5 -37 -9 -71t-4 -42q0 -25 24.5 -37t79.5 -12l16 -10v-125l-16 -10q-57 0 -97.5 16t-64.5 58q-43 -50 -123.5 -67
t-186.5 -17q-184 0 -270 50t-86 156zM539 505q0 -85 -124 -85q-30 0 -54 1t-46 3l-14 63q29 -5 57 -7l-5 187l55 11l-4 -135q30 50 65 50q31 0 50.5 -25t19.5 -63zM493 507q0 25 -27 25q-30 0 -59 -54h12q74 0 74 29z" />
    <glyph glyph-name="uniFB68" unicode="&#x679;" horiz-adv-x="290" arabic-form="initial" 
d="M-16 135l16 10q61 0 98.5 14.5t37.5 34.5t-9 50.5t-23.5 65.5t-33.5 67l115 63q20 -33 34 -76t22 -85t8 -74q0 -108 -62 -156.5t-187 -48.5l-16 10v125zM242 588q0 -85 -124 -85q-30 0 -54 1t-46 3l-14 63q29 -5 57 -7l-5 187l55 11l-4 -135q30 50 65 50q31 0 50.5 -25
t19.5 -63zM196 590q0 25 -27 25q-30 0 -59 -54h12q74 0 74 29z" />
    <glyph glyph-name="uniFB69" unicode="&#x679;" horiz-adv-x="339" arabic-form="medial" 
d="M-16 135l16 10q59 0 85.5 13t32.5 41q5 23 10.5 58.5t9.5 63.5l109 -14q-5 -37 -9 -71t-4 -42q0 -25 24.5 -37t80.5 -12l16 -10v-125l-16 -10q-62 0 -100 17t-61 53q-26 -35 -69.5 -52.5t-108.5 -17.5l-16 10v125zM315 475q0 -85 -124 -85q-30 0 -54 1t-46 3l-14 63
q29 -5 57 -7l-5 187l55 11l-4 -135q30 50 65 50q31 0 50.5 -25t19.5 -63zM269 477q0 25 -27 25q-30 0 -59 -54h12q74 0 74 29z" />
    <glyph glyph-name="uniFB6B" unicode="&#x6a4;" horiz-adv-x="835" arabic-form="final" 
d="M37 196q0 49 18 104.5t49 104.5l83 -41q-16 -34 -23.5 -65t-7.5 -56q0 -37 22.5 -60.5t74.5 -34.5t140 -11q20 0 39 1t37 2q-31 44 -31 103q0 57 24 103t63.5 72.5t86.5 26.5q46 0 85.5 -26.5t64 -72.5t24.5 -103q0 -29 -7.5 -53t-20.5 -44q19 0 38.5 -0.5t38.5 -0.5
l16 -10v-125l-16 -10q-51 0 -107.5 8t-112.5 29q-50 -21 -108 -34t-117 -13q-182 0 -267.5 51t-85.5 155zM536 242q0 -25 19 -46t58 -33q75 26 75 79q0 33 -22 54.5t-54 21.5q-33 0 -54.5 -21.5t-21.5 -54.5zM685 503l-72 72l-72 -72l-76 76l76 76l72 -72l72 72l76 -76z
M613 648l-74 74l74 74l74 -74z" />
    <glyph glyph-name="uniFB6C" unicode="&#x6a4;" horiz-adv-x="431" arabic-form="initial" 
d="M33 362q0 60 23.5 107t61.5 74t82 27q89 0 134 -90.5t45 -255.5q0 -82 -18.5 -129t-70.5 -68q-41 -16 -100 -21.5t-158 -5.5h-32l-16 10v125l16 10h32q93 0 147 3.5t77.5 12.5t23.5 24v43q-44 -28 -93 -28q-73 0 -113.5 43.5t-40.5 118.5zM125 367q0 -28 18 -43.5
t52 -15.5q47 0 80 20q-7 65 -27 90.5t-51 25.5t-51.5 -22.5t-20.5 -54.5zM271 629l-72 72l-72 -72l-76 76l76 76l72 -72l72 72l76 -76zM199 774l-74 74l74 74l74 -74z" />
    <glyph glyph-name="uniFB6D" unicode="&#x6a4;" horiz-adv-x="444" arabic-form="medial" 
d="M-16 135l16 10q18 0 37 0.5t37 1.5q-27 41 -27 96q0 57 24 103t64 72.5t87 26.5q46 0 85.5 -26.5t63.5 -72.5t24 -103q0 -30 -7 -53.5t-20 -43.5q23 0 43.5 -0.5t32.5 -0.5l16 -10v-125l-16 -10q-54 0 -110.5 8.5t-111.5 30.5q-56 -23 -113 -31t-109 -8l-16 10v125z
M145 242q0 -52 75 -78q34 9 55.5 28t21.5 50q0 33 -21.5 54.5t-53.5 21.5q-33 0 -55 -21.5t-22 -54.5zM294 503l-72 72l-72 -72l-76 76l76 76l72 -72l72 72l76 -76zM222 648l-74 74l74 74l74 -74z" />
    <glyph glyph-name="uniFB7B" unicode="&#x686;" horiz-adv-x="641" arabic-form="final" 
d="M473 187v16q-142 -43 -217.5 -102.5t-75.5 -127.5q0 -60 54.5 -96t149.5 -36q47 0 94 9t79 23l40 -87q-43 -43 -106.5 -67t-134.5 -24q-87 0 -153 31t-103 86t-37 127q0 103 76.5 188.5t216.5 134.5q-21 4 -39 8q-46 13 -76 18t-47 5q-23 0 -40 -8t-37 -30l-72 55
q32 57 70 87t93 30q33 0 73.5 -8.5t108.5 -28.5q52 -14 91 -21.5t67 -7.5h24v-133q-17 -4 -33 -8v-7q0 -34 22 -51t80 -17l16 -10v-125l-16 -10q-76 0 -122 46t-46 141zM389 54l48 49l54 -54l-54 -53l-48 48l-48 -48l-54 53l54 54zM335 -50l54 54l54 -54l-54 -54z" />
    <glyph glyph-name="uniFB7C" unicode="&#x686;" horiz-adv-x="577" arabic-form="initial" 
d="M527 204q-30 -9 -56 -20t-60 -30t-88 -52q-68 -42 -119.5 -64t-99 -30t-104.5 -8l-16 10v125l16 10q70 0 130 12.5t126 42.5q27 11 51 20.5t47 16.5q-17 6 -39 15q-97 41 -142 41q-22 0 -39.5 -8t-36.5 -30l-72 55q32 59 70 88t92 29q21 0 41.5 -4t51 -15t77.5 -31
q38 -16 62.5 -25t43 -12.5t37.5 -3.5h27v-132zM333 -198l-72 72l-72 -72l-76 76l76 76l72 -72l72 72l76 -76zM261 -339l-75 75l75 74l74 -74z" />
    <glyph glyph-name="uniFB7D" unicode="&#x686;" horiz-adv-x="591" arabic-form="medial" 
d="M527 204q-20 -6 -36 -12q5 -28 28 -37.5t72 -9.5l16 -10v-125l-16 -10q-150 0 -157 166q-21 -11 -47.5 -26.5t-63.5 -37.5q-68 -42 -119.5 -64t-99 -30t-104.5 -8l-16 10v125l16 10q70 0 130 12.5t126 42.5q27 11 51 20.5t47 16.5q-17 6 -39 15q-97 41 -142 41
q-22 0 -39.5 -8t-36.5 -30l-72 55q32 59 70 88t92 29q21 0 41.5 -4t51 -15t77.5 -31q38 -16 62.5 -25t43 -12.5t37.5 -3.5h27v-132zM333 -198l-72 72l-72 -72l-76 76l76 76l72 -72l72 72l76 -76zM261 -339l-75 75l75 74l74 -74z" />
    <glyph glyph-name="uniFB89" unicode="&#x688;" horiz-adv-x="503" arabic-form="final" 
d="M22 149q35 -5 72 -8.5t68 -3.5q78 0 130 16q-21 44 -46.5 107.5t-55.5 148.5l121 58q24 -73 49 -144.5t46 -120.5q15 -35 34.5 -46t62.5 -11l16 -10v-125l-16 -10q-88 0 -137 41q-59 -49 -188 -49q-33 0 -67.5 2.5t-57.5 6.5zM357 610q0 -85 -124 -85q-30 0 -54 1t-46 3
l-14 63q29 -5 57 -7l-5 187l55 11l-4 -135q30 50 65 50q31 0 50.5 -25t19.5 -63zM311 612q0 25 -27 25q-30 0 -59 -54h12q74 0 74 29z" />
    <glyph glyph-name="uniFB8B" unicode="&#x698;" horiz-adv-x="436" arabic-form="final" 
d="M239 104q-15 28 -29.5 67t-34.5 98l118 55q14 -41 24.5 -72.5t17.5 -48.5q13 -34 34.5 -46t66.5 -12l16 -10v-125l-16 -10q-32 0 -58.5 5.5t-50.5 18.5q-30 -82 -100.5 -140.5t-176.5 -92.5l-72 124q111 41 179 91.5t82 97.5zM286 382l-72 72l-72 -72l-76 76l76 76
l72 -72l72 72l76 -76zM214 527l-74 74l74 74l74 -74z" />
    <glyph glyph-name="uniFB8D" unicode="&#x691;" horiz-adv-x="436" arabic-form="final" 
d="M239 104q-15 28 -29.5 67t-34.5 98l118 55q14 -41 24.5 -72.5t17.5 -48.5q13 -34 34.5 -46t66.5 -12l16 -10v-125l-16 -10q-32 0 -58.5 5.5t-50.5 18.5q-30 -82 -100.5 -140.5t-176.5 -92.5l-72 124q111 41 179 91.5t82 97.5zM333 468q0 -85 -124 -85q-30 0 -54 1t-46 3
l-14 63q29 -5 57 -7l-5 187l55 11l-4 -135q30 50 65 50q31 0 50.5 -25t19.5 -63zM287 470q0 25 -27 25q-30 0 -59 -54h12q74 0 74 29z" />
    <glyph glyph-name="uniFB8F" unicode="&#x6a9;" horiz-adv-x="792" arabic-form="final" 
d="M37 196q0 49 18 104.5t49 104.5l87 -43q-31 -68 -31 -119q0 -56 49 -81t140 -25q57 0 99.5 7t75.5 20l-123 228l19 115q92 46 182 86t173 72l24 -126q-70 -24 -134 -49.5t-147 -61.5l112 -209q16 -30 35 -46t49 -22t78 -6l16 -10v-125l-16 -10q-67 0 -112 13t-78 42
q-45 -34 -109 -49.5t-144 -15.5q-312 0 -312 206z" />
    <glyph glyph-name="uniFB90" unicode="&#x6a9;" horiz-adv-x="447" arabic-form="initial" 
d="M-16 135l16 10q54 0 105.5 6t84.5 15.5t33 20.5q0 32 -47 86.5t-142 118.5l19 115q93 47 183 86.5t172 71.5l25 -126q-65 -23 -124.5 -46t-133.5 -55q78 -69 119.5 -136t41.5 -130q0 -81 -79 -126.5t-257 -45.5l-16 10v125z" />
    <glyph glyph-name="uniFB91" unicode="&#x6a9;" horiz-adv-x="425" arabic-form="medial" 
d="M-16 135l16 10q93 0 155 22l-121 225l19 115q92 46 182 86t173 72l24 -126q-70 -24 -134 -49.5t-147 -61.5l112 -209q17 -30 35.5 -46t48.5 -22t78 -6l16 -10v-125l-16 -10q-69 0 -114 13.5t-78 42.5q-38 -27 -92.5 -41.5t-140.5 -14.5l-16 10v125z" />
    <glyph glyph-name="uniFB93" unicode="&#x6af;" horiz-adv-x="792" arabic-form="final" 
d="M37 196q0 49 18 104.5t49 104.5l87 -43q-31 -68 -31 -119q0 -56 49 -81t140 -25q57 0 99.5 7t75.5 20l-123 228l19 115q92 46 182 86t173 72l24 -126q-70 -24 -134 -49.5t-147 -61.5l112 -209q16 -30 35 -46t49 -22t78 -6l16 -10v-125l-16 -10q-67 0 -112 13t-78 42
q-45 -34 -109 -49.5t-144 -15.5q-312 0 -312 206zM720 708q-74 -36 -145.5 -67t-142.5 -57v65q71 26 140.5 56t147.5 68v-65z" />
    <glyph glyph-name="uniFB94" unicode="&#x6af;" horiz-adv-x="447" arabic-form="initial" 
d="M-16 135l16 10q54 0 105.5 6t84.5 15.5t33 20.5q0 32 -47 86.5t-142 118.5l19 115q93 47 183 86.5t172 71.5l25 -126q-65 -23 -124.5 -46t-133.5 -55q78 -69 119.5 -136t41.5 -130q0 -81 -79 -126.5t-257 -45.5l-16 10v125zM348 708q-74 -36 -145.5 -67t-142.5 -57v65
q71 26 140.5 56t147.5 68v-65z" />
    <glyph glyph-name="uniFB95" unicode="&#x6af;" horiz-adv-x="425" arabic-form="medial" 
d="M-16 135l16 10q93 0 155 22l-121 225l19 115q92 46 182 86t173 72l24 -126q-70 -24 -134 -49.5t-147 -61.5l112 -209q17 -30 35.5 -46t48.5 -22t78 -6l16 -10v-125l-16 -10q-69 0 -114 13.5t-78 42.5q-38 -27 -92.5 -41.5t-140.5 -14.5l-16 10v125zM348 708
q-74 -36 -145.5 -67t-142.5 -57v65q71 26 140.5 56t147.5 68v-65z" />
    <glyph glyph-name="uniFB9F" unicode="&#x6ba;" horiz-adv-x="657" arabic-form="final" 
d="M38 40q0 59 22 121t61 113l82 -51q-47 -81 -47 -150q0 -60 41 -96t116 -36q70 0 115 27.5t45 65.5q0 35 -16.5 90t-51.5 131l114 63q15 -32 28 -70t22 -76q23 -27 88 -27l16 -10v-125l-16 -10q-38 0 -72 11q-8 -65 -44 -113.5t-94.5 -75.5t-133.5 -27q-129 0 -202 65.5
t-73 179.5z" />
    <glyph glyph-name="uniFBA5" unicode="&#x6c0;" horiz-adv-x="479" arabic-form="final" 
d="M29 234q0 84 67.5 145t194.5 93l-1 56l117 21l-5 -344q0 -33 17.5 -46.5t59.5 -13.5l16 -10v-125l-16 -10q-146 0 -175 102q-46 -28 -105 -28q-48 0 -86.5 19.5t-61 55.5t-22.5 85zM132 260q0 -26 26 -38t63 -12q39 0 75 12l-3 126q-45 -5 -81.5 -17.5t-58 -30.5
t-21.5 -40zM159 707q0 35 24 60t59 25q41 0 65 -37l-25 -35q-16 10 -35 10q-16 0 -26 -7t-10 -18q0 -13 14.5 -21t38.5 -11q36 7 68 9l-9 -64q-43 -3 -82.5 -10t-80.5 -20l-20 49q21 9 47 17q-28 21 -28 53z" />
    <glyph glyph-name="uniFBA7" unicode="&#x6c1;" horiz-adv-x="564" arabic-form="final" 
d="M491.5 161.5q24.5 -16.5 72.5 -16.5l16 -10v-125l-16 -10q-58 0 -95 12t-62 42.5t-49 83.5q-15 34 -27.5 46t-34.5 12q-35 0 -94 -28.5t-118 -77.5l-52 90q37 45 87 81.5t101.5 58t92.5 21.5q51 0 79.5 -26.5t53.5 -85.5q21 -51 45.5 -67.5z" />
    <glyph glyph-name="uniFBA8" unicode="&#x6c1;" horiz-adv-x="293" arabic-form="initial" 
d="M49 -227q0 40 29 83.5t78 78.5l36 -33q-25 -25 -40.5 -51.5t-15.5 -40.5q0 -19 56 -71l-73 -70q-70 51 -70 104zM-16 135l16 10q61 0 98.5 14.5t37.5 34.5t-9 50.5t-23.5 65.5t-33.5 67l115 63q20 -33 34 -76t22 -85t8 -74q0 -108 -62 -156.5t-187 -48.5l-16 10v125z" />
    <glyph glyph-name="uniFBA9" unicode="&#x6c1;" horiz-adv-x="518" arabic-form="medial" 
d="M396 -56q0 -25 9.5 -60.5t31.5 -66.5l-62 -73q-73 14 -129.5 53.5t-92.5 98t-48 128.5q-22 -13 -46 -18.5t-48 -5.5h-11l-16 10v125l16 10q38 0 62 10.5t41 35t33 65.5l103 -33q-15 -37 -21.5 -67t-6.5 -61q0 -54 22 -101.5t72 -84.5q-3 15 -4 29t-1 27q0 51 17.5 92
t53.5 64.5t89 23.5h58l16 -10v-125l-16 -10h-74q-25 0 -36.5 -15t-11.5 -41z" />
    <glyph glyph-name="uniFBAB" unicode="&#x6be;" horiz-adv-x="604" arabic-form="final" 
d="M552 234q0 -49 -21 -89h73l16 -10v-125l-16 -10h-42q8 -16 11 -31.5t3 -30.5q0 -67 -47.5 -108.5t-124.5 -41.5q-80 0 -136.5 55.5t-71.5 157.5q-18 -1 -37 -1h-8q-24 0 -52 2t-48 6l-31 147q26 -4 61.5 -7t69.5 -3h9h39q9 60 31 114t51.5 96t62.5 66t65 24
q36 0 68.5 -30t53.5 -78.5t21 -102.5zM457 231q0 30 -17.5 54t-38.5 24q-22 0 -43 -21.5t-38 -58t-25 -80.5q79 6 120.5 24t41.5 58zM477 -30q0 52 -74 70q-47 -19 -106 -29q11 -39 37.5 -65.5t73.5 -26.5q32 0 50.5 14.5t18.5 36.5z" />
    <glyph glyph-name="uniFBAC" unicode="&#x6be;" horiz-adv-x="586" arabic-form="initial" 
d="M-16 135l16 10q41 0 69 1q-25 42 -25 87q0 53 21.5 96t57 68.5t78.5 25.5t78.5 -25t57 -67.5t21.5 -95.5q0 -26 -6 -49t-17 -42h8q52 0 80 14t28 36q0 52 -27 111t-84 111t-148 81l52 118q106 -36 173.5 -103t100 -149t32.5 -166q0 -99 -54.5 -148t-146.5 -49
q-39 0 -78 11.5t-74 28.5q-46 -19 -97 -29.5t-100 -10.5l-16 10v125zM271 239q0 29 -20 49t-50 20q-28 0 -49 -20t-21 -49q0 -48 69 -74q38 12 54.5 30.5t16.5 43.5z" />
    <glyph glyph-name="uniFBAD" unicode="&#x6be;" horiz-adv-x="453" arabic-form="medial" 
d="M-16 135l16 10h9h39q9 60 31 114t51.5 96t62.5 66t65 24q36 0 69 -30t53.5 -78.5t20.5 -102.5q0 -49 -21 -89h73l16 -10v-125l-16 -10h-42q8 -16 11 -31.5t3 -30.5q0 -67 -47.5 -108.5t-124.5 -41.5q-80 0 -136.5 55.5t-71.5 157.5q-18 -1 -37 -1h-8l-16 10v125zM306 231
q0 30 -17.5 54t-38.5 24q-22 0 -43 -21.5t-38 -58t-25 -80.5q79 6 120.5 24t41.5 58zM326 -30q0 52 -74 70q-47 -19 -106 -29q11 -39 37.5 -65.5t73.5 -26.5q32 0 50.5 14.5t18.5 36.5z" />
    <glyph glyph-name="uniFBAF" unicode="&#x6d2;" horiz-adv-x="578" arabic-form="final" 
d="M110 -61q0 -31 45.5 -43.5t160.5 -12.5q24 0 57.5 1.5t69 4t63.5 5.5l-30 -141q-33 -4 -79 -6.5t-81 -2.5q-87 0 -157.5 16t-111.5 57t-41 116q0 68 38.5 115.5t109 72t164.5 24.5h260l16 -10v-125l-16 -10h-339q-64 0 -96.5 -16.5t-32.5 -44.5z" />
    <glyph glyph-name="uniFBB1" unicode="&#x6d3;" horiz-adv-x="578" arabic-form="final" 
d="M110 -61q0 -31 45.5 -43.5t160.5 -12.5q24 0 57.5 1.5t69 4t63.5 5.5l-30 -141q-33 -4 -79 -6.5t-81 -2.5q-87 0 -157.5 16t-111.5 57t-41 116q0 68 38.5 115.5t109 72t164.5 24.5h260l16 -10v-125l-16 -10h-339q-64 0 -96.5 -16.5t-32.5 -44.5zM212 317q0 35 24 60
t59 25q41 0 65 -37l-25 -35q-16 10 -35 10q-16 0 -26 -7t-10 -18q0 -13 14.5 -21t38.5 -11q36 7 68 9l-9 -64q-43 -3 -82.5 -10t-80.5 -20l-20 49q21 9 47 17q-28 21 -28 53z" />
    <glyph glyph-name="uniFBE8" unicode="&#x649;" horiz-adv-x="290" arabic-form="initial" 
d="M-16 135l16 10q61 0 98.5 14.5t37.5 34.5t-9 50.5t-23.5 65.5t-33.5 67l115 63q20 -33 34 -76t22 -85t8 -74q0 -108 -62 -156.5t-187 -48.5l-16 10v125z" />
    <glyph glyph-name="uniFBE9" unicode="&#x649;" horiz-adv-x="339" arabic-form="medial" 
d="M-16 135l16 10q59 0 85.5 13t32.5 41q5 23 10.5 58.5t9.5 63.5l109 -14q-5 -37 -9 -71t-4 -42q0 -25 24.5 -37t80.5 -12l16 -10v-125l-16 -10q-62 0 -100 17t-61 53q-26 -35 -69.5 -52.5t-108.5 -17.5l-16 10v125z" />
    <glyph glyph-name="uniFBFD" unicode="&#x6cc;" horiz-adv-x="662" arabic-form="final" 
d="M601 -14q0 -46 -37.5 -90t-104 -72.5t-154.5 -28.5q-80 0 -140 29.5t-93.5 84.5t-33.5 131q0 59 22 121t61 113l82 -51q-47 -81 -47 -150q0 -60 44 -96t123 -36q80 0 129 26t49 57q0 8 -7 20.5t-26.5 37.5t-57.5 70l93 79q40 -52 75.5 -69t83.5 -17l16 -10v-125l-16 -10
q-15 0 -30.5 2.5t-33.5 8.5q3 -13 3 -25z" />
    <glyph glyph-name="uniFBFE" unicode="&#x6cc;" horiz-adv-x="290" arabic-form="initial" 
d="M-16 135l16 10q61 0 98.5 14.5t37.5 34.5t-9 50.5t-23.5 65.5t-33.5 67l115 63q20 -33 34 -76t22 -85t8 -74q0 -108 -62 -156.5t-187 -48.5l-16 10v125zM121 -148l-72 -73l-78 78l78 77l72 -72l72 72l78 -77l-78 -78z" />
    <glyph glyph-name="uniFBFF" unicode="&#x6cc;" horiz-adv-x="339" arabic-form="medial" 
d="M-16 135l16 10q59 0 85.5 13t32.5 41q5 23 10.5 58.5t9.5 63.5l109 -14q-5 -37 -9 -71t-4 -42q0 -25 24.5 -37t80.5 -12l16 -10v-125l-16 -10q-62 0 -100 17t-61 53q-26 -35 -69.5 -52.5t-108.5 -17.5l-16 10v125zM145 -148l-72 -73l-78 78l78 77l72 -72l72 72l78 -77
l-78 -78z" />
    <glyph glyph-name="yehHamzaabove_uni0649" unicode="&#xfc03;" horiz-adv-x="684" arabic-form="isolated" 
d="M641 259q0 -40 -20.5 -70t-58.5 -51q79 -49 79 -110q0 -62 -41 -115.5t-115.5 -85.5t-174.5 -32q-82 0 -143 29.5t-95 84.5t-34 131q0 59 22 121t61 113l82 -51q-47 -81 -47 -150q0 -60 45 -96t124 -36q60 0 105.5 14t70.5 33t25 35q0 8 -13.5 18t-47 24t-95.5 34l29 108
q62 0 94.5 9.5t32.5 25.5t-14 52.5t-39 82.5l116 63q26 -50 39 -100.5t13 -80.5zM451 611q0 35 24 60t59 25q41 0 65 -37l-25 -35q-16 10 -35 10q-16 0 -26 -7t-10 -18q0 -13 14.5 -21t38.5 -11q36 7 68 9l-9 -64q-43 -3 -82.5 -10t-80.5 -20l-20 49q21 9 47 17
q-28 21 -28 53z" />
    <glyph glyph-name="yehHamzaabove_uni064A" unicode="&#xfc04;" horiz-adv-x="684" arabic-form="isolated" 
d="M641 259q0 -40 -20.5 -70t-58.5 -51q79 -49 79 -110q0 -62 -41 -115.5t-115.5 -85.5t-174.5 -32q-82 0 -143 29.5t-95 84.5t-34 131q0 59 22 121t61 113l82 -51q-47 -81 -47 -150q0 -60 45 -96t124 -36q60 0 105.5 14t70.5 33t25 35q0 8 -13.5 18t-47 24t-95.5 34l29 108
q62 0 94.5 9.5t32.5 25.5t-14 52.5t-39 82.5l116 63q26 -50 39 -100.5t13 -80.5zM451 611q0 35 24 60t59 25q41 0 65 -37l-25 -35q-16 10 -35 10q-16 0 -26 -7t-10 -18q0 -13 14.5 -21t38.5 -11q36 7 68 9l-9 -64q-43 -3 -82.5 -10t-80.5 -20l-20 49q21 9 47 17
q-28 21 -28 53zM310 -353l-72 -73l-78 78l78 77l72 -72l72 72l78 -77l-78 -78z" />
    <glyph glyph-name="uniFC09" unicode="&#xfc09;" horiz-adv-x="684" arabic-form="isolated" 
d="M641 259q0 -40 -20.5 -70t-58.5 -51q79 -49 79 -110q0 -62 -41 -115.5t-115.5 -85.5t-174.5 -32q-82 0 -143 29.5t-95 84.5t-34 131q0 59 22 121t61 113l82 -51q-47 -81 -47 -150q0 -60 45 -96t124 -36q60 0 105.5 14t70.5 33t25 35q0 8 -13.5 18t-47 24t-95.5 34l29 108
q62 0 94.5 9.5t32.5 25.5t-14 52.5t-39 82.5l116 63q26 -50 39 -100.5t13 -80.5zM650 -336l-80 80l80 80l80 -80z" />
    <glyph glyph-name="beh_uni064A" unicode="&#xfc0a;" horiz-adv-x="684" arabic-form="isolated" 
d="M641 259q0 -40 -20.5 -70t-58.5 -51q79 -49 79 -110q0 -62 -41 -115.5t-115.5 -85.5t-174.5 -32q-82 0 -143 29.5t-95 84.5t-34 131q0 59 22 121t61 113l82 -51q-47 -81 -47 -150q0 -60 45 -96t124 -36q60 0 105.5 14t70.5 33t25 35q0 8 -13.5 18t-47 24t-95.5 34l29 108
q62 0 94.5 9.5t32.5 25.5t-14 52.5t-39 82.5l116 63q26 -50 39 -100.5t13 -80.5zM650 -336l-80 80l80 80l80 -80zM310 -353l-72 -73l-78 78l78 77l72 -72l72 72l78 -77l-78 -78z" />
    <glyph glyph-name="teh_uni0649" unicode="&#xfc0f;" horiz-adv-x="684" arabic-form="isolated" 
d="M641 259q0 -40 -20.5 -70t-58.5 -51q79 -49 79 -110q0 -62 -41 -115.5t-115.5 -85.5t-174.5 -32q-82 0 -143 29.5t-95 84.5t-34 131q0 59 22 121t61 113l82 -51q-47 -81 -47 -150q0 -60 45 -96t124 -36q60 0 105.5 14t70.5 33t25 35q0 8 -13.5 18t-47 24t-95.5 34l29 108
q62 0 94.5 9.5t32.5 25.5t-14 52.5t-39 82.5l116 63q26 -50 39 -100.5t13 -80.5zM527 575l-72 -73l-78 78l78 78l72 -73l72 73l78 -78l-78 -78z" />
    <glyph glyph-name="teh_uni064A" unicode="&#xfc10;" horiz-adv-x="684" arabic-form="isolated" 
d="M641 259q0 -40 -20.5 -70t-58.5 -51q79 -49 79 -110q0 -62 -41 -115.5t-115.5 -85.5t-174.5 -32q-82 0 -143 29.5t-95 84.5t-34 131q0 59 22 121t61 113l82 -51q-47 -81 -47 -150q0 -60 45 -96t124 -36q60 0 105.5 14t70.5 33t25 35q0 8 -13.5 18t-47 24t-95.5 34l29 108
q62 0 94.5 9.5t32.5 25.5t-14 52.5t-39 82.5l116 63q26 -50 39 -100.5t13 -80.5zM527 575l-72 -73l-78 78l78 78l72 -73l72 73l78 -78l-78 -78zM310 -353l-72 -73l-78 78l78 77l72 -72l72 72l78 -77l-78 -78z" />
    <glyph glyph-name="theh_uni0649" unicode="&#xfc13;" horiz-adv-x="684" arabic-form="isolated" 
d="M641 259q0 -40 -20.5 -70t-58.5 -51q79 -49 79 -110q0 -62 -41 -115.5t-115.5 -85.5t-174.5 -32q-82 0 -143 29.5t-95 84.5t-34 131q0 59 22 121t61 113l82 -51q-47 -81 -47 -150q0 -60 45 -96t124 -36q60 0 105.5 14t70.5 33t25 35q0 8 -13.5 18t-47 24t-95.5 34l29 108
q62 0 94.5 9.5t32.5 25.5t-14 52.5t-39 82.5l116 63q26 -50 39 -100.5t13 -80.5zM599 502l-72 72l-72 -72l-76 76l76 76l72 -72l72 72l76 -76zM527 647l-74 74l74 74l74 -74z" />
    <glyph glyph-name="theh_uni064A" unicode="&#xfc14;" horiz-adv-x="684" arabic-form="isolated" 
d="M641 259q0 -40 -20.5 -70t-58.5 -51q79 -49 79 -110q0 -62 -41 -115.5t-115.5 -85.5t-174.5 -32q-82 0 -143 29.5t-95 84.5t-34 131q0 59 22 121t61 113l82 -51q-47 -81 -47 -150q0 -60 45 -96t124 -36q60 0 105.5 14t70.5 33t25 35q0 8 -13.5 18t-47 24t-95.5 34l29 108
q62 0 94.5 9.5t32.5 25.5t-14 52.5t-39 82.5l116 63q26 -50 39 -100.5t13 -80.5zM599 502l-72 72l-72 -72l-76 76l76 76l72 -72l72 72l76 -76zM527 647l-74 74l74 74l74 -74zM310 -353l-72 -73l-78 78l78 77l72 -72l72 72l78 -77l-78 -78z" />
    <glyph glyph-name="seen_uni0645.fina" unicode="&#xfc1f;" horiz-adv-x="1214" arabic-form="isolated" 
d="M292 159q0 -17 19 -33t77 -45l31 -16l-69 -126l-27 15q-37 20 -65.5 28t-57.5 8q-25 0 -36.5 -12.5t-11.5 -41.5l-1 -306l-110 -10l-5 324q-1 83 38.5 132t107.5 49h15q-10 23 -10 45q0 35 20 71t54 65.5t77 47.5t90 18q56 0 91.5 -26t66.5 -90q24 -50 40 -75t31.5 -33.5
t35.5 -8.5q25 0 44 13.5t26 47.5q3 15 6.5 37t7 44.5t5.5 36.5l108 -14q-7 -47 -10.5 -76.5t-3.5 -37.5q0 -24 18 -37.5t49 -13.5q63 0 73 52q4 19 8.5 58.5t7.5 85.5l111 -11q-4 -85 -13 -150q22 -29 84 -29l16 -10v-125l-16 -10q-49 0 -83 11t-57 34q-50 -45 -139 -45
q-79 0 -125 46q-48 -46 -126 -46q-47 0 -78 15t-55 50.5t-50 94.5q-19 43 -38.5 57t-48.5 14t-57.5 -11t-46.5 -27.5t-18 -33.5z" />
    <glyph glyph-name="uniFC31" unicode="&#xfc31;" horiz-adv-x="700" arabic-form="isolated" 
d="M156 73q0 -60 45 -96t124 -36q60 0 105.5 14t70.5 33t25 35q0 8 -13.5 18t-47 24t-95.5 34l29 108q77 2 113 11.5t36 31.5v38q-44 -28 -93 -28q-73 0 -113.5 43.5t-40.5 118.5q0 60 23.5 107t61.5 74t82 27q89 0 134 -90.5t45 -255.5q0 -54 -16.5 -90t-57.5 -57
q-3 -1 -5 -3q73 -48 73 -106q0 -62 -41 -115.5t-115.5 -85.5t-174.5 -32q-82 0 -143 29.5t-95 84.5t-34 131q0 59 22 121t61 113l82 -51q-47 -81 -47 -150zM393 427q0 -59 70 -59q47 0 80 20q-8 64 -28 89.5t-50 25.5q-31 0 -51.5 -22t-20.5 -54zM468 689l-80 81l80 80
l80 -80z" />
    <glyph glyph-name="uniFC32" unicode="&#xfc32;" horiz-adv-x="700" arabic-form="isolated" 
d="M156 73q0 -60 45 -96t124 -36q60 0 105.5 14t70.5 33t25 35q0 8 -13.5 18t-47 24t-95.5 34l29 108q77 2 113 11.5t36 31.5v38q-44 -28 -93 -28q-73 0 -113.5 43.5t-40.5 118.5q0 60 23.5 107t61.5 74t82 27q89 0 134 -90.5t45 -255.5q0 -54 -16.5 -90t-57.5 -57
q-3 -1 -5 -3q73 -48 73 -106q0 -62 -41 -115.5t-115.5 -85.5t-174.5 -32q-82 0 -143 29.5t-95 84.5t-34 131q0 59 22 121t61 113l82 -51q-47 -81 -47 -150zM393 427q0 -59 70 -59q47 0 80 20q-8 64 -28 89.5t-50 25.5q-31 0 -51.5 -22t-20.5 -54zM468 689l-80 81l80 80
l80 -80zM310 -353l-72 -73l-78 78l78 77l72 -72l72 72l78 -77l-78 -78z" />
    <glyph glyph-name="qaf_uni0649" unicode="&#xfc35;" horiz-adv-x="700" arabic-form="isolated" 
d="M156 73q0 -60 45 -96t124 -36q60 0 105.5 14t70.5 33t25 35q0 8 -13.5 18t-47 24t-95.5 34l29 108q77 2 113 11.5t36 31.5v38q-44 -28 -93 -28q-73 0 -113.5 43.5t-40.5 118.5q0 60 23.5 107t61.5 74t82 27q89 0 134 -90.5t45 -255.5q0 -54 -16.5 -90t-57.5 -57
q-3 -1 -5 -3q73 -48 73 -106q0 -62 -41 -115.5t-115.5 -85.5t-174.5 -32q-82 0 -143 29.5t-95 84.5t-34 131q0 59 22 121t61 113l82 -51q-47 -81 -47 -150zM393 427q0 -59 70 -59q47 0 80 20q-8 64 -28 89.5t-50 25.5q-31 0 -51.5 -22t-20.5 -54zM468 762l-72 -73l-78 78
l78 78l72 -73l72 73l78 -78l-78 -78z" />
    <glyph glyph-name="qaf_uni064A" unicode="&#xfc36;" horiz-adv-x="700" arabic-form="isolated" 
d="M156 73q0 -60 45 -96t124 -36q60 0 105.5 14t70.5 33t25 35q0 8 -13.5 18t-47 24t-95.5 34l29 108q77 2 113 11.5t36 31.5v38q-44 -28 -93 -28q-73 0 -113.5 43.5t-40.5 118.5q0 60 23.5 107t61.5 74t82 27q89 0 134 -90.5t45 -255.5q0 -54 -16.5 -90t-57.5 -57
q-3 -1 -5 -3q73 -48 73 -106q0 -62 -41 -115.5t-115.5 -85.5t-174.5 -32q-82 0 -143 29.5t-95 84.5t-34 131q0 59 22 121t61 113l82 -51q-47 -81 -47 -150zM393 427q0 -59 70 -59q47 0 80 20q-8 64 -28 89.5t-50 25.5q-31 0 -51.5 -22t-20.5 -54zM468 762l-72 -73l-78 78
l78 78l72 -73l72 73l78 -78l-78 -78zM310 -353l-72 -73l-78 78l78 77l72 -72l72 72l78 -77l-78 -78z" />
    <glyph glyph-name="kaf_uni0649" unicode="&#xfc3d;" horiz-adv-x="794" arabic-form="isolated" 
d="M156 73q0 -60 45 -96t124 -36q60 0 105.5 14t70.5 33t25 35q0 8 -13.5 18t-47 24t-95.5 34l29 108q66 3 99 13t33 22q0 20 -38.5 62.5t-104.5 87.5l19 115q93 47 183 86.5t172 71.5l25 -126q-65 -23 -124.5 -46t-133.5 -55q55 -50 83.5 -101.5t28.5 -94.5q0 -35 -19 -60
t-61 -43q80 -51 80 -111q0 -62 -41 -115.5t-115.5 -85.5t-174.5 -32q-82 0 -143 29.5t-95 84.5t-34 131q0 59 22 121t61 113l82 -51q-47 -81 -47 -150z" />
    <glyph glyph-name="kaf_uni064A" unicode="&#xfc3e;" horiz-adv-x="794" arabic-form="isolated" 
d="M156 73q0 -60 45 -96t124 -36q60 0 105.5 14t70.5 33t25 35q0 8 -13.5 18t-47 24t-95.5 34l29 108q66 3 99 13t33 22q0 20 -38.5 62.5t-104.5 87.5l19 115q93 47 183 86.5t172 71.5l25 -126q-65 -23 -124.5 -46t-133.5 -55q55 -50 83.5 -101.5t28.5 -94.5q0 -35 -19 -60
t-61 -43q80 -51 80 -111q0 -62 -41 -115.5t-115.5 -85.5t-174.5 -32q-82 0 -143 29.5t-95 84.5t-34 131q0 59 22 121t61 113l82 -51q-47 -81 -47 -150zM310 -353l-72 -73l-78 78l78 77l72 -72l72 72l78 -77l-78 -78z" />
    <glyph glyph-name="lam_uni0645" unicode="&#xfc42;" horiz-adv-x="468" arabic-form="isolated" 
d="M212 251l-4 387l122 21l-5 -422q-1 -47 16.5 -73.5t69.5 -52.5l37 -18l-72 -133l-32 18q-39 21 -73 29.5t-73 8.5q-24 0 -35 -12t-11 -42l-1 -332l-110 -10l-5 350q-1 86 38 133t103 47q27 0 56 -6q-12 22 -16.5 47t-4.5 60z" />
    <glyph glyph-name="uniFC43" unicode="&#xfc43;" horiz-adv-x="706" arabic-form="isolated" 
d="M156 73q0 -60 45 -96t124 -36q60 0 105.5 14t70.5 33t25 35q0 8 -13.5 18t-47 24t-95.5 34l29 108q61 0 95 11.5t34 36.5l-3 383l123 21l-5 -388q0 -51 -18.5 -84.5t-55.5 -53.5q72 -48 72 -105q0 -62 -41 -115.5t-115.5 -85.5t-174.5 -32q-82 0 -143 29.5t-95 84.5
t-34 131q0 59 22 121t61 113l82 -51q-47 -81 -47 -150z" />
    <glyph glyph-name="uniFC44" unicode="&#xfc44;" horiz-adv-x="706" arabic-form="isolated" 
d="M156 73q0 -60 45 -96t124 -36q60 0 105.5 14t70.5 33t25 35q0 8 -13.5 18t-47 24t-95.5 34l29 108q61 0 95 11.5t34 36.5l-3 383l123 21l-5 -388q0 -51 -18.5 -84.5t-55.5 -53.5q72 -48 72 -105q0 -62 -41 -115.5t-115.5 -85.5t-174.5 -32q-82 0 -143 29.5t-95 84.5
t-34 131q0 59 22 121t61 113l82 -51q-47 -81 -47 -150zM310 -353l-72 -73l-78 78l78 77l72 -72l72 72l78 -77l-78 -78z" />
    <glyph glyph-name="noon_uni0649" unicode="&#xfc4f;" horiz-adv-x="684" arabic-form="isolated" 
d="M641 259q0 -40 -20.5 -70t-58.5 -51q79 -49 79 -110q0 -62 -41 -115.5t-115.5 -85.5t-174.5 -32q-82 0 -143 29.5t-95 84.5t-34 131q0 59 22 121t61 113l82 -51q-47 -81 -47 -150q0 -60 45 -96t124 -36q60 0 105.5 14t70.5 33t25 35q0 8 -13.5 18t-47 24t-95.5 34l29 108
q62 0 94.5 9.5t32.5 25.5t-14 52.5t-39 82.5l116 63q26 -50 39 -100.5t13 -80.5zM527 502l-80 81l80 80l80 -80z" />
    <glyph glyph-name="noon_uni064A" unicode="&#xfc50;" horiz-adv-x="684" arabic-form="isolated" 
d="M641 259q0 -40 -20.5 -70t-58.5 -51q79 -49 79 -110q0 -62 -41 -115.5t-115.5 -85.5t-174.5 -32q-82 0 -143 29.5t-95 84.5t-34 131q0 59 22 121t61 113l82 -51q-47 -81 -47 -150q0 -60 45 -96t124 -36q60 0 105.5 14t70.5 33t25 35q0 8 -13.5 18t-47 24t-95.5 34l29 108
q62 0 94.5 9.5t32.5 25.5t-14 52.5t-39 82.5l116 63q26 -50 39 -100.5t13 -80.5zM527 502l-80 81l80 80l80 -80zM310 -353l-72 -73l-78 78l78 77l72 -72l72 72l78 -77l-78 -78z" />
    <glyph glyph-name="yeh_uni0649" unicode="&#xfc59;" horiz-adv-x="684" arabic-form="isolated" 
d="M641 259q0 -40 -20.5 -70t-58.5 -51q79 -49 79 -110q0 -62 -41 -115.5t-115.5 -85.5t-174.5 -32q-82 0 -143 29.5t-95 84.5t-34 131q0 59 22 121t61 113l82 -51q-47 -81 -47 -150q0 -60 45 -96t124 -36q60 0 105.5 14t70.5 33t25 35q0 8 -13.5 18t-47 24t-95.5 34l29 108
q62 0 94.5 9.5t32.5 25.5t-14 52.5t-39 82.5l116 63q26 -50 39 -100.5t13 -80.5zM650 -258l-72 -73l-78 78l78 77l72 -72l72 72l78 -77l-78 -78z" />
    <glyph glyph-name="yeh_uni064A" unicode="&#xfc5a;" horiz-adv-x="684" arabic-form="isolated" 
d="M641 259q0 -40 -20.5 -70t-58.5 -51q79 -49 79 -110q0 -62 -41 -115.5t-115.5 -85.5t-174.5 -32q-82 0 -143 29.5t-95 84.5t-34 131q0 59 22 121t61 113l82 -51q-47 -81 -47 -150q0 -60 45 -96t124 -36q60 0 105.5 14t70.5 33t25 35q0 8 -13.5 18t-47 24t-95.5 34l29 108
q62 0 94.5 9.5t32.5 25.5t-14 52.5t-39 82.5l116 63q26 -50 39 -100.5t13 -80.5zM650 -258l-72 -73l-78 78l78 77l72 -72l72 72l78 -77l-78 -78zM310 -353l-72 -73l-78 78l78 77l72 -72l72 72l78 -77l-78 -78z" />
    <glyph glyph-name="uniFC5E" unicode="&#xfc5e;" horiz-adv-x="0" arabic-form="isolated" 
d="M-121 565q0 50 35 91l35 -19q-24 -34 -24 -59q0 -30 23 -30t25 20l9 66l45 -5l-6 -54q-1 -21 26 -21q28 0 28 21q0 15 -8 35t-22 39l44 26q31 -41 31 -96q0 -38 -19.5 -60.5t-53.5 -22.5q-31 0 -48 19q-20 -24 -53 -24q-32 0 -49.5 19.5t-17.5 54.5zM-40 789
q0 -19 -10 -37h8q19 0 38.5 3t35.5 9q-56 15 -56 67q0 31 20 53.5t51 22.5q32 0 52 -25.5t20 -60.5q0 -53 -44 -87t-116 -34q-6 0 -16.5 0.5t-16.5 1.5l-23 55q14 11 14 21q0 15 -20 15q-17 0 -35 -17l-26 32q26 37 65 37q26 0 42.5 -16t16.5 -40zM20 831q0 -25 51 -33
q4 9 4 20q0 16 -8 26t-22 10q-12 0 -18.5 -6.5t-6.5 -16.5z" />
    <glyph glyph-name="uniFC5F" unicode="&#xfc5f;" horiz-adv-x="0" arabic-form="isolated" 
d="M98 636q-40 -17 -92 -34t-114 -33v57q62 15 113.5 31.5t92.5 35.5v-57zM103 544q-40 -17 -92 -34t-114 -32v56q62 15 113.5 32t92.5 35v-57zM-121 792q0 50 35 91l35 -19q-24 -34 -24 -59q0 -30 23 -30t25 20l9 66l45 -5l-6 -54q-1 -21 26 -21q28 0 28 21q0 15 -8 35
t-22 39l44 26q31 -41 31 -96q0 -38 -19.5 -60.5t-53.5 -22.5q-31 0 -48 19q-20 -24 -53 -24q-32 0 -49.5 19.5t-17.5 54.5z" />
    <glyph glyph-name="uniFC60" unicode="&#xfc60;" horiz-adv-x="0" arabic-form="isolated" 
d="M-121 565q0 50 35 91l35 -19q-24 -34 -24 -59q0 -30 23 -30t25 20l9 66l45 -5l-6 -54q-1 -21 26 -21q28 0 28 21q0 15 -8 35t-22 39l44 26q31 -41 31 -96q0 -38 -19.5 -60.5t-53.5 -22.5q-31 0 -48 19q-20 -24 -53 -24q-32 0 -49.5 19.5t-17.5 54.5zM103 758
q-40 -18 -92 -35t-114 -32v61q62 14 113.5 31t92.5 35v-60z" />
    <glyph glyph-name="uniFC61" unicode="&#xfc61;" horiz-adv-x="0" arabic-form="isolated" 
d="M-121 565q0 50 35 91l35 -19q-24 -34 -24 -59q0 -30 23 -30t25 20l9 66l45 -5l-6 -54q-1 -21 26 -21q28 0 28 21q0 15 -8 35t-22 39l44 26q31 -41 31 -96q0 -38 -19.5 -60.5t-53.5 -22.5q-31 0 -48 19q-20 -24 -53 -24q-32 0 -49.5 19.5t-17.5 54.5zM-45 831
q0 31 20 53.5t51 22.5q32 0 52 -25.5t20 -60.5q0 -53 -43 -87t-115 -34q-7 0 -15 0.5t-15 1.5l-10 53q10 -1 21.5 -2t18.5 -1q20 0 38 3t33 9q-56 15 -56 67zM-1 831q0 -25 51 -32q4 9 4 19q0 16 -8 26t-22 10q-12 0 -18.5 -6.5t-6.5 -16.5z" />
    <glyph glyph-name="uniFC62" unicode="&#xfc62;" horiz-adv-x="0" arabic-form="isolated" 
d="M103 545q-40 -18 -92 -35t-114 -32v61q62 14 113.5 31t92.5 35v-60zM-121 702q0 50 35 91l35 -19q-24 -34 -24 -59q0 -30 23 -30t25 20l9 66l45 -5l-6 -54q-1 -21 26 -21q28 0 28 21q0 15 -8 35t-22 39l44 26q31 -41 31 -96q0 -38 -19.5 -60.5t-53.5 -22.5q-31 0 -48 19
q-20 -24 -53 -24q-32 0 -49.5 19.5t-17.5 54.5z" />
    <glyph glyph-name="uniFC63" unicode="&#xfc63;" horiz-adv-x="0" arabic-form="isolated" 
d="M-121 565q0 50 35 91l35 -19q-24 -34 -24 -59q0 -30 23 -30t25 20l9 66l45 -5l-6 -54q-1 -21 26 -21q28 0 28 21q0 15 -8 35t-22 39l44 26q31 -41 31 -96q0 -38 -19.5 -60.5t-53.5 -22.5q-31 0 -48 19q-20 -24 -53 -24q-32 0 -49.5 19.5t-17.5 54.5zM-23 791q-2 39 -7 73
l56 10q3 -34 3 -65q0 -55 -9 -108h-41q0 51 -2 90z" />
    <glyph glyph-name="uniFC64" unicode="&#xfc64;" horiz-adv-x="702" arabic-form="final" 
d="M504 141q0 14 1 27q-19 -6 -39.5 -8.5t-39.5 -2.5q-39 0 -79 8q3 -20 3 -39q0 -72 -35 -137t-102 -116t-163 -82l-72 124q73 26 132 60.5t94 71t35 67.5q0 18 -13.5 55t-36.5 80l104 69q34 -12 74.5 -17t74.5 -5q79 0 148 23l25 -22q-4 -30 -7 -56.5t-3 -37.5
q0 -32 22 -45t75 -13l16 -10v-125l-16 -10q-110 0 -154 35t-44 106zM490 495q0 35 24 60t59 25q41 0 65 -37l-25 -35q-16 10 -35 10q-16 0 -26 -7t-10 -18q0 -13 14.5 -21t38.5 -11q36 7 68 9l-9 -64q-43 -3 -82.5 -10t-80.5 -20l-20 49q21 9 47 17q-28 21 -28 53z" />
    <glyph glyph-name="yehHamzaabove_uni0632.fina" unicode="&#xfc65;" horiz-adv-x="702" arabic-form="final" 
d="M504 141q0 14 1 27q-19 -6 -39.5 -8.5t-39.5 -2.5q-39 0 -79 8q3 -20 3 -39q0 -72 -35 -137t-102 -116t-163 -82l-72 124q73 26 132 60.5t94 71t35 67.5q0 18 -13.5 55t-36.5 80l104 69q34 -12 74.5 -17t74.5 -5q79 0 148 23l25 -22q-4 -30 -7 -56.5t-3 -37.5
q0 -32 22 -45t75 -13l16 -10v-125l-16 -10q-110 0 -154 35t-44 106zM490 495q0 35 24 60t59 25q41 0 65 -37l-25 -35q-16 10 -35 10q-16 0 -26 -7t-10 -18q0 -13 14.5 -21t38.5 -11q36 7 68 9l-9 -64q-43 -3 -82.5 -10t-80.5 -20l-20 49q21 9 47 17q-28 21 -28 53zM213 383
l-80 81l80 80l80 -80z" />
    <glyph glyph-name="yehHamzaabove_uni0645.fina" unicode="&#xfc66;" horiz-adv-x="694" arabic-form="final" 
d="M292 159q0 -17 19 -33t77 -45l31 -16l-69 -126l-27 15q-37 20 -65.5 28t-57.5 8q-25 0 -36.5 -12.5t-11.5 -41.5l-1 -306l-110 -10l-5 324q-1 83 38.5 132t107.5 49h15q-10 23 -10 45q0 35 20.5 71t55.5 65.5t77.5 47.5t87.5 18q56 0 91.5 -25.5t66.5 -90.5
q22 -46 38 -70t32 -32.5t38 -8.5l16 -11v-124l-16 -10q-52 0 -84.5 14.5t-56.5 49.5t-52 96q-19 42 -38 56.5t-49 14.5q-29 0 -57 -11t-46.5 -27.5t-18.5 -33.5zM340 544q0 35 24 60t59 25q41 0 65 -37l-25 -35q-16 10 -35 10q-16 0 -26 -7t-10 -18q0 -13 14.5 -21t38.5 -11
q36 7 68 9l-9 -64q-43 -3 -82.5 -10t-80.5 -20l-20 49q21 9 47 17q-28 21 -28 53z" />
    <glyph glyph-name="uniFC67" unicode="&#xfc67;" horiz-adv-x="928" arabic-form="final" 
d="M730 141q0 14 1 27q-19 -6 -39.5 -8.5t-39.5 -2.5q-41 0 -83 9q9 -34 13.5 -66t4.5 -57q0 -73 -34.5 -129t-96.5 -87.5t-143 -31.5q-129 0 -202 65.5t-73 179.5q0 59 22 121t61 113l82 -51q-47 -81 -47 -150q0 -60 41 -96t116 -36q70 0 115 27.5t45 65.5q0 34 -14.5 84
t-48.5 126l109 74q34 -12 74.5 -17t75.5 -5q78 0 147 23l25 -22q-4 -30 -7 -56.5t-3 -37.5q0 -32 22.5 -45t74.5 -13l16 -10v-125l-16 -10q-110 0 -154 35t-44 106zM706 495q0 35 24 60t59 25q41 0 65 -37l-25 -35q-16 10 -35 10q-16 0 -26 -7t-10 -18q0 -13 14.5 -21
t38.5 -11q36 7 68 9l-9 -64q-43 -3 -82.5 -10t-80.5 -20l-20 49q21 9 47 17q-28 21 -28 53zM307 327l-80 81l80 80l80 -80z" />
    <glyph glyph-name="yehHamzaabove_uni0649.fina" unicode="&#xfc68;" horiz-adv-x="897" arabic-form="final" 
d="M511 175q0 -9 8 -16.5t27 -16.5q53 -22 74 -46t21 -62q0 -64 -42.5 -118.5t-118.5 -87.5t-175 -33q-80 0 -140 29.5t-93.5 84.5t-33.5 131q0 59 22 121t61 113l82 -51q-47 -81 -47 -150q0 -60 44 -96t123 -36q58 0 101.5 13t68 32t24.5 36q0 10 -10.5 18t-37.5 21
q-47 23 -65.5 50t-18.5 62q0 37 20.5 72.5t55.5 64t79 45.5t91 17q56 0 91.5 -25.5t66.5 -90.5q22 -46 38 -70t32 -32.5t38 -8.5l16 -11v-124l-16 -10q-52 0 -84.5 14.5t-56.5 49.5t-52 96q-19 42 -38 56.5t-49 14.5q-24 0 -48.5 -8.5t-41 -21.5t-16.5 -26zM544 544
q0 35 24 60t59 25q41 0 65 -37l-25 -35q-16 10 -35 10q-16 0 -26 -7t-10 -18q0 -13 14.5 -21t38.5 -11q36 7 68 9l-9 -64q-43 -3 -82.5 -10t-80.5 -20l-20 49q21 9 47 17q-28 21 -28 53z" />
    <glyph glyph-name="yehHamzaabove_uni064A.fina" unicode="&#xfc69;" horiz-adv-x="897" arabic-form="final" 
d="M511 175q0 -9 8 -16.5t27 -16.5q53 -22 74 -46t21 -62q0 -64 -42.5 -118.5t-118.5 -87.5t-175 -33q-80 0 -140 29.5t-93.5 84.5t-33.5 131q0 59 22 121t61 113l82 -51q-47 -81 -47 -150q0 -60 44 -96t123 -36q58 0 101.5 13t68 32t24.5 36q0 10 -10.5 18t-37.5 21
q-47 23 -65.5 50t-18.5 62q0 37 20.5 72.5t55.5 64t79 45.5t91 17q56 0 91.5 -25.5t66.5 -90.5q22 -46 38 -70t32 -32.5t38 -8.5l16 -11v-124l-16 -10q-52 0 -84.5 14.5t-56.5 49.5t-52 96q-19 42 -38 56.5t-49 14.5q-24 0 -48.5 -8.5t-41 -21.5t-16.5 -26zM544 544
q0 35 24 60t59 25q41 0 65 -37l-25 -35q-16 10 -35 10q-16 0 -26 -7t-10 -18q0 -13 14.5 -21t38.5 -11q36 7 68 9l-9 -64q-43 -3 -82.5 -10t-80.5 -20l-20 49q21 9 47 17q-28 21 -28 53zM302 -353l-72 -73l-78 78l78 77l72 -72l72 72l78 -77l-78 -78z" />
    <glyph glyph-name="uniFC6A" unicode="&#xfc6a;" horiz-adv-x="702" arabic-form="final" 
d="M504 141q0 14 1 27q-19 -6 -39.5 -8.5t-39.5 -2.5q-39 0 -79 8q3 -20 3 -39q0 -72 -35 -137t-102 -116t-163 -82l-72 124q73 26 132 60.5t94 71t35 67.5q0 18 -13.5 55t-36.5 80l104 69q34 -12 74.5 -17t74.5 -5q79 0 148 23l25 -22q-4 -30 -7 -56.5t-3 -37.5
q0 -32 22 -45t75 -13l16 -10v-125l-16 -10q-110 0 -154 35t-44 106zM530 -226l-80 80l80 80l80 -80z" />
    <glyph glyph-name="beh_uni0632.fina" unicode="&#xfc6b;" horiz-adv-x="702" arabic-form="final" 
d="M504 141q0 14 1 27q-19 -6 -39.5 -8.5t-39.5 -2.5q-39 0 -79 8q3 -20 3 -39q0 -72 -35 -137t-102 -116t-163 -82l-72 124q73 26 132 60.5t94 71t35 67.5q0 18 -13.5 55t-36.5 80l104 69q34 -12 74.5 -17t74.5 -5q79 0 148 23l25 -22q-4 -30 -7 -56.5t-3 -37.5
q0 -32 22 -45t75 -13l16 -10v-125l-16 -10q-110 0 -154 35t-44 106zM530 -226l-80 80l80 80l80 -80zM213 383l-80 81l80 80l80 -80z" />
    <glyph glyph-name="beh_uni0645.fina" unicode="&#xfc6c;" horiz-adv-x="694" arabic-form="final" 
d="M292 159q0 -17 19 -33t77 -45l31 -16l-69 -126l-27 15q-37 20 -65.5 28t-57.5 8q-25 0 -36.5 -12.5t-11.5 -41.5l-1 -306l-110 -10l-5 324q-1 83 38.5 132t107.5 49h15q-10 23 -10 45q0 35 20.5 71t55.5 65.5t77.5 47.5t87.5 18q56 0 91.5 -25.5t66.5 -90.5
q22 -46 38 -70t32 -32.5t38 -8.5l16 -11v-124l-16 -10q-52 0 -84.5 14.5t-56.5 49.5t-52 96q-19 42 -38 56.5t-49 14.5q-29 0 -57 -11t-46.5 -27.5t-18.5 -33.5zM507 -226l-80 80l80 80l80 -80z" />
    <glyph glyph-name="uniFC6D" unicode="&#xfc6d;" horiz-adv-x="928" arabic-form="final" 
d="M730 141q0 14 1 27q-19 -6 -39.5 -8.5t-39.5 -2.5q-41 0 -83 9q9 -34 13.5 -66t4.5 -57q0 -73 -34.5 -129t-96.5 -87.5t-143 -31.5q-129 0 -202 65.5t-73 179.5q0 59 22 121t61 113l82 -51q-47 -81 -47 -150q0 -60 41 -96t116 -36q70 0 115 27.5t45 65.5q0 34 -14.5 84
t-48.5 126l109 74q34 -12 74.5 -17t75.5 -5q78 0 147 23l25 -22q-4 -30 -7 -56.5t-3 -37.5q0 -32 22.5 -45t74.5 -13l16 -10v-125l-16 -10q-110 0 -154 35t-44 106zM782 -226l-80 80l80 80l80 -80zM307 327l-80 81l80 80l80 -80z" />
    <glyph glyph-name="uniFC09.fina" unicode="&#xfc6e;" horiz-adv-x="897" arabic-form="final" 
d="M511 175q0 -9 8 -16.5t27 -16.5q53 -22 74 -46t21 -62q0 -64 -42.5 -118.5t-118.5 -87.5t-175 -33q-80 0 -140 29.5t-93.5 84.5t-33.5 131q0 59 22 121t61 113l82 -51q-47 -81 -47 -150q0 -60 44 -96t123 -36q58 0 101.5 13t68 32t24.5 36q0 10 -10.5 18t-37.5 21
q-47 23 -65.5 50t-18.5 62q0 37 20.5 72.5t55.5 64t79 45.5t91 17q56 0 91.5 -25.5t66.5 -90.5q22 -46 38 -70t32 -32.5t38 -8.5l16 -11v-124l-16 -10q-52 0 -84.5 14.5t-56.5 49.5t-52 96q-19 42 -38 56.5t-49 14.5q-24 0 -48.5 -8.5t-41 -21.5t-16.5 -26zM765 -226l-80 80
l80 80l80 -80z" />
    <glyph glyph-name="beh_uni064A.fina" unicode="&#xfc6f;" horiz-adv-x="897" arabic-form="final" 
d="M511 175q0 -9 8 -16.5t27 -16.5q53 -22 74 -46t21 -62q0 -64 -42.5 -118.5t-118.5 -87.5t-175 -33q-80 0 -140 29.5t-93.5 84.5t-33.5 131q0 59 22 121t61 113l82 -51q-47 -81 -47 -150q0 -60 44 -96t123 -36q58 0 101.5 13t68 32t24.5 36q0 10 -10.5 18t-37.5 21
q-47 23 -65.5 50t-18.5 62q0 37 20.5 72.5t55.5 64t79 45.5t91 17q56 0 91.5 -25.5t66.5 -90.5q22 -46 38 -70t32 -32.5t38 -8.5l16 -11v-124l-16 -10q-52 0 -84.5 14.5t-56.5 49.5t-52 96q-19 42 -38 56.5t-49 14.5q-24 0 -48.5 -8.5t-41 -21.5t-16.5 -26zM765 -226l-80 80
l80 80l80 -80zM302 -353l-72 -73l-78 78l78 77l72 -72l72 72l78 -77l-78 -78z" />
    <glyph glyph-name="uniFC70" unicode="&#xfc70;" horiz-adv-x="702" arabic-form="final" 
d="M504 141q0 14 1 27q-19 -6 -39.5 -8.5t-39.5 -2.5q-39 0 -79 8q3 -20 3 -39q0 -72 -35 -137t-102 -116t-163 -82l-72 124q73 26 132 60.5t94 71t35 67.5q0 18 -13.5 55t-36.5 80l104 69q34 -12 74.5 -17t74.5 -5q79 0 148 23l25 -22q-4 -30 -7 -56.5t-3 -37.5
q0 -32 22 -45t75 -13l16 -10v-125l-16 -10q-110 0 -154 35t-44 106zM566 459l-72 -73l-78 78l78 78l72 -73l72 73l78 -78l-78 -78z" />
    <glyph glyph-name="teh_uni0632.fina" unicode="&#xfc71;" horiz-adv-x="702" arabic-form="final" 
d="M504 141q0 14 1 27q-19 -6 -39.5 -8.5t-39.5 -2.5q-39 0 -79 8q3 -20 3 -39q0 -72 -35 -137t-102 -116t-163 -82l-72 124q73 26 132 60.5t94 71t35 67.5q0 18 -13.5 55t-36.5 80l104 69q34 -12 74.5 -17t74.5 -5q79 0 148 23l25 -22q-4 -30 -7 -56.5t-3 -37.5
q0 -32 22 -45t75 -13l16 -10v-125l-16 -10q-110 0 -154 35t-44 106zM566 459l-72 -73l-78 78l78 78l72 -73l72 73l78 -78l-78 -78zM213 383l-80 81l80 80l80 -80z" />
    <glyph glyph-name="teh_uni0645.fina" unicode="&#xfc72;" horiz-adv-x="694" arabic-form="final" 
d="M292 159q0 -17 19 -33t77 -45l31 -16l-69 -126l-27 15q-37 20 -65.5 28t-57.5 8q-25 0 -36.5 -12.5t-11.5 -41.5l-1 -306l-110 -10l-5 324q-1 83 38.5 132t107.5 49h15q-10 23 -10 45q0 35 20.5 71t55.5 65.5t77.5 47.5t87.5 18q56 0 91.5 -25.5t66.5 -90.5
q22 -46 38 -70t32 -32.5t38 -8.5l16 -11v-124l-16 -10q-52 0 -84.5 14.5t-56.5 49.5t-52 96q-19 42 -38 56.5t-49 14.5q-29 0 -57 -11t-46.5 -27.5t-18.5 -33.5zM416 508l-72 -73l-78 78l78 78l72 -73l72 73l78 -78l-78 -78z" />
    <glyph glyph-name="teh_uni0646.fina" unicode="&#xfc73;" horiz-adv-x="928" arabic-form="final" 
d="M730 141q0 14 1 27q-19 -6 -39.5 -8.5t-39.5 -2.5q-41 0 -83 9q9 -34 13.5 -66t4.5 -57q0 -73 -34.5 -129t-96.5 -87.5t-143 -31.5q-129 0 -202 65.5t-73 179.5q0 59 22 121t61 113l82 -51q-47 -81 -47 -150q0 -60 41 -96t116 -36q70 0 115 27.5t45 65.5q0 34 -14.5 84
t-48.5 126l109 74q34 -12 74.5 -17t75.5 -5q78 0 147 23l25 -22q-4 -30 -7 -56.5t-3 -37.5q0 -32 22.5 -45t74.5 -13l16 -10v-125l-16 -10q-110 0 -154 35t-44 106zM782 459l-72 -73l-78 78l78 78l72 -73l72 73l78 -78l-78 -78zM307 327l-80 81l80 80l80 -80z" />
    <glyph glyph-name="teh_uni0649.fina" unicode="&#xfc74;" horiz-adv-x="897" arabic-form="final" 
d="M511 175q0 -9 8 -16.5t27 -16.5q53 -22 74 -46t21 -62q0 -64 -42.5 -118.5t-118.5 -87.5t-175 -33q-80 0 -140 29.5t-93.5 84.5t-33.5 131q0 59 22 121t61 113l82 -51q-47 -81 -47 -150q0 -60 44 -96t123 -36q58 0 101.5 13t68 32t24.5 36q0 10 -10.5 18t-37.5 21
q-47 23 -65.5 50t-18.5 62q0 37 20.5 72.5t55.5 64t79 45.5t91 17q56 0 91.5 -25.5t66.5 -90.5q22 -46 38 -70t32 -32.5t38 -8.5l16 -11v-124l-16 -10q-52 0 -84.5 14.5t-56.5 49.5t-52 96q-19 42 -38 56.5t-49 14.5q-24 0 -48.5 -8.5t-41 -21.5t-16.5 -26zM620 508l-72 -73
l-78 78l78 78l72 -73l72 73l78 -78l-78 -78z" />
    <glyph glyph-name="teh_uni064A.fina" unicode="&#xfc75;" horiz-adv-x="897" arabic-form="final" 
d="M511 175q0 -9 8 -16.5t27 -16.5q53 -22 74 -46t21 -62q0 -64 -42.5 -118.5t-118.5 -87.5t-175 -33q-80 0 -140 29.5t-93.5 84.5t-33.5 131q0 59 22 121t61 113l82 -51q-47 -81 -47 -150q0 -60 44 -96t123 -36q58 0 101.5 13t68 32t24.5 36q0 10 -10.5 18t-37.5 21
q-47 23 -65.5 50t-18.5 62q0 37 20.5 72.5t55.5 64t79 45.5t91 17q56 0 91.5 -25.5t66.5 -90.5q22 -46 38 -70t32 -32.5t38 -8.5l16 -11v-124l-16 -10q-52 0 -84.5 14.5t-56.5 49.5t-52 96q-19 42 -38 56.5t-49 14.5q-24 0 -48.5 -8.5t-41 -21.5t-16.5 -26zM620 508l-72 -73
l-78 78l78 78l72 -73l72 73l78 -78l-78 -78zM302 -353l-72 -73l-78 78l78 77l72 -72l72 72l78 -77l-78 -78z" />
    <glyph glyph-name="theh_uni0631.fina" unicode="&#xfc76;" horiz-adv-x="702" arabic-form="final" 
d="M504 141q0 14 1 27q-19 -6 -39.5 -8.5t-39.5 -2.5q-39 0 -79 8q3 -20 3 -39q0 -72 -35 -137t-102 -116t-163 -82l-72 124q73 26 132 60.5t94 71t35 67.5q0 18 -13.5 55t-36.5 80l104 69q34 -12 74.5 -17t74.5 -5q79 0 148 23l25 -22q-4 -30 -7 -56.5t-3 -37.5
q0 -32 22 -45t75 -13l16 -10v-125l-16 -10q-110 0 -154 35t-44 106zM638 386l-72 72l-72 -72l-76 76l76 76l72 -72l72 72l76 -76zM566 531l-74 74l74 74l74 -74z" />
    <glyph glyph-name="theh_uni0632.fina" unicode="&#xfc77;" horiz-adv-x="702" arabic-form="final" 
d="M504 141q0 14 1 27q-19 -6 -39.5 -8.5t-39.5 -2.5q-39 0 -79 8q3 -20 3 -39q0 -72 -35 -137t-102 -116t-163 -82l-72 124q73 26 132 60.5t94 71t35 67.5q0 18 -13.5 55t-36.5 80l104 69q34 -12 74.5 -17t74.5 -5q79 0 148 23l25 -22q-4 -30 -7 -56.5t-3 -37.5
q0 -32 22 -45t75 -13l16 -10v-125l-16 -10q-110 0 -154 35t-44 106zM638 386l-72 72l-72 -72l-76 76l76 76l72 -72l72 72l76 -76zM566 531l-74 74l74 74l74 -74zM213 383l-80 81l80 80l80 -80z" />
    <glyph glyph-name="theh_uni0645.fina" unicode="&#xfc78;" horiz-adv-x="694" arabic-form="final" 
d="M292 159q0 -17 19 -33t77 -45l31 -16l-69 -126l-27 15q-37 20 -65.5 28t-57.5 8q-25 0 -36.5 -12.5t-11.5 -41.5l-1 -306l-110 -10l-5 324q-1 83 38.5 132t107.5 49h15q-10 23 -10 45q0 35 20.5 71t55.5 65.5t77.5 47.5t87.5 18q56 0 91.5 -25.5t66.5 -90.5
q22 -46 38 -70t32 -32.5t38 -8.5l16 -11v-124l-16 -10q-52 0 -84.5 14.5t-56.5 49.5t-52 96q-19 42 -38 56.5t-49 14.5q-29 0 -57 -11t-46.5 -27.5t-18.5 -33.5zM488 435l-72 72l-72 -72l-76 76l76 76l72 -72l72 72l76 -76zM416 580l-74 74l74 74l74 -74z" />
    <glyph glyph-name="theh_uni0646.fina" unicode="&#xfc79;" horiz-adv-x="928" arabic-form="final" 
d="M730 141q0 14 1 27q-19 -6 -39.5 -8.5t-39.5 -2.5q-41 0 -83 9q9 -34 13.5 -66t4.5 -57q0 -73 -34.5 -129t-96.5 -87.5t-143 -31.5q-129 0 -202 65.5t-73 179.5q0 59 22 121t61 113l82 -51q-47 -81 -47 -150q0 -60 41 -96t116 -36q70 0 115 27.5t45 65.5q0 34 -14.5 84
t-48.5 126l109 74q34 -12 74.5 -17t75.5 -5q78 0 147 23l25 -22q-4 -30 -7 -56.5t-3 -37.5q0 -32 22.5 -45t74.5 -13l16 -10v-125l-16 -10q-110 0 -154 35t-44 106zM854 386l-72 72l-72 -72l-76 76l76 76l72 -72l72 72l76 -76zM782 531l-74 74l74 74l74 -74zM307 327l-80 81
l80 80l80 -80z" />
    <glyph glyph-name="theh_uni0649.fina" unicode="&#xfc7a;" horiz-adv-x="897" arabic-form="final" 
d="M511 175q0 -9 8 -16.5t27 -16.5q53 -22 74 -46t21 -62q0 -64 -42.5 -118.5t-118.5 -87.5t-175 -33q-80 0 -140 29.5t-93.5 84.5t-33.5 131q0 59 22 121t61 113l82 -51q-47 -81 -47 -150q0 -60 44 -96t123 -36q58 0 101.5 13t68 32t24.5 36q0 10 -10.5 18t-37.5 21
q-47 23 -65.5 50t-18.5 62q0 37 20.5 72.5t55.5 64t79 45.5t91 17q56 0 91.5 -25.5t66.5 -90.5q22 -46 38 -70t32 -32.5t38 -8.5l16 -11v-124l-16 -10q-52 0 -84.5 14.5t-56.5 49.5t-52 96q-19 42 -38 56.5t-49 14.5q-24 0 -48.5 -8.5t-41 -21.5t-16.5 -26zM692 435l-72 72
l-72 -72l-76 76l76 76l72 -72l72 72l76 -76zM620 580l-74 74l74 74l74 -74z" />
    <glyph glyph-name="theh_uni064A.fina" unicode="&#xfc7b;" horiz-adv-x="897" arabic-form="final" 
d="M511 175q0 -9 8 -16.5t27 -16.5q53 -22 74 -46t21 -62q0 -64 -42.5 -118.5t-118.5 -87.5t-175 -33q-80 0 -140 29.5t-93.5 84.5t-33.5 131q0 59 22 121t61 113l82 -51q-47 -81 -47 -150q0 -60 44 -96t123 -36q58 0 101.5 13t68 32t24.5 36q0 10 -10.5 18t-37.5 21
q-47 23 -65.5 50t-18.5 62q0 37 20.5 72.5t55.5 64t79 45.5t91 17q56 0 91.5 -25.5t66.5 -90.5q22 -46 38 -70t32 -32.5t38 -8.5l16 -11v-124l-16 -10q-52 0 -84.5 14.5t-56.5 49.5t-52 96q-19 42 -38 56.5t-49 14.5q-24 0 -48.5 -8.5t-41 -21.5t-16.5 -26zM692 435l-72 72
l-72 -72l-76 76l76 76l72 -72l72 72l76 -76zM620 580l-74 74l74 74l74 -74zM302 -353l-72 -73l-78 78l78 77l72 -72l72 72l78 -77l-78 -78z" />
    <glyph glyph-name="kaf_uni0649.fina" unicode="&#xfc83;" horiz-adv-x="916" arabic-form="final" 
d="M641 28q0 -62 -41 -115.5t-115.5 -85.5t-174.5 -32q-82 0 -143 29.5t-95 84.5t-34 131q0 59 22 121t61 113l82 -51q-47 -81 -47 -150q0 -60 45 -96t124 -36q60 0 105.5 14t70.5 33t25 35q0 8 -13.5 18t-47 24t-95.5 34l29 108q31 -4 57 -5.5t48 -1.5q39 0 65.5 4t49.5 14
l-94 174l20 115q92 46 182 86t173 72l24 -126q-70 -24 -134.5 -49.5t-146.5 -60.5l112 -210q16 -30 35 -46t48.5 -22t77.5 -6l16 -10v-125l-16 -10q-65 0 -109.5 12t-76 38.5t-57.5 68.5q-25 -16 -58 -24q26 -32 26 -67z" />
    <glyph glyph-name="kaf_uni064A.fina" unicode="&#xfc84;" horiz-adv-x="916" arabic-form="final" 
d="M641 28q0 -62 -41 -115.5t-115.5 -85.5t-174.5 -32q-82 0 -143 29.5t-95 84.5t-34 131q0 59 22 121t61 113l82 -51q-47 -81 -47 -150q0 -60 45 -96t124 -36q60 0 105.5 14t70.5 33t25 35q0 8 -13.5 18t-47 24t-95.5 34l29 108q31 -4 57 -5.5t48 -1.5q39 0 65.5 4t49.5 14
l-94 174l20 115q92 46 182 86t173 72l24 -126q-70 -24 -134.5 -49.5t-146.5 -60.5l112 -210q16 -30 35 -46t48.5 -22t77.5 -6l16 -10v-125l-16 -10q-65 0 -109.5 12t-76 38.5t-57.5 68.5q-25 -16 -58 -24q26 -32 26 -67zM310 -353l-72 -73l-78 78l78 77l72 -72l72 72l78 -77
l-78 -78z" />
    <glyph glyph-name="uniFC86" unicode="&#xfc86;" horiz-adv-x="862" arabic-form="final" 
d="M156 73q0 -60 45 -96t124 -36q60 0 105.5 14t70.5 33t25 35q0 8 -13.5 18t-47 24t-95.5 34l29 108q26 -4 52 -5.5t53 -1.5q71 0 107 11.5t36 41.5l-5 385l123 21l-5 -474q15 -22 38.5 -31t63.5 -9l16 -10v-125l-16 -10q-67 0 -115.5 24.5t-73.5 89.5q-25 -13 -58 -20
q26 -31 26 -66q0 -62 -41 -115.5t-115.5 -85.5t-174.5 -32q-82 0 -143 29.5t-95 84.5t-34 131q0 59 22 121t61 113l82 -51q-47 -81 -47 -150z" />
    <glyph glyph-name="uniFC87" unicode="&#xfc87;" horiz-adv-x="862" arabic-form="final" 
d="M156 73q0 -60 45 -96t124 -36q60 0 105.5 14t70.5 33t25 35q0 8 -13.5 18t-47 24t-95.5 34l29 108q26 -4 52 -5.5t53 -1.5q71 0 107 11.5t36 41.5l-5 385l123 21l-5 -474q15 -22 38.5 -31t63.5 -9l16 -10v-125l-16 -10q-67 0 -115.5 24.5t-73.5 89.5q-25 -13 -58 -20
q26 -31 26 -66q0 -62 -41 -115.5t-115.5 -85.5t-174.5 -32q-82 0 -143 29.5t-95 84.5t-34 131q0 59 22 121t61 113l82 -51q-47 -81 -47 -150zM310 -353l-72 -73l-78 78l78 77l72 -72l72 72l78 -77l-78 -78z" />
    <glyph glyph-name="noon_uni0631.fina" unicode="&#xfc8a;" horiz-adv-x="702" arabic-form="final" 
d="M504 141q0 14 1 27q-19 -6 -39.5 -8.5t-39.5 -2.5q-39 0 -79 8q3 -20 3 -39q0 -72 -35 -137t-102 -116t-163 -82l-72 124q73 26 132 60.5t94 71t35 67.5q0 18 -13.5 55t-36.5 80l104 69q34 -12 74.5 -17t74.5 -5q79 0 148 23l25 -22q-4 -30 -7 -56.5t-3 -37.5
q0 -32 22 -45t75 -13l16 -10v-125l-16 -10q-110 0 -154 35t-44 106zM566 386l-80 81l80 80l80 -80z" />
    <glyph glyph-name="noon_uni0632.fina" unicode="&#xfc8b;" horiz-adv-x="702" arabic-form="final" 
d="M504 141q0 14 1 27q-19 -6 -39.5 -8.5t-39.5 -2.5q-39 0 -79 8q3 -20 3 -39q0 -72 -35 -137t-102 -116t-163 -82l-72 124q73 26 132 60.5t94 71t35 67.5q0 18 -13.5 55t-36.5 80l104 69q34 -12 74.5 -17t74.5 -5q79 0 148 23l25 -22q-4 -30 -7 -56.5t-3 -37.5
q0 -32 22 -45t75 -13l16 -10v-125l-16 -10q-110 0 -154 35t-44 106zM566 386l-80 81l80 80l80 -80zM213 383l-80 81l80 80l80 -80z" />
    <glyph glyph-name="noon_uni0645.fina" unicode="&#xfc8c;" horiz-adv-x="694" arabic-form="final" 
d="M292 159q0 -17 19 -33t77 -45l31 -16l-69 -126l-27 15q-37 20 -65.5 28t-57.5 8q-25 0 -36.5 -12.5t-11.5 -41.5l-1 -306l-110 -10l-5 324q-1 83 38.5 132t107.5 49h15q-10 23 -10 45q0 35 20.5 71t55.5 65.5t77.5 47.5t87.5 18q56 0 91.5 -25.5t66.5 -90.5
q22 -46 38 -70t32 -32.5t38 -8.5l16 -11v-124l-16 -10q-52 0 -84.5 14.5t-56.5 49.5t-52 96q-19 42 -38 56.5t-49 14.5q-29 0 -57 -11t-46.5 -27.5t-18.5 -33.5zM416 435l-80 81l80 80l80 -80z" />
    <glyph glyph-name="noon_uni0646.fina" unicode="&#xfc8d;" horiz-adv-x="928" arabic-form="final" 
d="M730 141q0 14 1 27q-19 -6 -39.5 -8.5t-39.5 -2.5q-41 0 -83 9q9 -34 13.5 -66t4.5 -57q0 -73 -34.5 -129t-96.5 -87.5t-143 -31.5q-129 0 -202 65.5t-73 179.5q0 59 22 121t61 113l82 -51q-47 -81 -47 -150q0 -60 41 -96t116 -36q70 0 115 27.5t45 65.5q0 34 -14.5 84
t-48.5 126l109 74q34 -12 74.5 -17t75.5 -5q78 0 147 23l25 -22q-4 -30 -7 -56.5t-3 -37.5q0 -32 22.5 -45t74.5 -13l16 -10v-125l-16 -10q-110 0 -154 35t-44 106zM782 386l-80 81l80 80l80 -80zM307 327l-80 81l80 80l80 -80z" />
    <glyph glyph-name="uniFC8E" unicode="&#xfc8e;" horiz-adv-x="897" arabic-form="final" 
d="M511 175q0 -9 8 -16.5t27 -16.5q53 -22 74 -46t21 -62q0 -64 -42.5 -118.5t-118.5 -87.5t-175 -33q-80 0 -140 29.5t-93.5 84.5t-33.5 131q0 59 22 121t61 113l82 -51q-47 -81 -47 -150q0 -60 44 -96t123 -36q58 0 101.5 13t68 32t24.5 36q0 10 -10.5 18t-37.5 21
q-47 23 -65.5 50t-18.5 62q0 37 20.5 72.5t55.5 64t79 45.5t91 17q56 0 91.5 -25.5t66.5 -90.5q22 -46 38 -70t32 -32.5t38 -8.5l16 -11v-124l-16 -10q-52 0 -84.5 14.5t-56.5 49.5t-52 96q-19 42 -38 56.5t-49 14.5q-24 0 -48.5 -8.5t-41 -21.5t-16.5 -26zM620 435l-80 81
l80 80l80 -80z" />
    <glyph glyph-name="uniFC8F" unicode="&#xfc8f;" horiz-adv-x="897" arabic-form="final" 
d="M511 175q0 -9 8 -16.5t27 -16.5q53 -22 74 -46t21 -62q0 -64 -42.5 -118.5t-118.5 -87.5t-175 -33q-80 0 -140 29.5t-93.5 84.5t-33.5 131q0 59 22 121t61 113l82 -51q-47 -81 -47 -150q0 -60 44 -96t123 -36q58 0 101.5 13t68 32t24.5 36q0 10 -10.5 18t-37.5 21
q-47 23 -65.5 50t-18.5 62q0 37 20.5 72.5t55.5 64t79 45.5t91 17q56 0 91.5 -25.5t66.5 -90.5q22 -46 38 -70t32 -32.5t38 -8.5l16 -11v-124l-16 -10q-52 0 -84.5 14.5t-56.5 49.5t-52 96q-19 42 -38 56.5t-49 14.5q-24 0 -48.5 -8.5t-41 -21.5t-16.5 -26zM620 435l-80 81
l80 80l80 -80zM302 -353l-72 -73l-78 78l78 77l72 -72l72 72l78 -77l-78 -78z" />
    <glyph glyph-name="uniFC91" unicode="&#xfc91;" horiz-adv-x="702" arabic-form="final" 
d="M504 141q0 14 1 27q-19 -6 -39.5 -8.5t-39.5 -2.5q-39 0 -79 8q3 -20 3 -39q0 -72 -35 -137t-102 -116t-163 -82l-72 124q73 26 132 60.5t94 71t35 67.5q0 18 -13.5 55t-36.5 80l104 69q34 -12 74.5 -17t74.5 -5q79 0 148 23l25 -22q-4 -30 -7 -56.5t-3 -37.5
q0 -32 22 -45t75 -13l16 -10v-125l-16 -10q-110 0 -154 35t-44 106zM530 -148l-72 -73l-78 78l78 77l72 -72l72 72l78 -77l-78 -78z" />
    <glyph glyph-name="yeh_uni0632.fina" unicode="&#xfc92;" horiz-adv-x="702" arabic-form="final" 
d="M504 141q0 14 1 27q-19 -6 -39.5 -8.5t-39.5 -2.5q-39 0 -79 8q3 -20 3 -39q0 -72 -35 -137t-102 -116t-163 -82l-72 124q73 26 132 60.5t94 71t35 67.5q0 18 -13.5 55t-36.5 80l104 69q34 -12 74.5 -17t74.5 -5q79 0 148 23l25 -22q-4 -30 -7 -56.5t-3 -37.5
q0 -32 22 -45t75 -13l16 -10v-125l-16 -10q-110 0 -154 35t-44 106zM530 -148l-72 -73l-78 78l78 77l72 -72l72 72l78 -77l-78 -78zM213 383l-80 81l80 80l80 -80z" />
    <glyph glyph-name="yeh_uni0645.fina" unicode="&#xfc93;" horiz-adv-x="694" arabic-form="final" 
d="M292 159q0 -17 19 -33t77 -45l31 -16l-69 -126l-27 15q-37 20 -65.5 28t-57.5 8q-25 0 -36.5 -12.5t-11.5 -41.5l-1 -306l-110 -10l-5 324q-1 83 38.5 132t107.5 49h15q-10 23 -10 45q0 35 20.5 71t55.5 65.5t77.5 47.5t87.5 18q56 0 91.5 -25.5t66.5 -90.5
q22 -46 38 -70t32 -32.5t38 -8.5l16 -11v-124l-16 -10q-52 0 -84.5 14.5t-56.5 49.5t-52 96q-19 42 -38 56.5t-49 14.5q-29 0 -57 -11t-46.5 -27.5t-18.5 -33.5zM507 -148l-72 -73l-78 78l78 77l72 -72l72 72l78 -77l-78 -78z" />
    <glyph glyph-name="yeh_uni0646.fina" unicode="&#xfc94;" horiz-adv-x="928" arabic-form="final" 
d="M730 141q0 14 1 27q-19 -6 -39.5 -8.5t-39.5 -2.5q-41 0 -83 9q9 -34 13.5 -66t4.5 -57q0 -73 -34.5 -129t-96.5 -87.5t-143 -31.5q-129 0 -202 65.5t-73 179.5q0 59 22 121t61 113l82 -51q-47 -81 -47 -150q0 -60 41 -96t116 -36q70 0 115 27.5t45 65.5q0 34 -14.5 84
t-48.5 126l109 74q34 -12 74.5 -17t75.5 -5q78 0 147 23l25 -22q-4 -30 -7 -56.5t-3 -37.5q0 -32 22.5 -45t74.5 -13l16 -10v-125l-16 -10q-110 0 -154 35t-44 106zM782 -148l-72 -73l-78 78l78 77l72 -72l72 72l78 -77l-78 -78zM307 327l-80 81l80 80l80 -80z" />
    <glyph glyph-name="yeh_uni0649.fina" unicode="&#xfc95;" horiz-adv-x="897" arabic-form="final" 
d="M511 175q0 -9 8 -16.5t27 -16.5q53 -22 74 -46t21 -62q0 -64 -42.5 -118.5t-118.5 -87.5t-175 -33q-80 0 -140 29.5t-93.5 84.5t-33.5 131q0 59 22 121t61 113l82 -51q-47 -81 -47 -150q0 -60 44 -96t123 -36q58 0 101.5 13t68 32t24.5 36q0 10 -10.5 18t-37.5 21
q-47 23 -65.5 50t-18.5 62q0 37 20.5 72.5t55.5 64t79 45.5t91 17q56 0 91.5 -25.5t66.5 -90.5q22 -46 38 -70t32 -32.5t38 -8.5l16 -11v-124l-16 -10q-52 0 -84.5 14.5t-56.5 49.5t-52 96q-19 42 -38 56.5t-49 14.5q-24 0 -48.5 -8.5t-41 -21.5t-16.5 -26zM765 -148
l-72 -73l-78 78l78 77l72 -72l72 72l78 -77l-78 -78z" />
    <glyph glyph-name="yeh_uni064A.fina" unicode="&#xfc96;" horiz-adv-x="897" arabic-form="final" 
d="M511 175q0 -9 8 -16.5t27 -16.5q53 -22 74 -46t21 -62q0 -64 -42.5 -118.5t-118.5 -87.5t-175 -33q-80 0 -140 29.5t-93.5 84.5t-33.5 131q0 59 22 121t61 113l82 -51q-47 -81 -47 -150q0 -60 44 -96t123 -36q58 0 101.5 13t68 32t24.5 36q0 10 -10.5 18t-37.5 21
q-47 23 -65.5 50t-18.5 62q0 37 20.5 72.5t55.5 64t79 45.5t91 17q56 0 91.5 -25.5t66.5 -90.5q22 -46 38 -70t32 -32.5t38 -8.5l16 -11v-124l-16 -10q-52 0 -84.5 14.5t-56.5 49.5t-52 96q-19 42 -38 56.5t-49 14.5q-24 0 -48.5 -8.5t-41 -21.5t-16.5 -26zM765 -148
l-72 -73l-78 78l78 77l72 -72l72 72l78 -77l-78 -78zM302 -353l-72 -73l-78 78l78 77l72 -72l72 72l78 -77l-78 -78z" />
    <glyph glyph-name="seen_uni0645.init" unicode="&#xfcb0;" horiz-adv-x="1055" arabic-form="initial" 
d="M-16 135l16 10h34q15 0 32 -4q-4 15 -4 29q0 35 20 71t54 65.5t77 47.5t90 18q56 0 91.5 -26t65.5 -90q24 -50 40.5 -75t32 -33.5t35.5 -8.5q25 0 43.5 13.5t25.5 47.5q3 15 6.5 37.5l7 45t5.5 35.5l108 -14q-6 -47 -9.5 -76.5t-3.5 -37.5q0 -24 19.5 -37.5t50.5 -13.5
q34 0 58 14t24 33q0 33 -18.5 86t-48.5 105l114 63q21 -36 35.5 -79t22 -84t7.5 -72q0 -94 -46.5 -149.5t-153.5 -55.5q-85 0 -130 46q-48 -46 -126 -46q-47 0 -78 15t-55 50.5t-51 94.5q-19 43 -38 57t-49 14q-29 0 -57 -11t-46.5 -27.5t-18.5 -33.5q0 -16 19 -32.5
t77 -45.5l32 -16l-69 -126l-24 12q-49 26 -84 37.5t-78 11.5h-39l-16 11v124z" />
    <glyph glyph-name="sad_uni0645.init" unicode="&#xfcb3;" horiz-adv-x="1016" arabic-form="initial" 
d="M-16 135l16 10h34q15 0 32 -4q-4 15 -4 29q0 35 20 71t54 65.5t77 47.5t90 18q56 0 91.5 -26t65.5 -90q13 -27 26.5 -53.5t32.5 -42.5q67 141 137.5 210t143.5 69q52 0 93.5 -30t66 -81t24.5 -115q0 -107 -83.5 -165t-241.5 -58q-82 0 -134.5 15.5t-86.5 53t-63 101.5
q-19 43 -38 57t-49 14q-29 0 -57 -11t-46.5 -27.5t-18.5 -33.5q0 -16 19 -32.5t77 -45.5l32 -16l-69 -126l-24 12q-49 26 -84 37.5t-78 11.5h-39l-16 11v124zM855.5 274.5q-24.5 24.5 -58.5 24.5q-44 0 -90.5 -43t-90.5 -122q31 -3 60 -3q98 0 151 22t53 64q0 33 -24.5 57.5
z" />
    <glyph glyph-name="dad_uni0645.init" unicode="&#xfcb7;" horiz-adv-x="1016" arabic-form="initial" 
d="M-16 135l16 10h34q15 0 32 -4q-4 15 -4 29q0 35 20 71t54 65.5t77 47.5t90 18q56 0 91.5 -26t65.5 -90q13 -27 26.5 -53.5t32.5 -42.5q67 141 137.5 210t143.5 69q52 0 93.5 -30t66 -81t24.5 -115q0 -107 -83.5 -165t-241.5 -58q-82 0 -134.5 15.5t-86.5 53t-63 101.5
q-19 43 -38 57t-49 14q-29 0 -57 -11t-46.5 -27.5t-18.5 -33.5q0 -16 19 -32.5t77 -45.5l32 -16l-69 -126l-24 12q-49 26 -84 37.5t-78 11.5h-39l-16 11v124zM855.5 274.5q-24.5 24.5 -58.5 24.5q-44 0 -90.5 -43t-90.5 -122q31 -3 60 -3q98 0 151 22t53 64q0 33 -24.5 57.5
zM763 508l-80 81l80 80l80 -80z" />
    <glyph glyph-name="uniFCCC" unicode="&#xfccc;" horiz-adv-x="356" arabic-form="initial" 
d="M-16 135l16 10h49q37 0 72 -7q-12 22 -16.5 46.5t-4.5 55.5l-4 398l122 21l-4 -433q-1 -47 16 -73.5t69 -52.5l37 -18l-72 -132l-28 15q-39 21 -78 28t-103 7h-55l-16 11v124z" />
    <glyph glyph-name="yehHamzaabove_uni0645.medi" unicode="&#xfcdf;" horiz-adv-x="569" arabic-form="medial" 
d="M166 159q0 -16 19 -32.5t77 -45.5l32 -16l-69 -126l-24 12q-49 26 -84 37.5t-78 11.5h-39l-16 11v124l16 10h34q15 0 32 -4q-4 15 -4 29q0 35 20.5 71t55.5 65.5t77.5 47.5t87.5 18q56 0 91.5 -25.5t65.5 -90.5q22 -46 38 -70t32.5 -32.5t38.5 -8.5l16 -11v-124l-16 -10
q-52 0 -85 14.5t-57 49.5t-52 96q-19 42 -37.5 56.5t-49.5 14.5q-28 0 -56.5 -11t-47 -27.5t-18.5 -33.5zM215 544q0 35 24 60t59 25q41 0 65 -37l-25 -35q-16 10 -35 10q-16 0 -26 -7t-10 -18q0 -13 14.5 -21t38.5 -11q36 7 68 9l-9 -64q-43 -3 -82.5 -10t-80.5 -20l-20 49
q21 9 47 17q-28 21 -28 53z" />
    <glyph glyph-name="beh_uni0645.medi" unicode="&#xfce1;" horiz-adv-x="569" arabic-form="medial" 
d="M166 159q0 -16 19 -32.5t77 -45.5l32 -16l-69 -126l-24 12q-49 26 -84 37.5t-78 11.5h-39l-16 11v124l16 10h34q15 0 32 -4q-4 15 -4 29q0 35 20.5 71t55.5 65.5t77.5 47.5t87.5 18q56 0 91.5 -25.5t65.5 -90.5q22 -46 38 -70t32.5 -32.5t38.5 -8.5l16 -11v-124l-16 -10
q-52 0 -85 14.5t-57 49.5t-52 96q-19 42 -37.5 56.5t-49.5 14.5q-28 0 -56.5 -11t-47 -27.5t-18.5 -33.5zM386 -226l-80 80l80 80l80 -80z" />
    <glyph glyph-name="teh_uni0645.medi" unicode="&#xfce3;" horiz-adv-x="569" arabic-form="medial" 
d="M166 159q0 -16 19 -32.5t77 -45.5l32 -16l-69 -126l-24 12q-49 26 -84 37.5t-78 11.5h-39l-16 11v124l16 10h34q15 0 32 -4q-4 15 -4 29q0 35 20.5 71t55.5 65.5t77.5 47.5t87.5 18q56 0 91.5 -25.5t65.5 -90.5q22 -46 38 -70t32.5 -32.5t38.5 -8.5l16 -11v-124l-16 -10
q-52 0 -85 14.5t-57 49.5t-52 96q-19 42 -37.5 56.5t-49.5 14.5q-28 0 -56.5 -11t-47 -27.5t-18.5 -33.5zM291 508l-72 -73l-78 78l78 78l72 -73l72 73l78 -78l-78 -78z" />
    <glyph glyph-name="theh_uni0645.medi" unicode="&#xfce5;" horiz-adv-x="569" arabic-form="medial" 
d="M166 159q0 -16 19 -32.5t77 -45.5l32 -16l-69 -126l-24 12q-49 26 -84 37.5t-78 11.5h-39l-16 11v124l16 10h34q15 0 32 -4q-4 15 -4 29q0 35 20.5 71t55.5 65.5t77.5 47.5t87.5 18q56 0 91.5 -25.5t65.5 -90.5q22 -46 38 -70t32.5 -32.5t38.5 -8.5l16 -11v-124l-16 -10
q-52 0 -85 14.5t-57 49.5t-52 96q-19 42 -37.5 56.5t-49.5 14.5q-28 0 -56.5 -11t-47 -27.5t-18.5 -33.5zM363 435l-72 72l-72 -72l-76 76l76 76l72 -72l72 72l76 -76zM291 580l-74 74l74 74l74 -74z" />
    <glyph glyph-name="seen_uni0645.medi" unicode="&#xfce7;" horiz-adv-x="1089" arabic-form="medial" 
d="M166 159q0 -16 19 -32.5t77 -45.5l32 -16l-69 -126l-24 12q-49 26 -84 37.5t-78 11.5h-39l-16 11v124l16 10h34q15 0 32 -4q-4 15 -4 29q0 35 20 71t54 65.5t77 47.5t90 18q56 0 91.5 -26t65.5 -90q24 -50 40.5 -75t32 -33.5t35.5 -8.5q25 0 43.5 13.5t25.5 47.5
q3 15 6.5 37t7 44.5t5.5 36.5l108 -14q-6 -47 -9.5 -76.5t-3.5 -37.5q0 -51 67 -51q63 0 73 52q4 19 8.5 58.5t6.5 85.5l112 -11q-2 -43 -5.5 -81t-8.5 -69q23 -29 85 -29l16 -10v-125l-16 -10q-49 0 -83 11t-57 34q-50 -45 -139 -45q-80 0 -125 46q-48 -46 -126 -46
q-47 0 -78 15t-55 50.5t-51 94.5q-19 43 -38 57t-49 14q-29 0 -57 -11t-46.5 -27.5t-18.5 -33.5z" />
    <glyph glyph-name="sheen_uni0645.medi" unicode="&#xfce9;" horiz-adv-x="1089" arabic-form="medial" 
d="M166 159q0 -16 19 -32.5t77 -45.5l32 -16l-69 -126l-24 12q-49 26 -84 37.5t-78 11.5h-39l-16 11v124l16 10h34q15 0 32 -4q-4 15 -4 29q0 35 20 71t54 65.5t77 47.5t90 18q56 0 91.5 -26t65.5 -90q24 -50 40.5 -75t32 -33.5t35.5 -8.5q25 0 43.5 13.5t25.5 47.5
q3 15 6.5 37t7 44.5t5.5 36.5l108 -14q-6 -47 -9.5 -76.5t-3.5 -37.5q0 -51 67 -51q63 0 73 52q4 19 8.5 58.5t6.5 85.5l112 -11q-2 -43 -5.5 -81t-8.5 -69q23 -29 85 -29l16 -10v-125l-16 -10q-49 0 -83 11t-57 34q-50 -45 -139 -45q-80 0 -125 46q-48 -46 -126 -46
q-47 0 -78 15t-55 50.5t-51 94.5q-19 43 -38 57t-49 14q-29 0 -57 -11t-46.5 -27.5t-18.5 -33.5zM788 420l-72 72l-72 -72l-76 76l76 76l72 -72l72 72l76 -76zM716 565l-74 74l74 74l74 -74z" />
    <glyph glyph-name="noon_uni0645.medi" unicode="&#xfcee;" horiz-adv-x="569" arabic-form="medial" 
d="M166 159q0 -16 19 -32.5t77 -45.5l32 -16l-69 -126l-24 12q-49 26 -84 37.5t-78 11.5h-39l-16 11v124l16 10h34q15 0 32 -4q-4 15 -4 29q0 35 20.5 71t55.5 65.5t77.5 47.5t87.5 18q56 0 91.5 -25.5t65.5 -90.5q22 -46 38 -70t32.5 -32.5t38.5 -8.5l16 -11v-124l-16 -10
q-52 0 -85 14.5t-57 49.5t-52 96q-19 42 -37.5 56.5t-49.5 14.5q-28 0 -56.5 -11t-47 -27.5t-18.5 -33.5zM291 435l-80 81l80 80l80 -80z" />
    <glyph glyph-name="yeh_uni0645.medi" unicode="&#xfcf0;" horiz-adv-x="569" arabic-form="medial" 
d="M166 159q0 -16 19 -32.5t77 -45.5l32 -16l-69 -126l-24 12q-49 26 -84 37.5t-78 11.5h-39l-16 11v124l16 10h34q15 0 32 -4q-4 15 -4 29q0 35 20.5 71t55.5 65.5t77.5 47.5t87.5 18q56 0 91.5 -25.5t65.5 -90.5q22 -46 38 -70t32.5 -32.5t38.5 -8.5l16 -11v-124l-16 -10
q-52 0 -85 14.5t-57 49.5t-52 96q-19 42 -37.5 56.5t-49.5 14.5q-28 0 -56.5 -11t-47 -27.5t-18.5 -33.5zM386 -148l-72 -73l-78 78l78 77l72 -72l72 72l78 -77l-78 -78z" />
    <glyph glyph-name="uniFCFB" unicode="&#xfcfb;" horiz-adv-x="1374" arabic-form="isolated" 
d="M1343 205q0 -94 -46.5 -149.5t-153.5 -55.5q-84 0 -130 46q-48 -46 -126 -46q-47 0 -78 15t-55 50.5t-50 94.5q-19 43 -38.5 57t-48.5 14q-24 0 -48.5 -8.5t-41 -21.5t-16.5 -26q0 -9 8 -16.5t27 -16.5q53 -22 74 -46t21 -62q0 -64 -42.5 -118.5t-118.5 -87.5t-175 -33
q-80 0 -140 29.5t-93.5 84.5t-33.5 131q0 59 22 121t61 113l82 -51q-47 -81 -47 -150q0 -60 44 -96t123 -36q58 0 101.5 13t68 32t24.5 36q0 10 -10.5 18t-37.5 21q-47 23 -65.5 50t-18.5 62q0 37 20.5 72.5t55.5 64t79 45.5t91 17q56 0 91.5 -26t66.5 -90q24 -50 40 -75
t31.5 -33.5t35.5 -8.5q25 0 44 13.5t25 47.5q3 15 6.5 37.5l7 45t5.5 35.5l109 -14q-14 -98 -14 -114q0 -24 19.5 -37.5t50.5 -13.5q34 0 58 14t24 33q0 33 -18.5 86t-47.5 105l114 63q20 -36 34.5 -79t22 -84t7.5 -72z" />
    <glyph glyph-name="uniFCFC" unicode="&#xfcfc;" horiz-adv-x="1374" arabic-form="isolated" 
d="M1343 205q0 -94 -46.5 -149.5t-153.5 -55.5q-84 0 -130 46q-48 -46 -126 -46q-47 0 -78 15t-55 50.5t-50 94.5q-19 43 -38.5 57t-48.5 14q-24 0 -48.5 -8.5t-41 -21.5t-16.5 -26q0 -9 8 -16.5t27 -16.5q53 -22 74 -46t21 -62q0 -64 -42.5 -118.5t-118.5 -87.5t-175 -33
q-80 0 -140 29.5t-93.5 84.5t-33.5 131q0 59 22 121t61 113l82 -51q-47 -81 -47 -150q0 -60 44 -96t123 -36q58 0 101.5 13t68 32t24.5 36q0 10 -10.5 18t-37.5 21q-47 23 -65.5 50t-18.5 62q0 37 20.5 72.5t55.5 64t79 45.5t91 17q56 0 91.5 -26t66.5 -90q24 -50 40 -75
t31.5 -33.5t35.5 -8.5q25 0 44 13.5t25 47.5q3 15 6.5 37.5l7 45t5.5 35.5l109 -14q-14 -98 -14 -114q0 -24 19.5 -37.5t50.5 -13.5q34 0 58 14t24 33q0 33 -18.5 86t-47.5 105l114 63q20 -36 34.5 -79t22 -84t7.5 -72zM302 -353l-72 -73l-78 78l78 77l72 -72l72 72l78 -77
l-78 -78z" />
    <glyph glyph-name="uniFCFD" unicode="&#xfcfd;" horiz-adv-x="1374" arabic-form="isolated" 
d="M1343 205q0 -94 -46.5 -149.5t-153.5 -55.5q-84 0 -130 46q-48 -46 -126 -46q-47 0 -78 15t-55 50.5t-50 94.5q-19 43 -38.5 57t-48.5 14q-24 0 -48.5 -8.5t-41 -21.5t-16.5 -26q0 -9 8 -16.5t27 -16.5q53 -22 74 -46t21 -62q0 -64 -42.5 -118.5t-118.5 -87.5t-175 -33
q-80 0 -140 29.5t-93.5 84.5t-33.5 131q0 59 22 121t61 113l82 -51q-47 -81 -47 -150q0 -60 44 -96t123 -36q58 0 101.5 13t68 32t24.5 36q0 10 -10.5 18t-37.5 21q-47 23 -65.5 50t-18.5 62q0 37 20.5 72.5t55.5 64t79 45.5t91 17q56 0 91.5 -26t66.5 -90q24 -50 40 -75
t31.5 -33.5t35.5 -8.5q25 0 44 13.5t25 47.5q3 15 6.5 37.5l7 45t5.5 35.5l109 -14q-14 -98 -14 -114q0 -24 19.5 -37.5t50.5 -13.5q34 0 58 14t24 33q0 33 -18.5 86t-47.5 105l114 63q20 -36 34.5 -79t22 -84t7.5 -72zM1076 423l-72 72l-72 -72l-76 76l76 76l72 -72l72 72
l76 -76zM1004 568l-74 74l74 74l74 -74z" />
    <glyph glyph-name="uniFCFE" unicode="&#xfcfe;" horiz-adv-x="1374" arabic-form="isolated" 
d="M1343 205q0 -94 -46.5 -149.5t-153.5 -55.5q-84 0 -130 46q-48 -46 -126 -46q-47 0 -78 15t-55 50.5t-50 94.5q-19 43 -38.5 57t-48.5 14q-24 0 -48.5 -8.5t-41 -21.5t-16.5 -26q0 -9 8 -16.5t27 -16.5q53 -22 74 -46t21 -62q0 -64 -42.5 -118.5t-118.5 -87.5t-175 -33
q-80 0 -140 29.5t-93.5 84.5t-33.5 131q0 59 22 121t61 113l82 -51q-47 -81 -47 -150q0 -60 44 -96t123 -36q58 0 101.5 13t68 32t24.5 36q0 10 -10.5 18t-37.5 21q-47 23 -65.5 50t-18.5 62q0 37 20.5 72.5t55.5 64t79 45.5t91 17q56 0 91.5 -26t66.5 -90q24 -50 40 -75
t31.5 -33.5t35.5 -8.5q25 0 44 13.5t25 47.5q3 15 6.5 37.5l7 45t5.5 35.5l109 -14q-14 -98 -14 -114q0 -24 19.5 -37.5t50.5 -13.5q34 0 58 14t24 33q0 33 -18.5 86t-47.5 105l114 63q20 -36 34.5 -79t22 -84t7.5 -72zM1076 423l-72 72l-72 -72l-76 76l76 76l72 -72l72 72
l76 -76zM1004 568l-74 74l74 74l74 -74zM302 -353l-72 -73l-78 78l78 77l72 -72l72 72l78 -77l-78 -78z" />
    <glyph glyph-name="uniFD05" unicode="&#xfd05;" horiz-adv-x="1345" arabic-form="isolated" 
d="M156 73q0 -60 44 -96t123 -36q58 0 101.5 13t68 32t24.5 36q0 10 -10.5 18t-37.5 21q-47 23 -65.5 50t-18.5 62q0 37 20.5 72.5t55.5 64t79 45.5t91 17q56 0 91.5 -26t66.5 -90q12 -27 25.5 -53.5t32.5 -42.5q67 141 137.5 210t143.5 69q52 0 93.5 -30t66.5 -81t25 -115
q0 -107 -84 -165t-241 -58q-83 0 -135 15.5t-86 53t-63 101.5q-19 43 -38.5 57t-48.5 14q-24 0 -48.5 -8.5t-41 -21.5t-16.5 -26q0 -9 8 -16.5t27 -16.5q53 -22 74 -46t21 -62q0 -64 -42.5 -118.5t-118.5 -87.5t-175 -33q-80 0 -140 29.5t-93.5 84.5t-33.5 131q0 59 22 121
t61 113l82 -51q-47 -81 -47 -150zM1183.5 274.5q-24.5 24.5 -57.5 24.5q-44 0 -90.5 -43t-91.5 -122q31 -3 60 -3q98 0 151 22t53 64q0 33 -24.5 57.5z" />
    <glyph glyph-name="uniFD06" unicode="&#xfd06;" horiz-adv-x="1345" arabic-form="isolated" 
d="M156 73q0 -60 44 -96t123 -36q58 0 101.5 13t68 32t24.5 36q0 10 -10.5 18t-37.5 21q-47 23 -65.5 50t-18.5 62q0 37 20.5 72.5t55.5 64t79 45.5t91 17q56 0 91.5 -26t66.5 -90q12 -27 25.5 -53.5t32.5 -42.5q67 141 137.5 210t143.5 69q52 0 93.5 -30t66.5 -81t25 -115
q0 -107 -84 -165t-241 -58q-83 0 -135 15.5t-86 53t-63 101.5q-19 43 -38.5 57t-48.5 14q-24 0 -48.5 -8.5t-41 -21.5t-16.5 -26q0 -9 8 -16.5t27 -16.5q53 -22 74 -46t21 -62q0 -64 -42.5 -118.5t-118.5 -87.5t-175 -33q-80 0 -140 29.5t-93.5 84.5t-33.5 131q0 59 22 121
t61 113l82 -51q-47 -81 -47 -150zM1183.5 274.5q-24.5 24.5 -57.5 24.5q-44 0 -90.5 -43t-91.5 -122q31 -3 60 -3q98 0 151 22t53 64q0 33 -24.5 57.5zM302 -353l-72 -73l-78 78l78 77l72 -72l72 72l78 -77l-78 -78z" />
    <glyph glyph-name="uniFD07" unicode="&#xfd07;" horiz-adv-x="1345" arabic-form="isolated" 
d="M156 73q0 -60 44 -96t123 -36q58 0 101.5 13t68 32t24.5 36q0 10 -10.5 18t-37.5 21q-47 23 -65.5 50t-18.5 62q0 37 20.5 72.5t55.5 64t79 45.5t91 17q56 0 91.5 -26t66.5 -90q12 -27 25.5 -53.5t32.5 -42.5q67 141 137.5 210t143.5 69q52 0 93.5 -30t66.5 -81t25 -115
q0 -107 -84 -165t-241 -58q-83 0 -135 15.5t-86 53t-63 101.5q-19 43 -38.5 57t-48.5 14q-24 0 -48.5 -8.5t-41 -21.5t-16.5 -26q0 -9 8 -16.5t27 -16.5q53 -22 74 -46t21 -62q0 -64 -42.5 -118.5t-118.5 -87.5t-175 -33q-80 0 -140 29.5t-93.5 84.5t-33.5 131q0 59 22 121
t61 113l82 -51q-47 -81 -47 -150zM1183.5 274.5q-24.5 24.5 -57.5 24.5q-44 0 -90.5 -43t-91.5 -122q31 -3 60 -3q98 0 151 22t53 64q0 33 -24.5 57.5zM1103 508l-80 81l80 80l80 -80z" />
    <glyph glyph-name="uniFD08" unicode="&#xfd08;" horiz-adv-x="1345" arabic-form="isolated" 
d="M156 73q0 -60 44 -96t123 -36q58 0 101.5 13t68 32t24.5 36q0 10 -10.5 18t-37.5 21q-47 23 -65.5 50t-18.5 62q0 37 20.5 72.5t55.5 64t79 45.5t91 17q56 0 91.5 -26t66.5 -90q12 -27 25.5 -53.5t32.5 -42.5q67 141 137.5 210t143.5 69q52 0 93.5 -30t66.5 -81t25 -115
q0 -107 -84 -165t-241 -58q-83 0 -135 15.5t-86 53t-63 101.5q-19 43 -38.5 57t-48.5 14q-24 0 -48.5 -8.5t-41 -21.5t-16.5 -26q0 -9 8 -16.5t27 -16.5q53 -22 74 -46t21 -62q0 -64 -42.5 -118.5t-118.5 -87.5t-175 -33q-80 0 -140 29.5t-93.5 84.5t-33.5 131q0 59 22 121
t61 113l82 -51q-47 -81 -47 -150zM1183.5 274.5q-24.5 24.5 -57.5 24.5q-44 0 -90.5 -43t-91.5 -122q31 -3 60 -3q98 0 151 22t53 64q0 33 -24.5 57.5zM1103 508l-80 81l80 80l80 -80zM302 -353l-72 -73l-78 78l78 77l72 -72l72 72l78 -77l-78 -78z" />
    <glyph glyph-name="uniFD17" unicode="&#xfd17;" horiz-adv-x="1417" arabic-form="final" 
d="M511 175q0 -9 8 -16.5t27 -16.5q53 -22 74 -46t21 -62q0 -64 -42.5 -118.5t-118.5 -87.5t-175 -33q-80 0 -140 29.5t-93.5 84.5t-33.5 131q0 59 22 121t61 113l82 -51q-47 -81 -47 -150q0 -60 44 -96t123 -36q58 0 101.5 13t68 32t24.5 36q0 10 -10.5 18t-37.5 21
q-47 23 -65.5 50t-18.5 62q0 37 20.5 72.5t55.5 64t79 45.5t91 17q56 0 91.5 -26t66.5 -90q24 -50 40 -75t31.5 -33.5t35.5 -8.5q25 0 44 13.5t25 47.5q3 15 6.5 37t7 44.5t5.5 36.5l109 -14q-7 -47 -10.5 -76.5t-3.5 -37.5q0 -24 18 -37.5t49 -13.5q63 0 73 52
q4 19 8.5 58.5t7.5 85.5l111 -11q-4 -85 -13 -150q22 -29 84 -29l16 -10v-125l-16 -10q-49 0 -83 11t-57 34q-50 -45 -139 -45q-80 0 -125 45q-48 -45 -126 -45q-47 0 -78 15t-55 50.5t-50 94.5q-19 43 -38.5 57t-48.5 14q-24 0 -48.5 -8.5t-41 -21.5t-16.5 -26z" />
    <glyph glyph-name="uniFD18" unicode="&#xfd18;" horiz-adv-x="1417" arabic-form="final" 
d="M511 175q0 -9 8 -16.5t27 -16.5q53 -22 74 -46t21 -62q0 -64 -42.5 -118.5t-118.5 -87.5t-175 -33q-80 0 -140 29.5t-93.5 84.5t-33.5 131q0 59 22 121t61 113l82 -51q-47 -81 -47 -150q0 -60 44 -96t123 -36q58 0 101.5 13t68 32t24.5 36q0 10 -10.5 18t-37.5 21
q-47 23 -65.5 50t-18.5 62q0 37 20.5 72.5t55.5 64t79 45.5t91 17q56 0 91.5 -26t66.5 -90q24 -50 40 -75t31.5 -33.5t35.5 -8.5q25 0 44 13.5t25 47.5q3 15 6.5 37t7 44.5t5.5 36.5l109 -14q-7 -47 -10.5 -76.5t-3.5 -37.5q0 -24 18 -37.5t49 -13.5q63 0 73 52
q4 19 8.5 58.5t7.5 85.5l111 -11q-4 -85 -13 -150q22 -29 84 -29l16 -10v-125l-16 -10q-49 0 -83 11t-57 34q-50 -45 -139 -45q-80 0 -125 45q-48 -45 -126 -45q-47 0 -78 15t-55 50.5t-50 94.5q-19 43 -38.5 57t-48.5 14q-24 0 -48.5 -8.5t-41 -21.5t-16.5 -26zM302 -353
l-72 -73l-78 78l78 77l72 -72l72 72l78 -77l-78 -78z" />
    <glyph glyph-name="uniFD19" unicode="&#xfd19;" horiz-adv-x="1417" arabic-form="final" 
d="M511 175q0 -9 8 -16.5t27 -16.5q53 -22 74 -46t21 -62q0 -64 -42.5 -118.5t-118.5 -87.5t-175 -33q-80 0 -140 29.5t-93.5 84.5t-33.5 131q0 59 22 121t61 113l82 -51q-47 -81 -47 -150q0 -60 44 -96t123 -36q58 0 101.5 13t68 32t24.5 36q0 10 -10.5 18t-37.5 21
q-47 23 -65.5 50t-18.5 62q0 37 20.5 72.5t55.5 64t79 45.5t91 17q56 0 91.5 -26t66.5 -90q24 -50 40 -75t31.5 -33.5t35.5 -8.5q25 0 44 13.5t25 47.5q3 15 6.5 37t7 44.5t5.5 36.5l109 -14q-7 -47 -10.5 -76.5t-3.5 -37.5q0 -24 18 -37.5t49 -13.5q63 0 73 52
q4 19 8.5 58.5t7.5 85.5l111 -11q-4 -85 -13 -150q22 -29 84 -29l16 -10v-125l-16 -10q-49 0 -83 11t-57 34q-50 -45 -139 -45q-80 0 -125 45q-48 -45 -126 -45q-47 0 -78 15t-55 50.5t-50 94.5q-19 43 -38.5 57t-48.5 14q-24 0 -48.5 -8.5t-41 -21.5t-16.5 -26zM1116 420
l-72 72l-72 -72l-76 76l76 76l72 -72l72 72l76 -76zM1044 565l-74 74l74 74l74 -74z" />
    <glyph glyph-name="uniFD1A" unicode="&#xfd1a;" horiz-adv-x="1417" arabic-form="final" 
d="M511 175q0 -9 8 -16.5t27 -16.5q53 -22 74 -46t21 -62q0 -64 -42.5 -118.5t-118.5 -87.5t-175 -33q-80 0 -140 29.5t-93.5 84.5t-33.5 131q0 59 22 121t61 113l82 -51q-47 -81 -47 -150q0 -60 44 -96t123 -36q58 0 101.5 13t68 32t24.5 36q0 10 -10.5 18t-37.5 21
q-47 23 -65.5 50t-18.5 62q0 37 20.5 72.5t55.5 64t79 45.5t91 17q56 0 91.5 -26t66.5 -90q24 -50 40 -75t31.5 -33.5t35.5 -8.5q25 0 44 13.5t25 47.5q3 15 6.5 37t7 44.5t5.5 36.5l109 -14q-7 -47 -10.5 -76.5t-3.5 -37.5q0 -24 18 -37.5t49 -13.5q63 0 73 52
q4 19 8.5 58.5t7.5 85.5l111 -11q-4 -85 -13 -150q22 -29 84 -29l16 -10v-125l-16 -10q-49 0 -83 11t-57 34q-50 -45 -139 -45q-80 0 -125 45q-48 -45 -126 -45q-47 0 -78 15t-55 50.5t-50 94.5q-19 43 -38.5 57t-48.5 14q-24 0 -48.5 -8.5t-41 -21.5t-16.5 -26zM1116 420
l-72 72l-72 -72l-76 76l76 76l72 -72l72 72l76 -76zM1044 565l-74 74l74 74l74 -74zM302 -353l-72 -73l-78 78l78 77l72 -72l72 72l78 -77l-78 -78z" />
    <glyph glyph-name="uniFD21" unicode="&#xfd21;" horiz-adv-x="1367" arabic-form="final" 
d="M511 175q0 -9 8 -16.5t27 -16.5q53 -22 74 -46t21 -62q0 -64 -42.5 -118.5t-118.5 -87.5t-175 -33q-80 0 -140 29.5t-93.5 84.5t-33.5 131q0 59 22 121t61 113l82 -51q-47 -81 -47 -150q0 -60 44 -96t123 -36q58 0 101.5 13t68 32t24.5 36q0 10 -10.5 18t-37.5 21
q-47 23 -65.5 50t-18.5 62q0 37 20.5 72.5t55.5 64t79 45.5t91 17q56 0 91.5 -26t66.5 -90q12 -27 25.5 -53.5t32.5 -42.5q67 141 137.5 210t143.5 69q52 0 93.5 -30t66.5 -81t25 -115q0 -29 -6 -55q22 -13 60 -13l16 -10v-125l-16 -10q-41 0 -76.5 12t-60.5 36
q-85 -58 -242 -58q-83 0 -135 15.5t-86 53t-63 101.5q-19 43 -38.5 57t-48.5 14q-24 0 -48.5 -8.5t-41 -21.5t-16.5 -26zM1183.5 274.5q-24.5 24.5 -57.5 24.5q-44 0 -90.5 -43t-91.5 -122q31 -3 60 -3q98 0 151 22t53 64q0 33 -24.5 57.5z" />
    <glyph glyph-name="uniFD22" unicode="&#xfd22;" horiz-adv-x="1367" arabic-form="final" 
d="M511 175q0 -9 8 -16.5t27 -16.5q53 -22 74 -46t21 -62q0 -64 -42.5 -118.5t-118.5 -87.5t-175 -33q-80 0 -140 29.5t-93.5 84.5t-33.5 131q0 59 22 121t61 113l82 -51q-47 -81 -47 -150q0 -60 44 -96t123 -36q58 0 101.5 13t68 32t24.5 36q0 10 -10.5 18t-37.5 21
q-47 23 -65.5 50t-18.5 62q0 37 20.5 72.5t55.5 64t79 45.5t91 17q56 0 91.5 -26t66.5 -90q12 -27 25.5 -53.5t32.5 -42.5q67 141 137.5 210t143.5 69q52 0 93.5 -30t66.5 -81t25 -115q0 -29 -6 -55q22 -13 60 -13l16 -10v-125l-16 -10q-41 0 -76.5 12t-60.5 36
q-85 -58 -242 -58q-83 0 -135 15.5t-86 53t-63 101.5q-19 43 -38.5 57t-48.5 14q-24 0 -48.5 -8.5t-41 -21.5t-16.5 -26zM1183.5 274.5q-24.5 24.5 -57.5 24.5q-44 0 -90.5 -43t-91.5 -122q31 -3 60 -3q98 0 151 22t53 64q0 33 -24.5 57.5zM302 -353l-72 -73l-78 78l78 77
l72 -72l72 72l78 -77l-78 -78z" />
    <glyph glyph-name="uniFD23" unicode="&#xfd23;" horiz-adv-x="1367" arabic-form="final" 
d="M511 175q0 -9 8 -16.5t27 -16.5q53 -22 74 -46t21 -62q0 -64 -42.5 -118.5t-118.5 -87.5t-175 -33q-80 0 -140 29.5t-93.5 84.5t-33.5 131q0 59 22 121t61 113l82 -51q-47 -81 -47 -150q0 -60 44 -96t123 -36q58 0 101.5 13t68 32t24.5 36q0 10 -10.5 18t-37.5 21
q-47 23 -65.5 50t-18.5 62q0 37 20.5 72.5t55.5 64t79 45.5t91 17q56 0 91.5 -26t66.5 -90q12 -27 25.5 -53.5t32.5 -42.5q67 141 137.5 210t143.5 69q52 0 93.5 -30t66.5 -81t25 -115q0 -29 -6 -55q22 -13 60 -13l16 -10v-125l-16 -10q-41 0 -76.5 12t-60.5 36
q-85 -58 -242 -58q-83 0 -135 15.5t-86 53t-63 101.5q-19 43 -38.5 57t-48.5 14q-24 0 -48.5 -8.5t-41 -21.5t-16.5 -26zM1183.5 274.5q-24.5 24.5 -57.5 24.5q-44 0 -90.5 -43t-91.5 -122q31 -3 60 -3q98 0 151 22t53 64q0 33 -24.5 57.5zM1102 508l-80 81l80 80l80 -80z
" />
    <glyph glyph-name="uniFD24" unicode="&#xfd24;" horiz-adv-x="1367" arabic-form="final" 
d="M511 175q0 -9 8 -16.5t27 -16.5q53 -22 74 -46t21 -62q0 -64 -42.5 -118.5t-118.5 -87.5t-175 -33q-80 0 -140 29.5t-93.5 84.5t-33.5 131q0 59 22 121t61 113l82 -51q-47 -81 -47 -150q0 -60 44 -96t123 -36q58 0 101.5 13t68 32t24.5 36q0 10 -10.5 18t-37.5 21
q-47 23 -65.5 50t-18.5 62q0 37 20.5 72.5t55.5 64t79 45.5t91 17q56 0 91.5 -26t66.5 -90q12 -27 25.5 -53.5t32.5 -42.5q67 141 137.5 210t143.5 69q52 0 93.5 -30t66.5 -81t25 -115q0 -29 -6 -55q22 -13 60 -13l16 -10v-125l-16 -10q-41 0 -76.5 12t-60.5 36
q-85 -58 -242 -58q-83 0 -135 15.5t-86 53t-63 101.5q-19 43 -38.5 57t-48.5 14q-24 0 -48.5 -8.5t-41 -21.5t-16.5 -26zM1183.5 274.5q-24.5 24.5 -57.5 24.5q-44 0 -90.5 -43t-91.5 -122q31 -3 60 -3q98 0 151 22t53 64q0 33 -24.5 57.5zM1102 508l-80 81l80 80l80 -80z
M302 -353l-72 -73l-78 78l78 77l72 -72l72 72l78 -77l-78 -78z" />
    <glyph glyph-name="sheen_uni0645.fina" unicode="&#xfd28;" horiz-adv-x="1214" arabic-form="final" 
d="M292 159q0 -17 19 -33t77 -45l31 -16l-69 -126l-27 15q-37 20 -65.5 28t-57.5 8q-25 0 -36.5 -12.5t-11.5 -41.5l-1 -306l-110 -10l-5 324q-1 83 38.5 132t107.5 49h15q-10 23 -10 45q0 35 20 71t54 65.5t77 47.5t90 18q56 0 91.5 -26t66.5 -90q24 -50 40 -75t31.5 -33.5
t35.5 -8.5q25 0 44 13.5t26 47.5q3 15 6.5 37t7 44.5t5.5 36.5l108 -14q-7 -47 -10.5 -76.5t-3.5 -37.5q0 -24 18 -37.5t49 -13.5q63 0 73 52q4 19 8.5 58.5t7.5 85.5l111 -11q-4 -85 -13 -150q22 -29 84 -29l16 -10v-125l-16 -10q-49 0 -83 11t-57 34q-50 -45 -139 -45
q-79 0 -125 46q-48 -46 -126 -46q-47 0 -78 15t-55 50.5t-50 94.5q-19 43 -38.5 57t-48.5 14t-57.5 -11t-46.5 -27.5t-18 -33.5zM913 420l-72 72l-72 -72l-76 76l76 76l72 -72l72 72l76 -76zM841 565l-74 74l74 74l74 -74z" />
    <glyph glyph-name="sheen_uni0645.init" unicode="&#xfd30;" horiz-adv-x="1055" arabic-form="initial" 
d="M-16 135l16 10h34q15 0 32 -4q-4 15 -4 29q0 35 20 71t54 65.5t77 47.5t90 18q56 0 91.5 -26t65.5 -90q24 -50 40.5 -75t32 -33.5t35.5 -8.5q25 0 43.5 13.5t25.5 47.5q3 15 6.5 37.5l7 45t5.5 35.5l108 -14q-6 -47 -9.5 -76.5t-3.5 -37.5q0 -24 19.5 -37.5t50.5 -13.5
q34 0 58 14t24 33q0 33 -18.5 86t-48.5 105l114 63q21 -36 35.5 -79t22 -84t7.5 -72q0 -94 -46.5 -149.5t-153.5 -55.5q-85 0 -130 46q-48 -46 -126 -46q-47 0 -78 15t-55 50.5t-51 94.5q-19 43 -38 57t-49 14q-29 0 -57 -11t-46.5 -27.5t-18.5 -33.5q0 -16 19 -32.5
t77 -45.5l32 -16l-69 -126l-24 12q-49 26 -84 37.5t-78 11.5h-39l-16 11v124zM748 423l-72 72l-72 -72l-76 76l76 76l72 -72l72 72l76 -76zM676 568l-74 74l74 74l74 -74z" />
    <glyph glyph-name="uniFDF2" unicode="&#xfdf2;" horiz-adv-x="1193" arabic-form="isolated" 
d="M1012 637l123 22l-8 -659h-107zM30 234q0 84 67 145t194 93l-1 55l117 22l-5 -347q0 -60 66 -60q33 0 50.5 11t17.5 29l-4 344l123 23l-4 -374q17 -33 65 -33q66 0 66 42l-5 342l122 23l-4 -368q-1 -87 -46 -134t-128 -47q-33 0 -65.5 11.5t-56.5 36.5q-48 -48 -131 -48
q-61 0 -105 25t-59 77q-46 -28 -105 -28q-48 0 -86 19.5t-60.5 55.5t-22.5 85zM132 260q0 -26 26 -38t63 -12q39 0 75 12l-3 126q-45 -5 -81.5 -17.5t-58 -30.5t-21.5 -40zM474 681q0 50 35 91l35 -19q-24 -34 -24 -59q0 -30 23 -30t25 20l9 66l45 -5l-6 -54q-1 -21 26 -21
q28 0 28 21q0 15 -8 35t-22 39l44 26q31 -41 31 -96q0 -38 -19.5 -60.5t-53.5 -22.5q-31 0 -48 19q-20 -24 -53 -24q-32 0 -49.5 19.5t-17.5 54.5zM572 907q-2 39 -7 73l56 10q3 -34 3 -65q0 -55 -9 -108h-41q0 51 -2 90z" />
    <glyph glyph-name="uniFE82" unicode="&#x622;" horiz-adv-x="253" arabic-form="final" 
d="M190.5 159q19.5 -14 62.5 -14l16 -10v-125l-16 -10q-192 0 -194 160l-6 477l123 22l-5 -453q0 -33 19.5 -47zM170 728q-20 0 -55 13q-22 9 -34 12t-21 3q-26 0 -50 -37l-36 21q14 41 36.5 63t53.5 22q11 0 24 -3.5t31 -9.5q22 -9 34 -12.5t21 -3.5q25 0 50 37l36 -20
q-28 -85 -90 -85z" />
    <glyph glyph-name="uniFE84" unicode="&#x623;" horiz-adv-x="253" arabic-form="final" 
d="M190.5 159q19.5 -14 62.5 -14l16 -10v-125l-16 -10q-192 0 -194 160l-6 477l123 22l-5 -453q0 -33 19.5 -47zM41 836q0 35 24 60t59 25q41 0 65 -37l-25 -35q-16 10 -35 10q-16 0 -26 -7t-10 -18q0 -13 14.5 -21t38.5 -11q36 7 68 9l-9 -64q-43 -3 -82.5 -10t-80.5 -20
l-20 49q21 9 47 17q-28 21 -28 53z" />
    <glyph glyph-name="uniFE86" unicode="&#x624;" horiz-adv-x="455" arabic-form="final" 
d="M52 198q0 63 22.5 111.5t62.5 76.5t90 28q52 0 92 -33.5t63.5 -94t26.5 -141.5h46l16 -10v-125l-16 -10h-65q-29 -88 -103.5 -138.5t-190.5 -70.5l-53 125q104 18 163.5 40.5t84.5 60.5h-33q-97 0 -151.5 49t-54.5 132zM147 202q0 -67 123 -67h42q-4 72 -27 111t-63 39
q-33 0 -54 -23.5t-21 -59.5zM153 589q0 35 24 60t59 25q41 0 65 -37l-25 -35q-16 10 -35 10q-16 0 -26 -7t-10 -18q0 -13 14.5 -21t38.5 -11q36 7 68 9l-9 -64q-43 -3 -82.5 -10t-80.5 -20l-20 49q21 9 47 17q-28 21 -28 53z" />
    <glyph glyph-name="uniFE88" unicode="&#x625;" horiz-adv-x="253" arabic-form="final" 
d="M190.5 159q19.5 -14 62.5 -14l16 -10v-125l-16 -10q-192 0 -194 160l-6 477l123 22l-5 -453q0 -33 19.5 -47zM41 -146q0 35 24 59.5t59 24.5q20 0 37 -9.5t28 -26.5l-25 -36q-17 11 -35 11q-16 0 -26 -7.5t-10 -18.5q0 -13 14 -20.5t37 -11.5q38 7 70 9l-9 -64
q-43 -3 -82.5 -9.5t-80.5 -19.5l-20 48q21 9 46 17q-27 21 -27 54z" />
    <glyph glyph-name="uniFE8A" unicode="&#x626;" horiz-adv-x="662" arabic-form="final" 
d="M601 -14q0 -46 -37.5 -90t-104 -72.5t-154.5 -28.5q-80 0 -140 29.5t-93.5 84.5t-33.5 131q0 59 22 121t61 113l82 -51q-47 -81 -47 -150q0 -60 44 -96t123 -36q80 0 129 26t49 57q0 8 -7 20.5t-26.5 37.5t-57.5 70l93 79q40 -52 75.5 -69t83.5 -17l16 -10v-125l-16 -10
q-15 0 -30.5 2.5t-33.5 8.5q3 -13 3 -25zM88 450q0 35 24 59.5t59 24.5q41 0 65 -37l-25 -35q-17 11 -35 11q-16 0 -26 -7.5t-10 -18.5q0 -13 14 -20.5t37 -11.5q38 7 70 9l-9 -64q-43 -3 -82.5 -9.5t-80.5 -19.5l-20 48q22 9 47 17q-28 21 -28 54z" />
    <glyph glyph-name="uniFE8B" unicode="&#x626;" horiz-adv-x="290" arabic-form="initial" 
d="M-16 135l16 10q61 0 98.5 14.5t37.5 34.5t-9 50.5t-23.5 65.5t-33.5 67l115 63q20 -33 34 -76t22 -85t8 -74q0 -108 -62 -156.5t-187 -48.5l-16 10v125zM47 611q0 35 24 60t59 25q41 0 65 -37l-25 -35q-16 10 -35 10q-16 0 -26 -7t-10 -18q0 -13 14.5 -21t38.5 -11
q36 7 68 9l-9 -64q-43 -3 -82.5 -10t-80.5 -20l-20 49q21 9 47 17q-28 21 -28 53z" />
    <glyph glyph-name="uniFE8C" unicode="&#x626;" horiz-adv-x="339" arabic-form="medial" 
d="M-16 135l16 10q59 0 85.5 13t32.5 41q5 23 10.5 58.5t9.5 63.5l109 -14q-5 -37 -9 -71t-4 -42q0 -25 24.5 -37t80.5 -12l16 -10v-125l-16 -10q-62 0 -100 17t-61 53q-26 -35 -69.5 -52.5t-108.5 -17.5l-16 10v125zM120 498q0 35 24 60t59 25q41 0 65 -37l-25 -35
q-16 10 -35 10q-16 0 -26 -7t-10 -18q0 -13 14.5 -21t38.5 -11q36 7 68 9l-9 -64q-43 -3 -82.5 -10t-80.5 -20l-20 49q21 9 47 17q-28 21 -28 53z" />
    <glyph glyph-name="uniFE8E" unicode="&#x627;" horiz-adv-x="253" arabic-form="final" 
d="M190.5 159q19.5 -14 62.5 -14l16 -10v-125l-16 -10q-192 0 -194 160l-6 477l123 22l-5 -453q0 -33 19.5 -47z" />
    <glyph glyph-name="uniFE90" unicode="&#x628;" horiz-adv-x="865" arabic-form="final" 
d="M37 196q0 49 18 104.5t49 104.5l87 -43q-31 -68 -31 -119q0 -58 54.5 -82t178.5 -24q91 0 144.5 6.5t79 22.5t31.5 46q4 18 9.5 52t8.5 57l108 -14q-5 -37 -9 -71t-4 -42q0 -25 24.5 -37t79.5 -12l16 -10v-125l-16 -10q-57 0 -97.5 16t-64.5 58q-43 -50 -123.5 -67
t-186.5 -17q-184 0 -270 50t-86 156zM392 -226l-80 80l80 80l80 -80z" />
    <glyph glyph-name="uniFE91" unicode="&#x628;" horiz-adv-x="290" arabic-form="initial" 
d="M-16 135l16 10q61 0 98.5 14.5t37.5 34.5t-9 50.5t-23.5 65.5t-33.5 67l115 63q20 -33 34 -76t22 -85t8 -74q0 -108 -62 -156.5t-187 -48.5l-16 10v125zM121 -226l-80 80l80 80l80 -80z" />
    <glyph glyph-name="uniFE92" unicode="&#x628;" horiz-adv-x="339" arabic-form="medial" 
d="M-16 135l16 10q59 0 85.5 13t32.5 41q5 23 10.5 58.5t9.5 63.5l109 -14q-5 -37 -9 -71t-4 -42q0 -25 24.5 -37t80.5 -12l16 -10v-125l-16 -10q-62 0 -100 17t-61 53q-26 -35 -69.5 -52.5t-108.5 -17.5l-16 10v125zM145 -226l-80 80l80 80l80 -80z" />
    <glyph glyph-name="uniFE94" unicode="&#x629;" horiz-adv-x="479" arabic-form="final" 
d="M29 234q0 84 67.5 145t194.5 93l-1 56l117 21l-5 -344q0 -33 17.5 -46.5t59.5 -13.5l16 -10v-125l-16 -10q-146 0 -175 102q-46 -28 -105 -28q-48 0 -86.5 19.5t-61 55.5t-22.5 85zM132 260q0 -26 26 -38t63 -12q39 0 75 12l-3 126q-45 -5 -81.5 -17.5t-58 -30.5
t-21.5 -40zM235 671l-72 -73l-78 78l78 78l72 -73l72 73l78 -78l-78 -78z" />
    <glyph glyph-name="uniFE96" unicode="&#x62a;" horiz-adv-x="865" arabic-form="final" 
d="M37 196q0 49 18 104.5t49 104.5l87 -43q-31 -68 -31 -119q0 -58 54.5 -82t178.5 -24q91 0 144.5 6.5t79 22.5t31.5 46q4 18 9.5 52t8.5 57l108 -14q-5 -37 -9 -71t-4 -42q0 -25 24.5 -37t79.5 -12l16 -10v-125l-16 -10q-57 0 -97.5 16t-64.5 58q-43 -50 -123.5 -67
t-186.5 -17q-184 0 -270 50t-86 156zM420 492l-72 -73l-78 78l78 78l72 -73l72 73l78 -78l-78 -78z" />
    <glyph glyph-name="uniFE97" unicode="&#x62a;" horiz-adv-x="290" arabic-form="initial" 
d="M-16 135l16 10q61 0 98.5 14.5t37.5 34.5t-9 50.5t-23.5 65.5t-33.5 67l115 63q20 -33 34 -76t22 -85t8 -74q0 -108 -62 -156.5t-187 -48.5l-16 10v125zM123 575l-72 -73l-78 78l78 78l72 -73l72 73l78 -78l-78 -78z" />
    <glyph glyph-name="uniFE98" unicode="&#x62a;" horiz-adv-x="339" arabic-form="medial" 
d="M-16 135l16 10q59 0 85.5 13t32.5 41q5 23 10.5 58.5t9.5 63.5l109 -14q-5 -37 -9 -71t-4 -42q0 -25 24.5 -37t80.5 -12l16 -10v-125l-16 -10q-62 0 -100 17t-61 53q-26 -35 -69.5 -52.5t-108.5 -17.5l-16 10v125zM196 462l-72 -73l-78 78l78 78l72 -73l72 73l78 -78
l-78 -78z" />
    <glyph glyph-name="uniFE9A" unicode="&#x62b;" horiz-adv-x="865" arabic-form="final" 
d="M37 196q0 49 18 104.5t49 104.5l87 -43q-31 -68 -31 -119q0 -58 54.5 -82t178.5 -24q91 0 144.5 6.5t79 22.5t31.5 46q4 18 9.5 52t8.5 57l108 -14q-5 -37 -9 -71t-4 -42q0 -25 24.5 -37t79.5 -12l16 -10v-125l-16 -10q-57 0 -97.5 16t-64.5 58q-43 -50 -123.5 -67
t-186.5 -17q-184 0 -270 50t-86 156zM492 419l-72 72l-72 -72l-76 76l76 76l72 -72l72 72l76 -76zM420 564l-74 74l74 74l74 -74z" />
    <glyph glyph-name="uniFE9B" unicode="&#x62b;" horiz-adv-x="290" arabic-form="initial" 
d="M-16 135l16 10q61 0 98.5 14.5t37.5 34.5t-9 50.5t-23.5 65.5t-33.5 67l115 63q20 -33 34 -76t22 -85t8 -74q0 -108 -62 -156.5t-187 -48.5l-16 10v125zM195 502l-72 72l-72 -72l-76 76l76 76l72 -72l72 72l76 -76zM123 647l-74 74l74 74l74 -74z" />
    <glyph glyph-name="uniFE9C" unicode="&#x62b;" horiz-adv-x="339" arabic-form="medial" 
d="M-16 135l16 10q59 0 85.5 13t32.5 41q5 23 10.5 58.5t9.5 63.5l109 -14q-5 -37 -9 -71t-4 -42q0 -25 24.5 -37t80.5 -12l16 -10v-125l-16 -10q-62 0 -100 17t-61 53q-26 -35 -69.5 -52.5t-108.5 -17.5l-16 10v125zM268 389l-72 72l-72 -72l-76 76l76 76l72 -72l72 72
l76 -76zM196 534l-74 74l74 74l74 -74z" />
    <glyph glyph-name="uniFE9E" unicode="&#x62c;" horiz-adv-x="641" arabic-form="final" 
d="M473 187v16q-142 -43 -217.5 -102.5t-75.5 -127.5q0 -60 54.5 -96t149.5 -36q47 0 94 9t79 23l40 -87q-43 -43 -106.5 -67t-134.5 -24q-87 0 -153 31t-103 86t-37 127q0 103 76.5 188.5t216.5 134.5q-21 4 -39 8q-46 13 -76 18t-47 5q-23 0 -40 -8t-37 -30l-72 55
q32 57 70 87t93 30q33 0 73.5 -8.5t108.5 -28.5q52 -14 91 -21.5t67 -7.5h24v-133q-17 -4 -33 -8v-7q0 -34 22 -51t80 -17l16 -10v-125l-16 -10q-76 0 -122 46t-46 141zM389 85l78 -79l-78 -78l-78 78z" />
    <glyph glyph-name="uniFE9F" unicode="&#x62c;" horiz-adv-x="577" arabic-form="initial" 
d="M527 204q-30 -9 -56 -20t-60 -30t-88 -52q-68 -42 -119.5 -64t-99 -30t-104.5 -8l-16 10v125l16 10q70 0 130 12.5t126 42.5q27 11 51 20.5t47 16.5q-17 6 -39 15q-97 41 -142 41q-22 0 -39.5 -8t-36.5 -30l-72 55q32 59 70 88t92 29q21 0 41.5 -4t51 -15t77.5 -31
q38 -16 62.5 -25t43 -12.5t37.5 -3.5h27v-132zM261 -206l-80 80l80 80l80 -80z" />
    <glyph glyph-name="uniFEA0" unicode="&#x62c;" horiz-adv-x="591" arabic-form="medial" 
d="M527 204q-20 -6 -36 -12q5 -28 28 -37.5t72 -9.5l16 -10v-125l-16 -10q-150 0 -157 166q-21 -11 -47.5 -26.5t-63.5 -37.5q-68 -42 -119.5 -64t-99 -30t-104.5 -8l-16 10v125l16 10q70 0 130 12.5t126 42.5q27 11 51 20.5t47 16.5q-17 6 -39 15q-97 41 -142 41
q-22 0 -39.5 -8t-36.5 -30l-72 55q32 59 70 88t92 29q21 0 41.5 -4t51 -15t77.5 -31q38 -16 62.5 -25t43 -12.5t37.5 -3.5h27v-132zM261 -206l-80 80l80 80l80 -80z" />
    <glyph glyph-name="uniFEA2" unicode="&#x62d;" horiz-adv-x="641" arabic-form="final" 
d="M473 187v16q-142 -43 -217.5 -102.5t-75.5 -127.5q0 -60 54.5 -96t149.5 -36q47 0 94 9t79 23l40 -87q-43 -43 -106.5 -67t-134.5 -24q-87 0 -153 31t-103 86t-37 127q0 103 76.5 188.5t216.5 134.5q-21 4 -39 8q-46 13 -76 18t-47 5q-23 0 -40 -8t-37 -30l-72 55
q32 57 70 87t93 30q33 0 73.5 -8.5t108.5 -28.5q52 -14 91 -21.5t67 -7.5h24v-133q-17 -4 -33 -8v-7q0 -34 22 -51t80 -17l16 -10v-125l-16 -10q-76 0 -122 46t-46 141z" />
    <glyph glyph-name="uniFEA3" unicode="&#x62d;" horiz-adv-x="577" arabic-form="initial" 
d="M527 204q-30 -9 -56 -20t-60 -30t-88 -52q-68 -42 -119.5 -64t-99 -30t-104.5 -8l-16 10v125l16 10q70 0 130 12.5t126 42.5q27 11 51 20.5t47 16.5q-17 6 -39 15q-97 41 -142 41q-22 0 -39.5 -8t-36.5 -30l-72 55q32 59 70 88t92 29q21 0 41.5 -4t51 -15t77.5 -31
q38 -16 62.5 -25t43 -12.5t37.5 -3.5h27v-132z" />
    <glyph glyph-name="uniFEA4" unicode="&#x62d;" horiz-adv-x="591" arabic-form="medial" 
d="M527 204q-20 -6 -36 -12q5 -28 28 -37.5t72 -9.5l16 -10v-125l-16 -10q-150 0 -157 166q-21 -11 -47.5 -26.5t-63.5 -37.5q-68 -42 -119.5 -64t-99 -30t-104.5 -8l-16 10v125l16 10q70 0 130 12.5t126 42.5q27 11 51 20.5t47 16.5q-17 6 -39 15q-97 41 -142 41
q-22 0 -39.5 -8t-36.5 -30l-72 55q32 59 70 88t92 29q21 0 41.5 -4t51 -15t77.5 -31q38 -16 62.5 -25t43 -12.5t37.5 -3.5h27v-132z" />
    <glyph glyph-name="uniFEA6" unicode="&#x62e;" horiz-adv-x="641" arabic-form="final" 
d="M473 187v16q-142 -43 -217.5 -102.5t-75.5 -127.5q0 -60 54.5 -96t149.5 -36q47 0 94 9t79 23l40 -87q-43 -43 -106.5 -67t-134.5 -24q-87 0 -153 31t-103 86t-37 127q0 103 76.5 188.5t216.5 134.5q-21 4 -39 8q-46 13 -76 18t-47 5q-23 0 -40 -8t-37 -30l-72 55
q32 57 70 87t93 30q33 0 73.5 -8.5t108.5 -28.5q52 -14 91 -21.5t67 -7.5h24v-133q-17 -4 -33 -8v-7q0 -34 22 -51t80 -17l16 -10v-125l-16 -10q-76 0 -122 46t-46 141zM315 486l-80 81l80 80l80 -80z" />
    <glyph glyph-name="uniFEA7" unicode="&#x62e;" horiz-adv-x="577" arabic-form="initial" 
d="M527 204q-30 -9 -56 -20t-60 -30t-88 -52q-68 -42 -119.5 -64t-99 -30t-104.5 -8l-16 10v125l16 10q70 0 130 12.5t126 42.5q27 11 51 20.5t47 16.5q-17 6 -39 15q-97 41 -142 41q-22 0 -39.5 -8t-36.5 -30l-72 55q32 59 70 88t92 29q21 0 41.5 -4t51 -15t77.5 -31
q38 -16 62.5 -25t43 -12.5t37.5 -3.5h27v-132zM292 486l-80 81l80 80l80 -80z" />
    <glyph glyph-name="uniFEA8" unicode="&#x62e;" horiz-adv-x="591" arabic-form="medial" 
d="M527 204q-20 -6 -36 -12q5 -28 28 -37.5t72 -9.5l16 -10v-125l-16 -10q-150 0 -157 166q-21 -11 -47.5 -26.5t-63.5 -37.5q-68 -42 -119.5 -64t-99 -30t-104.5 -8l-16 10v125l16 10q70 0 130 12.5t126 42.5q27 11 51 20.5t47 16.5q-17 6 -39 15q-97 41 -142 41
q-22 0 -39.5 -8t-36.5 -30l-72 55q32 59 70 88t92 29q21 0 41.5 -4t51 -15t77.5 -31q38 -16 62.5 -25t43 -12.5t37.5 -3.5h27v-132zM292 486l-80 81l80 80l80 -80z" />
    <glyph glyph-name="uniFEAA" unicode="&#x62f;" horiz-adv-x="503" arabic-form="final" 
d="M22 149q35 -5 72 -8.5t68 -3.5q78 0 130 16q-21 44 -46.5 107.5t-55.5 148.5l121 58q24 -73 49 -144.5t46 -120.5q15 -35 34.5 -46t62.5 -11l16 -10v-125l-16 -10q-88 0 -137 41q-59 -49 -188 -49q-33 0 -67.5 2.5t-57.5 6.5z" />
    <glyph glyph-name="uniFEAC" unicode="&#x630;" horiz-adv-x="503" arabic-form="final" 
d="M22 149q35 -5 72 -8.5t68 -3.5q78 0 130 16q-21 44 -46.5 107.5t-55.5 148.5l121 58q24 -73 49 -144.5t46 -120.5q15 -35 34.5 -46t62.5 -11l16 -10v-125l-16 -10q-88 0 -137 41q-59 -49 -188 -49q-33 0 -67.5 2.5t-57.5 6.5zM238 524l-80 81l80 80l80 -80z" />
    <glyph glyph-name="uniFEAE" unicode="&#x631;" horiz-adv-x="436" arabic-form="final" 
d="M239 104q-15 28 -29.5 67t-34.5 98l118 55q14 -41 24.5 -72.5t17.5 -48.5q13 -34 34.5 -46t66.5 -12l16 -10v-125l-16 -10q-32 0 -58.5 5.5t-50.5 18.5q-30 -82 -100.5 -140.5t-176.5 -92.5l-72 124q111 41 179 91.5t82 97.5z" />
    <glyph glyph-name="uniFEB0" unicode="&#x632;" horiz-adv-x="436" arabic-form="final" 
d="M239 104q-15 28 -29.5 67t-34.5 98l118 55q14 -41 24.5 -72.5t17.5 -48.5q13 -34 34.5 -46t66.5 -12l16 -10v-125l-16 -10q-32 0 -58.5 5.5t-50.5 18.5q-30 -82 -100.5 -140.5t-176.5 -92.5l-72 124q111 41 179 91.5t82 97.5zM214 382l-80 81l80 80l80 -80z" />
    <glyph glyph-name="uniFEB2" unicode="&#x633;" horiz-adv-x="1175" arabic-form="final" 
d="M38 40q0 59 22 121t61 113l82 -51q-47 -81 -47 -150q0 -60 41 -96t116 -36q70 0 115 27.5t45 65.5q0 35 -16.5 90t-51.5 131l114 63q16 -33 29 -71.5t22 -77.5q27 -30 72 -30q32 0 53 13.5t28 47.5q3 15 6.5 37t7 44.5t5.5 36.5l108 -14q-7 -47 -10 -76.5t-3 -37.5
q0 -51 67 -51q62 0 72 52q4 19 8.5 58.5t7.5 85.5l111 -11q-1 -43 -4.5 -81t-8.5 -69q23 -29 85 -29l16 -10v-125l-16 -10q-49 0 -83 11t-57 34q-51 -45 -140 -45q-80 0 -125 46q-49 -46 -130 -46q-30 0 -55 7q-9 -63 -45 -111t-94.5 -74.5t-132.5 -26.5q-129 0 -202 65.5
t-73 179.5z" />
    <glyph glyph-name="uniFEB3" unicode="&#x633;" horiz-adv-x="778" arabic-form="initial" 
d="M-16 135l16 10q34 0 53 10.5t33 40.5t32 90l106 -24l-9.5 -47.5t-9.5 -42.5q28 -33 74 -33q32 0 53 13.5t28 47.5q3 15 6.5 37.5l7 45t5.5 35.5l108 -14q-7 -47 -10 -76.5t-3 -37.5q0 -24 19 -37.5t51 -13.5q34 0 57.5 14t23.5 33q0 33 -18 86t-48 105l114 63
q21 -36 35.5 -79t22 -84t7.5 -72q0 -94 -46.5 -149.5t-153.5 -55.5q-85 0 -130 46q-49 -46 -131 -46q-39 0 -71 12.5t-53 39.5q-25 -29 -61.5 -40.5t-91.5 -11.5l-16 10v125z" />
    <glyph glyph-name="uniFEB4" unicode="&#x633;" horiz-adv-x="812" arabic-form="medial" 
d="M-16 135l16 10q34 0 53 10.5t33 40.5t32 90l106 -24q-5 -26 -9.5 -48.5t-9.5 -41.5q27 -33 74 -33q32 0 53 13.5t28 47.5q3 15 6.5 37t7 44.5t5.5 36.5l108 -14q-7 -47 -10 -76.5t-3 -37.5q0 -51 67 -51q63 0 73 52q4 19 8 58.5t7 85.5l112 -11q-2 -43 -5.5 -81t-8.5 -69
q23 -29 85 -29l16 -10v-125l-16 -10q-49 0 -83 11t-57 34q-50 -45 -140 -45q-80 0 -125 46q-49 -46 -130 -46q-38 0 -70.5 12.5t-53.5 39.5q-25 -30 -61.5 -41t-91.5 -11l-16 10v125z" />
    <glyph glyph-name="uniFEB6" unicode="&#x634;" horiz-adv-x="1175" arabic-form="final" 
d="M38 40q0 59 22 121t61 113l82 -51q-47 -81 -47 -150q0 -60 41 -96t116 -36q70 0 115 27.5t45 65.5q0 35 -16.5 90t-51.5 131l114 63q16 -33 29 -71.5t22 -77.5q27 -30 72 -30q32 0 53 13.5t28 47.5q3 15 6.5 37t7 44.5t5.5 36.5l108 -14q-7 -47 -10 -76.5t-3 -37.5
q0 -51 67 -51q62 0 72 52q4 19 8.5 58.5t7.5 85.5l111 -11q-1 -43 -4.5 -81t-8.5 -69q23 -29 85 -29l16 -10v-125l-16 -10q-49 0 -83 11t-57 34q-51 -45 -140 -45q-80 0 -125 46q-49 -46 -130 -46q-30 0 -55 7q-9 -63 -45 -111t-94.5 -74.5t-132.5 -26.5q-129 0 -202 65.5
t-73 179.5zM883 423l-72 72l-72 -72l-76 76l76 76l72 -72l72 72l76 -76zM811 568l-74 74l74 74l74 -74z" />
    <glyph glyph-name="uniFEB7" unicode="&#x634;" horiz-adv-x="778" arabic-form="initial" 
d="M-16 135l16 10q34 0 53 10.5t33 40.5t32 90l106 -24l-9.5 -47.5t-9.5 -42.5q28 -33 74 -33q32 0 53 13.5t28 47.5q3 15 6.5 37.5l7 45t5.5 35.5l108 -14q-7 -47 -10 -76.5t-3 -37.5q0 -24 19 -37.5t51 -13.5q34 0 57.5 14t23.5 33q0 33 -18 86t-48 105l114 63
q21 -36 35.5 -79t22 -84t7.5 -72q0 -94 -46.5 -149.5t-153.5 -55.5q-85 0 -130 46q-49 -46 -131 -46q-39 0 -71 12.5t-53 39.5q-25 -29 -61.5 -40.5t-91.5 -11.5l-16 10v125zM471 420l-72 72l-72 -72l-76 76l76 76l72 -72l72 72l76 -76zM399 565l-74 74l74 74l74 -74z" />
    <glyph glyph-name="uniFEB8" unicode="&#x634;" horiz-adv-x="812" arabic-form="medial" 
d="M-16 135l16 10q34 0 53 10.5t33 40.5t32 90l106 -24q-5 -26 -9.5 -48.5t-9.5 -41.5q27 -33 74 -33q32 0 53 13.5t28 47.5q3 15 6.5 37t7 44.5t5.5 36.5l108 -14q-7 -47 -10 -76.5t-3 -37.5q0 -51 67 -51q63 0 73 52q4 19 8 58.5t7 85.5l112 -11q-2 -43 -5.5 -81t-8.5 -69
q23 -29 85 -29l16 -10v-125l-16 -10q-49 0 -83 11t-57 34q-50 -45 -140 -45q-80 0 -125 46q-49 -46 -130 -46q-38 0 -70.5 12.5t-53.5 39.5q-25 -30 -61.5 -41t-91.5 -11l-16 10v125zM510 420l-72 72l-72 -72l-76 76l76 76l72 -72l72 72l76 -76zM438 565l-74 74l74 74
l74 -74z" />
    <glyph glyph-name="uniFEBA" unicode="&#x635;" horiz-adv-x="1159" arabic-form="final" 
d="M38 40q0 59 21.5 121t61.5 113l82 -51q-47 -81 -47 -150q0 -60 41 -96t116 -36q46 0 82 12.5t57 34t21 46.5q0 35 -16.5 90t-51.5 131l114 63l13 -28q23 -53 48 -84.5t58 -48.5q68 143 139 212.5t144 69.5q52 0 93.5 -30t66 -81t24.5 -115q0 -29 -6 -55q21 -13 60 -13
l16 -10v-125l-16 -10q-86 0 -137 48q-84 -58 -242 -58q-119 0 -193 50q-1 -73 -36 -128t-96.5 -86t-141.5 -31q-129 0 -202 65.5t-73 179.5zM976.5 274.5q-24.5 24.5 -58.5 24.5q-44 0 -90.5 -43t-90.5 -123q26 -2 60 -2q98 0 151 22t53 64q0 33 -24.5 57.5z" />
    <glyph glyph-name="uniFEBB" unicode="&#x635;" horiz-adv-x="773" arabic-form="initial" 
d="M-16 135l16 10q34 1 53 11t33 40t32 90l106 -24q-5 -27 -10 -50t-10 -43q28 -13 65 -22q71 152 143 222t144 70q52 0 93.5 -30t66.5 -81t25 -115q0 -107 -83.5 -165t-241.5 -58q-180 0 -263 63q-24 -30 -61 -41.5t-92 -11.5l-16 10v125zM611.5 274.5
q-24.5 24.5 -57.5 24.5q-43 0 -89.5 -42.5t-92.5 -123.5q29 -2 60 -2q99 0 151.5 22t52.5 64q0 33 -24.5 57.5z" />
    <glyph glyph-name="uniFEBC" unicode="&#x635;" horiz-adv-x="795" arabic-form="medial" 
d="M-16 135l16 10q34 1 53 11t33 40t32 90l106 -24q-5 -27 -10 -50t-10 -43q28 -13 65 -22q71 152 143 222t144 70q52 0 93.5 -30t66.5 -81t25 -115q0 -29 -6 -55q21 -13 60 -13l16 -10v-125l-16 -10q-41 0 -76 12t-61 36q-84 -58 -242 -58q-180 0 -263 63
q-24 -30 -61 -41.5t-92 -11.5l-16 10v125zM611.5 274.5q-24.5 24.5 -57.5 24.5q-43 0 -89.5 -42.5t-92.5 -123.5q29 -2 60 -2q99 0 151.5 22t52.5 64q0 33 -24.5 57.5z" />
    <glyph glyph-name="uniFEBE" unicode="&#x636;" horiz-adv-x="1159" arabic-form="final" 
d="M38 40q0 59 21.5 121t61.5 113l82 -51q-47 -81 -47 -150q0 -60 41 -96t116 -36q46 0 82 12.5t57 34t21 46.5q0 35 -16.5 90t-51.5 131l114 63l13 -28q23 -53 48 -84.5t58 -48.5q68 143 139 212.5t144 69.5q52 0 93.5 -30t66 -81t24.5 -115q0 -29 -6 -55q21 -13 60 -13
l16 -10v-125l-16 -10q-86 0 -137 48q-84 -58 -242 -58q-119 0 -193 50q-1 -73 -36 -128t-96.5 -86t-141.5 -31q-129 0 -202 65.5t-73 179.5zM976.5 274.5q-24.5 24.5 -58.5 24.5q-44 0 -90.5 -43t-90.5 -123q26 -2 60 -2q98 0 151 22t53 64q0 33 -24.5 57.5zM895 508l-80 81
l80 80l80 -80z" />
    <glyph glyph-name="uniFEBF" unicode="&#x636;" horiz-adv-x="773" arabic-form="initial" 
d="M-16 135l16 10q34 1 53 11t33 40t32 90l106 -24q-5 -27 -10 -50t-10 -43q28 -13 65 -22q71 152 143 222t144 70q52 0 93.5 -30t66.5 -81t25 -115q0 -107 -83.5 -165t-241.5 -58q-180 0 -263 63q-24 -30 -61 -41.5t-92 -11.5l-16 10v125zM611.5 274.5
q-24.5 24.5 -57.5 24.5q-43 0 -89.5 -42.5t-92.5 -123.5q29 -2 60 -2q99 0 151.5 22t52.5 64q0 33 -24.5 57.5zM530 508l-80 81l80 80l80 -80z" />
    <glyph glyph-name="uniFEC0" unicode="&#x636;" horiz-adv-x="795" arabic-form="medial" 
d="M-16 135l16 10q34 1 53 11t33 40t32 90l106 -24q-5 -27 -10 -50t-10 -43q28 -13 65 -22q71 152 143 222t144 70q52 0 93.5 -30t66.5 -81t25 -115q0 -29 -6 -55q21 -13 60 -13l16 -10v-125l-16 -10q-41 0 -76 12t-61 36q-84 -58 -242 -58q-180 0 -263 63
q-24 -30 -61 -41.5t-92 -11.5l-16 10v125zM611.5 274.5q-24.5 24.5 -57.5 24.5q-43 0 -89.5 -42.5t-92.5 -123.5q29 -2 60 -2q99 0 151.5 22t52.5 64q0 33 -24.5 57.5zM530 508l-80 81l80 80l80 -80z" />
    <glyph glyph-name="uniFEC2" unicode="&#x637;" horiz-adv-x="701" arabic-form="final" 
d="M647 213q0 -29 -6 -55q22 -13 60 -13l16 -10v-125l-16 -10q-41 0 -76.5 12t-60.5 36q-85 -58 -247 -58q-69 0 -141 3t-131 8l-30 141q79 -7 152 -9l-10 505l123 21l-9 -380q45 81 95 120.5t96 39.5q52 0 93.5 -30t66.5 -81t25 -115zM542 217q0 32 -24 57t-58 25
q-43 0 -90 -42.5t-93 -125.5h53q108 0 160 22.5t52 63.5z" />
    <glyph glyph-name="uniFEC3" unicode="&#x637;" horiz-adv-x="574" arabic-form="initial" 
d="M-16 135l16 10h63l-10 493l123 21l-9 -379q45 80 94.5 119.5t97.5 39.5q51 0 92.5 -30t66 -81t24.5 -115q0 -106 -85 -159.5t-251 -53.5h-206l-16 10v125zM414 274.5q-24 24.5 -58 24.5q-42 0 -88 -40.5t-90 -119.5h28q128 0 180 19.5t52 60.5q0 31 -24 55.5z" />
    <glyph glyph-name="uniFEC4" unicode="&#x637;" horiz-adv-x="597" arabic-form="medial" 
d="M-16 135l16 10h63l-10 493l123 21l-9 -380q45 80 94.5 120t97.5 40q51 0 92.5 -30t66 -81t24.5 -115q0 -29 -6 -54q22 -14 61 -14l16 -10v-125l-16 -10q-42 0 -79 13t-63 39q-84 -52 -249 -52h-206l-16 10v125zM414 274.5q-24 24.5 -58 24.5q-87 0 -177 -160h27
q128 0 180 19.5t52 60.5q0 31 -24 55.5z" />
    <glyph glyph-name="uniFEC6" unicode="&#x638;" horiz-adv-x="701" arabic-form="final" 
d="M647 213q0 -29 -6 -55q22 -13 60 -13l16 -10v-125l-16 -10q-41 0 -76.5 12t-60.5 36q-85 -58 -247 -58q-69 0 -141 3t-131 8l-30 141q79 -7 152 -9l-10 505l123 21l-9 -380q45 81 95 120.5t96 39.5q52 0 93.5 -30t66.5 -81t25 -115zM542 217q0 32 -24 57t-58 25
q-43 0 -90 -42.5t-93 -125.5h53q108 0 160 22.5t52 63.5zM454 508l-80 81l80 80l80 -80z" />
    <glyph glyph-name="uniFEC7" unicode="&#x638;" horiz-adv-x="574" arabic-form="initial" 
d="M-16 135l16 10h63l-10 493l123 21l-9 -379q45 80 94.5 119.5t97.5 39.5q51 0 92.5 -30t66 -81t24.5 -115q0 -106 -85 -159.5t-251 -53.5h-206l-16 10v125zM414 274.5q-24 24.5 -58 24.5q-42 0 -88 -40.5t-90 -119.5h28q128 0 180 19.5t52 60.5q0 31 -24 55.5zM350 508
l-80 81l80 80l80 -80z" />
    <glyph glyph-name="uniFEC8" unicode="&#x638;" horiz-adv-x="597" arabic-form="medial" 
d="M-16 135l16 10h63l-10 493l123 21l-9 -380q45 80 94.5 120t97.5 40q51 0 92.5 -30t66 -81t24.5 -115q0 -29 -6 -54q22 -14 61 -14l16 -10v-125l-16 -10q-42 0 -79 13t-63 39q-84 -52 -249 -52h-206l-16 10v125zM414 274.5q-24 24.5 -58 24.5q-87 0 -177 -160h27
q128 0 180 19.5t52 60.5q0 31 -24 55.5zM350 508l-80 81l80 80l80 -80z" />
    <glyph glyph-name="uniFECA" unicode="&#x639;" horiz-adv-x="533" arabic-form="final" 
d="M141 -64q0 -44 41.5 -69.5t117.5 -25.5q45 0 92.5 8t80.5 22l39 -86q-43 -43 -102 -66.5t-136 -23.5q-76 0 -134.5 26t-91.5 73.5t-33 111.5q0 67 41 117t126 103q-36 31 -67 70.5t-57 81.5l20 105q38 26 90.5 41t111.5 15q108 0 159.5 -35t51.5 -92q0 -45 -27.5 -86.5
t-64.5 -73.5q52 -7 134 -7l16 -10v-125l-16 -10q-76 0 -135.5 14t-126.5 51q-65 -34 -97.5 -63.5t-32.5 -65.5zM361.5 305.5q-31.5 9.5 -81.5 9.5q-31 0 -61 -5.5t-52 -17.5q50 -75 116 -107q25 15 50.5 32.5t42.5 34.5t17 30q0 14 -31.5 23.5z" />
    <glyph glyph-name="uniFECB" unicode="&#x639;" horiz-adv-x="480" arabic-form="initial" 
d="M-16 135l16 10q41 0 82 2q-27 43 -27 102q0 55 26 100t69 71.5t94 26.5q44 0 83.5 -22t67.5 -62l-54 -70q-43 23 -87 23q-40 0 -68 -19.5t-28 -51.5q0 -27 24 -48t82 -31q42 6 84.5 14t85.5 17l-20 -132q-53 -20 -122 -35t-144 -22.5t-148 -7.5l-16 10v125z" />
    <glyph glyph-name="uniFECC" unicode="&#x639;" horiz-adv-x="517" arabic-form="medial" 
d="M-16 135l16 10q35 0 70 2t67 6q-27 28 -50.5 59.5t-43.5 65.5l19 105q38 26 91 41t111 15q108 0 159.5 -35t51.5 -92q0 -41 -26.5 -82t-65.5 -78q51 -7 134 -7l16 -10v-125l-16 -10q-74 0 -132 13t-123 48q-56 -32 -117.5 -46.5t-144.5 -14.5l-16 10v125zM345.5 305.5
q-31.5 9.5 -81.5 9.5q-32 0 -62 -5.5t-51 -17.5q26 -39 54 -65.5t63 -42.5q30 13 55 33t39.5 38t14.5 27q0 14 -31.5 23.5z" />
    <glyph glyph-name="uniFECE" unicode="&#x63a;" horiz-adv-x="533" arabic-form="final" 
d="M141 -64q0 -44 41.5 -69.5t117.5 -25.5q45 0 92.5 8t80.5 22l39 -86q-43 -43 -102 -66.5t-136 -23.5q-76 0 -134.5 26t-91.5 73.5t-33 111.5q0 67 41 117t126 103q-36 31 -67 70.5t-57 81.5l20 105q38 26 90.5 41t111.5 15q108 0 159.5 -35t51.5 -92q0 -45 -27.5 -86.5
t-64.5 -73.5q52 -7 134 -7l16 -10v-125l-16 -10q-76 0 -135.5 14t-126.5 51q-65 -34 -97.5 -63.5t-32.5 -65.5zM361.5 305.5q-31.5 9.5 -81.5 9.5q-31 0 -61 -5.5t-52 -17.5q50 -75 116 -107q25 15 50.5 32.5t42.5 34.5t17 30q0 14 -31.5 23.5zM274 498l-80 81l80 80l80 -80
z" />
    <glyph glyph-name="uniFECF" unicode="&#x63a;" horiz-adv-x="480" arabic-form="initial" 
d="M-16 135l16 10q41 0 82 2q-27 43 -27 102q0 55 26 100t69 71.5t94 26.5q44 0 83.5 -22t67.5 -62l-54 -70q-43 23 -87 23q-40 0 -68 -19.5t-28 -51.5q0 -27 24 -48t82 -31q42 6 84.5 14t85.5 17l-20 -132q-53 -20 -122 -35t-144 -22.5t-148 -7.5l-16 10v125zM243 505
l-80 81l80 80l80 -80z" />
    <glyph glyph-name="uniFED0" unicode="&#x63a;" horiz-adv-x="517" arabic-form="medial" 
d="M-16 135l16 10q35 0 70 2t67 6q-27 28 -50.5 59.5t-43.5 65.5l19 105q38 26 91 41t111 15q108 0 159.5 -35t51.5 -92q0 -41 -26.5 -82t-65.5 -78q51 -7 134 -7l16 -10v-125l-16 -10q-74 0 -132 13t-123 48q-56 -32 -117.5 -46.5t-144.5 -14.5l-16 10v125zM345.5 305.5
q-31.5 9.5 -81.5 9.5q-32 0 -62 -5.5t-51 -17.5q26 -39 54 -65.5t63 -42.5q30 13 55 33t39.5 38t14.5 27q0 14 -31.5 23.5zM261 498l-80 81l80 80l80 -80z" />
    <glyph glyph-name="uniFED2" unicode="&#x641;" horiz-adv-x="835" arabic-form="final" 
d="M37 196q0 49 18 104.5t49 104.5l83 -41q-16 -34 -23.5 -65t-7.5 -56q0 -37 22.5 -60.5t74.5 -34.5t140 -11q20 0 39 1t37 2q-31 44 -31 103q0 57 24 103t63.5 72.5t86.5 26.5q46 0 85.5 -26.5t64 -72.5t24.5 -103q0 -29 -7.5 -53t-20.5 -44q19 0 38.5 -0.5t38.5 -0.5
l16 -10v-125l-16 -10q-51 0 -107.5 8t-112.5 29q-50 -21 -108 -34t-117 -13q-182 0 -267.5 51t-85.5 155zM536 242q0 -25 19 -46t58 -33q75 26 75 79q0 33 -22 54.5t-54 21.5q-33 0 -54.5 -21.5t-21.5 -54.5zM613 503l-80 81l80 80l80 -80z" />
    <glyph glyph-name="uniFED3" unicode="&#x641;" horiz-adv-x="431" arabic-form="initial" 
d="M33 362q0 60 23.5 107t61.5 74t82 27q89 0 134 -90.5t45 -255.5q0 -82 -18.5 -129t-70.5 -68q-41 -16 -100 -21.5t-158 -5.5h-32l-16 10v125l16 10h32q93 0 147 3.5t77.5 12.5t23.5 24v43q-44 -28 -93 -28q-73 0 -113.5 43.5t-40.5 118.5zM125 367q0 -28 18 -43.5
t52 -15.5q47 0 80 20q-7 65 -27 90.5t-51 25.5t-51.5 -22.5t-20.5 -54.5zM199 629l-80 81l80 80l80 -80z" />
    <glyph glyph-name="uniFED4" unicode="&#x641;" horiz-adv-x="444" arabic-form="medial" 
d="M-16 135l16 10q18 0 37 0.5t37 1.5q-27 41 -27 96q0 57 24 103t64 72.5t87 26.5q46 0 85.5 -26.5t63.5 -72.5t24 -103q0 -30 -7 -53.5t-20 -43.5q23 0 43.5 -0.5t32.5 -0.5l16 -10v-125l-16 -10q-54 0 -110.5 8.5t-111.5 30.5q-56 -23 -113 -31t-109 -8l-16 10v125z
M145 242q0 -52 75 -78q34 9 55.5 28t21.5 50q0 33 -21.5 54.5t-53.5 21.5q-33 0 -55 -21.5t-22 -54.5zM222 503l-80 81l80 80l80 -80z" />
    <glyph glyph-name="uniFED6" unicode="&#x642;" horiz-adv-x="670" arabic-form="final" 
d="M38 40q0 59 21.5 120.5t61.5 113.5l82 -51q-22 -37 -34.5 -76t-12.5 -76q0 -63 49 -100.5t139 -37.5q54 0 97 8.5t68 23.5t25 35v18h-38q-103 0 -159.5 47t-56.5 139q0 61 23.5 108.5t62 74.5t82.5 27q155 0 180 -269h42l16 -10v-125l-16 -10h-39q-10 -98 -84 -151.5
t-212 -53.5q-94 0 -160.5 31t-101.5 86t-35 128zM371 208q0 -68 122 -68h38q-7 79 -30 113.5t-57 34.5q-32 0 -52.5 -23t-20.5 -57zM445 545l-72 -73l-78 78l78 78l72 -73l72 73l78 -78l-78 -78z" />
    <glyph glyph-name="uniFED7" unicode="&#x642;" horiz-adv-x="431" arabic-form="initial" 
d="M33 362q0 60 23.5 107t61.5 74t82 27q89 0 134 -90.5t45 -255.5q0 -82 -18.5 -129t-70.5 -68q-41 -16 -100 -21.5t-158 -5.5h-32l-16 10v125l16 10h32q93 0 147 3.5t77.5 12.5t23.5 24v43q-44 -28 -93 -28q-73 0 -113.5 43.5t-40.5 118.5zM125 367q0 -28 18 -43.5
t52 -15.5q47 0 80 20q-7 65 -27 90.5t-51 25.5t-51.5 -22.5t-20.5 -54.5zM199 702l-72 -73l-78 78l78 78l72 -73l72 73l78 -78l-78 -78z" />
    <glyph glyph-name="uniFED8" unicode="&#x642;" horiz-adv-x="444" arabic-form="medial" 
d="M-16 135l16 10q18 0 37 0.5t37 1.5q-27 41 -27 96q0 57 24 103t64 72.5t87 26.5q46 0 85.5 -26.5t63.5 -72.5t24 -103q0 -30 -7 -53.5t-20 -43.5q23 0 43.5 -0.5t32.5 -0.5l16 -10v-125l-16 -10q-54 0 -110.5 8.5t-111.5 30.5q-56 -23 -113 -31t-109 -8l-16 10v125z
M145 242q0 -52 75 -78q34 9 55.5 28t21.5 50q0 33 -21.5 54.5t-53.5 21.5q-33 0 -55 -21.5t-22 -54.5zM222 576l-72 -73l-78 78l78 78l72 -73l72 73l78 -78l-78 -78z" />
    <glyph glyph-name="uniFEDA" unicode="&#x643;" horiz-adv-x="761" arabic-form="final" 
d="M37 196q0 49 18 104.5t49 104.5l87 -43q-31 -68 -31 -119q0 -56 48 -81t139 -25q57 0 102.5 7.5t72 20.5t25.5 30l-5 443l123 21l-5 -474q14 -22 37.5 -31t63.5 -9l16 -10v-125l-16 -10q-107 0 -157 61q-39 -36 -105 -53.5t-152 -17.5q-310 0 -310 206zM338.5 505.5
q39.5 25.5 101.5 28.5l-5 -64q-28 -2 -44.5 -7.5t-16.5 -12.5q0 -6 20 -15l14 -7q41 -18 41 -44q0 -36 -45.5 -61t-117.5 -30l-14 63q45 5 71 11t26 13q0 2 -3.5 4t-16.5 7l-12 5q-38 17 -38 51q0 33 39.5 58.5z" />
    <glyph glyph-name="uniFEDB" unicode="&#x643;" horiz-adv-x="447" arabic-form="initial" 
d="M-16 135l16 10q54 0 105.5 6t84.5 15.5t33 20.5q0 32 -47 86.5t-142 118.5l19 115q93 47 183 86.5t172 71.5l25 -126q-65 -23 -124.5 -46t-133.5 -55q78 -69 119.5 -136t41.5 -130q0 -81 -79 -126.5t-257 -45.5l-16 10v125z" />
    <glyph glyph-name="uniFEDC" unicode="&#x643;" horiz-adv-x="425" arabic-form="medial" 
d="M-16 135l16 10q93 0 155 22l-121 225l19 115q92 46 182 86t173 72l24 -126q-70 -24 -134 -49.5t-147 -61.5l112 -209q17 -30 35.5 -46t48.5 -22t78 -6l16 -10v-125l-16 -10q-69 0 -114 13.5t-78 42.5q-38 -27 -92.5 -41.5t-140.5 -14.5l-16 10v125z" />
    <glyph glyph-name="uniFEDE" unicode="&#x644;" horiz-adv-x="670" arabic-form="final" 
d="M38 40q0 59 22 121t61 113l82 -51q-47 -81 -47 -150q0 -60 38 -96t112 -36q68 0 110 27t41 66l-6 604l122 21l-5 -474q17 -24 41.5 -32t60.5 -8l16 -10v-125l-16 -10q-31 0 -57 4.5t-48 15.5q-9 -102 -77 -163.5t-185 -61.5q-125 0 -195 65t-70 180z" />
    <glyph glyph-name="uniFEDF" unicode="&#x644;" horiz-adv-x="270" arabic-form="initial" 
d="M-16 135l16 10q41 0 70.5 10t29.5 35l-5 448l123 21l-5 -465q-1 -71 -31 -114t-78 -61.5t-104 -18.5l-16 10v125z" />
    <glyph glyph-name="uniFEE0" unicode="&#x644;" horiz-adv-x="314" arabic-form="medial" 
d="M330 10l-16 -10q-52 0 -88.5 13t-63.5 43q-27 -29 -69.5 -42.5t-92.5 -13.5l-16 10v125l16 10q44 0 72 11t28 32l-5 450l123 21l-5 -474q14 -22 37.5 -31t63.5 -9l16 -10v-125z" />
    <glyph glyph-name="uniFEE2" unicode="&#x645;" horiz-adv-x="584" arabic-form="final" 
d="M154 -46l-1 -324l-110 -10l-7 329q-1 43 5.5 85.5t27.5 94.5t63 123q24 39 55 76.5t69 61.5t81 24q49 0 89 -31.5t64 -84.5t24 -117v-15q22 -21 70 -21l16 -10v-125l-16 -10q-71 0 -120 35q-45 -43 -124 -43q-99 0 -169 77q-11 -30 -14 -55t-3 -60zM391 254.5
q-24 28.5 -59 28.5q-22 0 -42 -15.5t-36.5 -38t-28.5 -44.5q22 -28 53 -44t68 -16q32 0 50.5 17t18.5 46q0 38 -24 66.5z" />
    <glyph glyph-name="uniFEE3" unicode="&#x645;" horiz-adv-x="533" arabic-form="initial" 
d="M-16 135l16 10q40 0 62.5 11.5t44.5 48.5l55 93q33 56 69 86t87 30q48 0 88 -32t64 -84.5t24 -116.5q0 -94 -45 -141.5t-128 -47.5q-101 0 -171 78q-30 -41 -67 -55.5t-83 -14.5l-16 10v125zM372 254q-24 29 -59 29q-26 0 -46.5 -18.5t-40.5 -57.5l-15 -29
q22 -24 51 -38.5t64 -14.5q32 0 51 17t19 46q0 37 -24 66z" />
    <glyph glyph-name="uniFEE4" unicode="&#x645;" horiz-adv-x="564" arabic-form="medial" 
d="M-16 135l16 10q40 0 62.5 11.5t44.5 48.5l55 93q33 56 69 86t87 30q48 0 88 -32t64 -84.5t24 -116.5v-14q22 -22 70 -22l16 -10v-125l-16 -10q-71 0 -120 35q-44 -43 -123 -43q-101 0 -171 78q-30 -41 -67 -55.5t-83 -14.5l-16 10v125zM372 254q-24 29 -59 29
q-26 0 -46.5 -18.5t-40.5 -57.5l-15 -29q22 -24 51 -38.5t64 -14.5q32 0 51 17t19 46q0 37 -24 66z" />
    <glyph glyph-name="uniFEE6" unicode="&#x646;" horiz-adv-x="657" arabic-form="final" 
d="M38 40q0 59 22 121t61 113l82 -51q-47 -81 -47 -150q0 -60 41 -96t116 -36q70 0 115 27.5t45 65.5q0 35 -16.5 90t-51.5 131l114 63q15 -32 28 -70t22 -76q23 -27 88 -27l16 -10v-125l-16 -10q-38 0 -72 11q-8 -65 -44 -113.5t-94.5 -75.5t-133.5 -27q-129 0 -202 65.5
t-73 179.5zM307 327l-80 81l80 80l80 -80z" />
    <glyph glyph-name="uniFEE7" unicode="&#x646;" horiz-adv-x="290" arabic-form="initial" 
d="M-16 135l16 10q61 0 98.5 14.5t37.5 34.5t-9 50.5t-23.5 65.5t-33.5 67l115 63q20 -33 34 -76t22 -85t8 -74q0 -108 -62 -156.5t-187 -48.5l-16 10v125zM123 502l-80 81l80 80l80 -80z" />
    <glyph glyph-name="uniFEE8" unicode="&#x646;" horiz-adv-x="339" arabic-form="medial" 
d="M-16 135l16 10q59 0 85.5 13t32.5 41q5 23 10.5 58.5t9.5 63.5l109 -14q-5 -37 -9 -71t-4 -42q0 -25 24.5 -37t80.5 -12l16 -10v-125l-16 -10q-62 0 -100 17t-61 53q-26 -35 -69.5 -52.5t-108.5 -17.5l-16 10v125zM196 389l-80 81l80 80l80 -80z" />
    <glyph glyph-name="uniFEEA" unicode="&#x647;" horiz-adv-x="479" arabic-form="final" 
d="M29 234q0 84 67.5 145t194.5 93l-1 56l117 21l-5 -344q0 -33 17.5 -46.5t59.5 -13.5l16 -10v-125l-16 -10q-146 0 -175 102q-46 -28 -105 -28q-48 0 -86.5 19.5t-61 55.5t-22.5 85zM132 260q0 -26 26 -38t63 -12q39 0 75 12l-3 126q-45 -5 -81.5 -17.5t-58 -30.5
t-21.5 -40z" />
    <glyph glyph-name="uniFEEB" unicode="&#x647;" horiz-adv-x="586" arabic-form="initial" 
d="M-16 135l16 10q41 0 69 1q-25 42 -25 87q0 50 19 91.5t51.5 67.5t72.5 30l40 98q99 -31 171.5 -83.5t112 -120.5t39.5 -147q0 -85 -52 -127t-140 -42q-43 0 -84 11.5t-76 28.5q-47 -19 -98 -29.5t-100 -10.5l-16 10v125zM271 239q0 29 -20 49t-50 20q-28 0 -49 -20
t-21 -49q0 -48 69 -74q38 12 54.5 30.5t16.5 43.5zM335 144h8q51 0 79.5 8.5t28.5 21.5q0 42 -31.5 85t-86.5 78q25 -46 25 -102q0 -26 -6 -49t-17 -42z" />
    <glyph glyph-name="uniFEEC" unicode="&#x647;" horiz-adv-x="453" arabic-form="medial" 
d="M-16 135l16 10h9h39q9 60 31 114t51.5 96t62.5 66t65 24q36 0 69 -30t53.5 -78.5t20.5 -102.5q0 -49 -21 -89h73l16 -10v-125l-16 -10h-42q8 -16 11 -31.5t3 -30.5q0 -67 -47.5 -108.5t-124.5 -41.5q-80 0 -136.5 55.5t-71.5 157.5q-18 -1 -37 -1h-8l-16 10v125zM306 231
q0 30 -17.5 54t-38.5 24q-22 0 -43 -21.5t-38 -58t-25 -80.5q79 6 120.5 24t41.5 58zM326 -30q0 52 -74 70q-47 -19 -106 -29q11 -39 37.5 -65.5t73.5 -26.5q32 0 50.5 14.5t18.5 36.5z" />
    <glyph glyph-name="uniFEEE" unicode="&#x648;" horiz-adv-x="455" arabic-form="final" 
d="M52 198q0 63 22.5 111.5t62.5 76.5t90 28q52 0 92 -33.5t63.5 -94t26.5 -141.5h46l16 -10v-125l-16 -10h-65q-29 -88 -103.5 -138.5t-190.5 -70.5l-53 125q104 18 163.5 40.5t84.5 60.5h-33q-97 0 -151.5 49t-54.5 132zM147 202q0 -67 123 -67h42q-4 72 -27 111t-63 39
q-33 0 -54 -23.5t-21 -59.5z" />
    <glyph glyph-name="uniFEF0" unicode="&#x649;" horiz-adv-x="662" arabic-form="final" 
d="M601 -14q0 -46 -37.5 -90t-104 -72.5t-154.5 -28.5q-80 0 -140 29.5t-93.5 84.5t-33.5 131q0 59 22 121t61 113l82 -51q-47 -81 -47 -150q0 -60 44 -96t123 -36q80 0 129 26t49 57q0 8 -7 20.5t-26.5 37.5t-57.5 70l93 79q40 -52 75.5 -69t83.5 -17l16 -10v-125l-16 -10
q-15 0 -30.5 2.5t-33.5 8.5q3 -13 3 -25z" />
    <glyph glyph-name="uniFEF2" unicode="&#x64a;" horiz-adv-x="662" arabic-form="final" 
d="M601 -14q0 -46 -37.5 -90t-104 -72.5t-154.5 -28.5q-80 0 -140 29.5t-93.5 84.5t-33.5 131q0 59 22 121t61 113l82 -51q-47 -81 -47 -150q0 -60 44 -96t123 -36q80 0 129 26t49 57q0 8 -7 20.5t-26.5 37.5t-57.5 70l93 79q40 -52 75.5 -69t83.5 -17l16 -10v-125l-16 -10
q-15 0 -30.5 2.5t-33.5 8.5q3 -13 3 -25zM305 -353l-72 -73l-78 78l78 77l72 -72l72 72l78 -77l-78 -78z" />
    <glyph glyph-name="uniFEF3" unicode="&#x64a;" horiz-adv-x="290" arabic-form="initial" 
d="M-16 135l16 10q61 0 98.5 14.5t37.5 34.5t-9 50.5t-23.5 65.5t-33.5 67l115 63q20 -33 34 -76t22 -85t8 -74q0 -108 -62 -156.5t-187 -48.5l-16 10v125zM121 -148l-72 -73l-78 78l78 77l72 -72l72 72l78 -77l-78 -78z" />
    <glyph glyph-name="uniFEF4" unicode="&#x64a;" horiz-adv-x="339" arabic-form="medial" 
d="M-16 135l16 10q59 0 85.5 13t32.5 41q5 23 10.5 58.5t9.5 63.5l109 -14q-5 -37 -9 -71t-4 -42q0 -25 24.5 -37t80.5 -12l16 -10v-125l-16 -10q-62 0 -100 17t-61 53q-26 -35 -69.5 -52.5t-108.5 -17.5l-16 10v125zM145 -148l-72 -73l-78 78l78 77l72 -72l72 72l78 -77
l-78 -78z" />
    <glyph glyph-name=".notdef" horiz-adv-x="500" 
d="M50 750h400v-750h-400v750zM400 700h-300v-650h300v650z" />
    <glyph glyph-name="uni0000" horiz-adv-x="0" 
 />
    <glyph glyph-name="uni0000" horiz-adv-x="0" 
 />
    <glyph glyph-name="uni000D" unicode="&#xd;" horiz-adv-x="181" 
 />
    <glyph glyph-name="space" unicode=" " horiz-adv-x="173" 
 />
    <glyph glyph-name="exclam" unicode="!" horiz-adv-x="279" 
d="M60 667h159l-10 -452h-139zM63 150h153v-150h-153v150z" />
    <glyph glyph-name="quotedbl" unicode="&#x22;" horiz-adv-x="487" 
d="M71 667h138l-13 -259h-112zM279 667h138l-13 -259h-112z" />
    <glyph glyph-name="numbersign" unicode="#" horiz-adv-x="701" 
d="M40 257h113l31 114h-96v109h125l40 148h124l-40 -148h116l40 148h124l-40 -148h83v-109h-113l-30 -114h96v-109h-126l-40 -148h-123l40 148h-116l-40 -148h-124l40 148h-84v109zM424 371h-116l-31 -114h116z" />
    <glyph glyph-name="dollar" unicode="$" 
d="M236 -8q-63 6 -118.5 30t-94.5 65l74 104q65 -59 139 -73v151q-183 47 -183 185q0 74 49.5 122.5t133.5 59.5v93h95v-93q103 -13 167 -77l-77 -96q-36 36 -90 48v-138q186 -48 186 -184q0 -76 -50.5 -127.5t-135.5 -65.5v-95h-95v91zM375 183q0 19 -10 32.5t-34 24.5
v-118q44 16 44 61zM236 510q-45 -13 -45 -52q0 -18 10.5 -31t34.5 -24v107z" />
    <glyph glyph-name="percent" unicode="%" horiz-adv-x="865" 
d="M20 460q0 83 43 131.5t117 48.5t117 -48.5t43 -131.5t-43 -132t-117 -49q-73 0 -116.5 49t-43.5 132zM121 459q0 -46 15.5 -71.5t43.5 -25.5q29 0 44 25.5t15 72.5t-15 72t-44 25q-28 0 -43.5 -25.5t-15.5 -72.5zM298 0h-128l400 630h125zM525 171q0 83 43 131.5
t117 48.5t117 -48.5t43 -131.5t-43 -132t-117 -49q-73 0 -116.5 49t-43.5 132zM626 170q0 -46 15.5 -71.5t43.5 -25.5q29 0 44 25.5t15 72.5t-15 72t-44 25q-28 0 -43.5 -25.5t-15.5 -72.5z" />
    <glyph glyph-name="ampersand" unicode="&#x26;" horiz-adv-x="675" 
d="M31 173q0 60 34 110.5t98 87.5q-56 68 -56 138q0 51 27 90.5t74.5 62t107.5 22.5q65 0 114 -28t77 -83l-97 -72q-19 32 -40 46.5t-48 14.5q-32 0 -51.5 -17t-19.5 -45q0 -16 9.5 -33.5t33.5 -44.5l161 -174l93 103l93 -87l-100 -109l143 -155h-184l-56 61
q-48 -41 -92.5 -59t-98.5 -18q-66 0 -116 23.5t-78 66.5t-28 99zM173 194q0 -40 25.5 -63.5t68.5 -23.5q25 0 48 10t48 33l-129 142q-33 -24 -47 -47t-14 -51z" />
    <glyph glyph-name="quotesingle" unicode="'" horiz-adv-x="280" 
d="M71 667h138l-13 -259h-112z" />
    <glyph glyph-name="parenleft" unicode="(" horiz-adv-x="331" 
d="M58 307q0 107 26 209t76 190h141q-46 -92 -70 -193.5t-24 -205.5q0 -103 24 -205t70 -194h-141q-50 88 -76 190t-26 209z" />
    <glyph glyph-name="parenright" unicode=")" horiz-adv-x="331" 
d="M124 307q0 104 -23.5 205.5t-70.5 193.5h141q50 -88 76 -190t26 -209t-26 -209t-76 -190h-141q47 92 70.5 194t23.5 205z" />
    <glyph glyph-name="asterisk" unicode="*" horiz-adv-x="473" 
d="M182 714h110l-23 -140l110 89l54 -94l-133 -51l133 -51l-54 -94l-110 89l23 -140h-110l22 140l-110 -89l-54 94l134 51l-134 51l54 94l110 -89z" />
    <glyph glyph-name="plus" unicode="+" 
d="M214 264h-150v114h150v147h117v-147h150v-114h-150v-147h-117v147z" />
    <glyph glyph-name="comma" unicode="," horiz-adv-x="284" 
d="M74 155h145q0 -97 -34.5 -182t-97.5 -144l-82 58q35 56 52 121.5t17 146.5z" />
    <glyph glyph-name="hyphen" unicode="-" horiz-adv-x="447" 
d="M64 347h319v-134h-319v134z" />
    <glyph glyph-name="period" unicode="." horiz-adv-x="284" 
d="M60 155h163v-155h-163v155z" />
    <glyph glyph-name="slash" unicode="/" horiz-adv-x="450" 
d="M282 683h149l-263 -699h-148z" />
    <glyph glyph-name="zero" unicode="0" 
d="M21 315q0 155 67 243t184 88q79 0 135 -40t86.5 -114t30.5 -177t-30.5 -177t-86.5 -114t-135 -40q-117 0 -184 88t-67 243zM168 315q0 -97 27 -148t77 -51q51 0 78 51t27 148t-27 148t-78 51q-50 0 -77 -50.5t-27 -148.5z" />
    <glyph glyph-name="one" unicode="1" 
d="M87 124h136v352l-108 -61l-59 111l190 104h117v-506h125v-124h-401v124z" />
    <glyph glyph-name="two" unicode="2" 
d="M58 60q0 53 15 94t51 80t98 83l37 26q50 36 69 60t19 50q0 32 -23 50.5t-64 18.5q-72 0 -126 -70l-90 77q36 56 96 86.5t135 30.5q98 0 157.5 -50.5t59.5 -134.5q0 -57 -32.5 -103t-108.5 -100l-33 -23q-52 -38 -74 -61.5t-26 -49.5h277v-124h-437v60z" />
    <glyph glyph-name="three" unicode="3" 
d="M352 204q0 41 -26.5 64.5t-70.5 23.5q-34 0 -67 -13l-36 74l157 155h-231v122h400v-111l-144 -141q73 -4 118 -54t45 -127q0 -63 -31.5 -111t-88 -75t-132.5 -27q-130 0 -219 84l77 101q68 -58 139 -58q50 0 80 25t30 68z" />
    <glyph glyph-name="four" unicode="4" 
d="M25 223l281 407h143v-396h70v-118h-70v-116h-133v116h-291v107zM321 467l-164 -237h164v237z" />
    <glyph glyph-name="five" unicode="5" 
d="M347 207q0 44 -30 69t-83 25q-46 0 -90 -23l-63 46l49 306h339v-120h-241l-21 -118q31 11 72 11q96 0 153.5 -54.5t57.5 -145.5q0 -65 -30.5 -114.5t-86 -77t-129.5 -27.5q-125 0 -214 83l75 100q65 -56 130 -56q51 0 81.5 26t30.5 70z" />
    <glyph glyph-name="six" unicode="6" 
d="M41 297q0 108 35.5 186t100.5 120.5t155 42.5q86 0 159 -42l-55 -110q-22 14 -48 21.5t-55 7.5q-63 0 -102 -40.5t-46 -113.5q60 42 131 42q89 0 142 -55t53 -146q0 -67 -28.5 -118t-79.5 -79.5t-118 -28.5q-114 0 -179 83.5t-65 229.5zM353 279q-24 24 -68 24
q-52 0 -101 -43q3 -73 29 -111t74 -38q41 0 65.5 27t24.5 73q0 44 -24 68z" />
    <glyph glyph-name="seven" unicode="7" 
d="M56 630h453v-117q-49 -81 -94 -171t-80.5 -178t-58.5 -164h-149q18 59 45 126.5t59 135.5t65.5 131t66.5 114h-307v123z" />
    <glyph glyph-name="eight" unicode="8" 
d="M26 173q0 55 31.5 99t86.5 67q-89 49 -89 141q0 75 60 120.5t159 45.5q98 0 157 -44.5t59 -118.5q0 -46 -25 -83.5t-70 -59.5q60 -25 92 -67.5t32 -98.5q0 -55 -31.5 -98t-87.5 -67.5t-128 -24.5t-127.5 24t-87 67t-31.5 98zM169 184q0 -38 28.5 -62.5t74.5 -24.5
t73.5 24.5t27.5 64.5q0 33 -23.5 57.5t-77.5 46.5q-49 -15 -76 -42.5t-27 -63.5zM188 473q0 -61 82 -92q40 13 63 36.5t23 54.5q0 32 -23 52t-61 20q-37 0 -60.5 -19.5t-23.5 -51.5z" />
    <glyph glyph-name="nine" unicode="9" 
d="M34 420q0 67 28.5 118t79.5 79.5t118 28.5q114 0 179 -83.5t65 -229.5q0 -108 -35.5 -186t-100.5 -120.5t-155 -42.5q-43 0 -82.5 10t-76.5 32l55 110q46 -29 103 -29q63 0 101.5 40.5t46.5 112.5q-59 -41 -131 -41q-89 0 -142 55t-53 146zM168 418q0 -43 24.5 -67
t67.5 -24q52 0 101 43q-3 73 -29 111t-74 38q-41 0 -65.5 -27t-24.5 -74z" />
    <glyph glyph-name="colon" unicode=":" horiz-adv-x="284" 
d="M64 470h155v-156h-155v156zM64 155h155v-155h-155v155z" />
    <glyph glyph-name="semicolon" unicode=";" horiz-adv-x="284" 
d="M74 155h145q0 -97 -34.5 -182t-97.5 -144l-82 58q35 56 52 121.5t17 146.5zM68 470h155v-156h-155v156z" />
    <glyph glyph-name="less" unicode="&#x3c;" 
d="M56 371l373 187l47 -104l-275 -133l275 -133l-47 -104l-373 187v100z" />
    <glyph glyph-name="equal" unicode="=" 
d="M64 280h417v-114h-417v114zM64 476h417v-114h-417v114z" />
    <glyph glyph-name="greater" unicode="&#x3e;" 
d="M489 271l-373 -187l-47 104l275 133l-275 133l47 104l373 -187v-100z" />
    <glyph glyph-name="question" unicode="?" horiz-adv-x="532" 
d="M172 237q0 53 18 89.5t62 70.5l20 14q39 29 53 47t14 39q0 28 -22.5 44.5t-63.5 16.5q-78 0 -140 -64l-83 89q91 100 234 100q102 0 163 -48.5t61 -130.5q0 -46 -23 -83.5t-76 -77.5l-20 -15q-34 -26 -47.5 -46.5t-13.5 -48.5v-18h-136v22zM164 150h153v-150h-153v150z
" />
    <glyph glyph-name="at" unicode="@" horiz-adv-x="964" 
d="M41 268q0 129 56.5 223t159 145.5t239.5 51.5q133 0 228.5 -48.5t147.5 -139.5t52 -217q0 -91 -27 -158t-75.5 -104t-115.5 -37q-98 0 -127 74q-54 -73 -159 -73q-76 0 -119.5 40t-43.5 107q0 77 58 120.5t160 43.5q38 0 84 -7v10q0 75 -100 75q-75 0 -129 -39l-54 86
q42 32 92.5 47.5t108.5 15.5q106 0 164 -48.5t58 -137.5v-163q0 -52 35 -52q38 0 61.5 53t23.5 135q0 155 -86 240.5t-241 85.5q-105 0 -183 -39.5t-121 -114t-43 -178.5q0 -69 22.5 -129.5t70.5 -110.5l-76 -58q-60 54 -90.5 131.5t-30.5 169.5zM412.5 98
q18.5 -17 51.5 -17q41 0 68 23.5t27 57.5v48q-36 5 -64 5q-101 0 -101 -70q0 -30 18.5 -47z" />
    <glyph glyph-name="A" unicode="A" horiz-adv-x="685" 
d="M167 0h-157l248 667h170l247 -667h-163l-51 153h-244zM339 524l-85 -258h170z" />
    <glyph glyph-name="B" unicode="B" horiz-adv-x="621" 
d="M65 667h265q105 0 162.5 -42t57.5 -119q0 -56 -29 -97t-76 -55q67 -12 104.5 -55.5t37.5 -109.5q0 -90 -70 -139.5t-197 -49.5h-255v667zM433 200q0 90 -118 90h-103v-176h103q118 0 118 86zM310 553h-98v-157h91q46 0 72 22.5t26 59.5q0 75 -91 75z" />
    <glyph glyph-name="C" unicode="C" horiz-adv-x="679" 
d="M39 333q0 102 44 181t122 124t178 45q86 0 156.5 -34.5t113.5 -96.5l-101 -93q-60 88 -160 88q-57 0 -101 -27t-68.5 -74.5t-24.5 -111.5q0 -63 25 -111.5t69 -75.5t102 -27q97 0 166 89l98 -89q-46 -66 -116.5 -101t-158.5 -35q-100 0 -178 44.5t-122 123.5t-44 181z
" />
    <glyph glyph-name="D" unicode="D" horiz-adv-x="719" 
d="M65 667h252q114 0 195 -39.5t124.5 -113.5t43.5 -179t-43.5 -180t-125 -115t-195.5 -40h-251v667zM521 334q0 95 -55 147t-155 52h-94v-399h95q99 0 154 53t55 147z" />
    <glyph glyph-name="E" unicode="E" horiz-adv-x="578" 
d="M65 667h455v-130h-305v-136h230v-120h-230v-151h329v-130h-479v667z" />
    <glyph glyph-name="F" unicode="F" 
d="M65 667h455v-133h-303v-153h231v-126h-231v-255h-152v667z" />
    <glyph glyph-name="G" unicode="G" horiz-adv-x="723" 
d="M403 368h263v-290q-49 -45 -118.5 -69.5t-149.5 -24.5q-107 0 -188 43.5t-126 121.5t-45 182t44.5 183t123.5 124t181 45q83 0 153 -30.5t116 -86.5l-91 -100q-62 83 -168 83q-60 0 -105.5 -27t-71 -75.5t-25.5 -114.5q0 -97 56 -155.5t150 -58.5q68 0 122 29v102h-121
v119z" />
    <glyph glyph-name="H" unicode="H" horiz-adv-x="719" 
d="M502 277h-285v-277h-152v667h152v-257h285v257h151v-667h-151v277z" />
    <glyph glyph-name="I" unicode="I" horiz-adv-x="282" 
d="M65 667h152v-667h-152v667z" />
    <glyph glyph-name="J" unicode="J" horiz-adv-x="505" 
d="M298 228v439h152v-446q0 -111 -61.5 -174t-171.5 -63q-126 0 -209 88l87 103q45 -54 107 -54q46 0 71 28t25 79z" />
    <glyph glyph-name="K" unicode="K" horiz-adv-x="668" 
d="M65 667h152v-284l230 284h174l-231 -268l269 -399h-181l-190 297l-71 -83v-214h-152v667z" />
    <glyph glyph-name="L" unicode="L" horiz-adv-x="554" 
d="M65 667h152v-534h317v-133h-469v667z" />
    <glyph glyph-name="M" unicode="M" horiz-adv-x="808" 
d="M587 434l-148 -261h-77l-147 258l-16 -431h-145l31 667h145l175 -309l174 309h144l31 -667h-152z" />
    <glyph glyph-name="N" unicode="N" horiz-adv-x="712" 
d="M65 667h138l296 -426v426h148v-667h-138l-296 427v-427h-148v667z" />
    <glyph glyph-name="O" unicode="O" horiz-adv-x="781" 
d="M39 334q0 75 26.5 138.5t74 111t111.5 73.5t139 26q76 0 140 -26t111.5 -73.5t74 -111.5t26.5 -139t-26 -138.5t-73.5 -111t-111.5 -73.5t-140 -26t-140 26t-111.5 73.5t-74 111.5t-26.5 139zM198 334q0 -62 25 -110.5t68.5 -76t99.5 -27.5t99.5 27.5t68.5 75.5t25 110
t-25 110.5t-68.5 76t-99.5 27.5t-99.5 -27.5t-68.5 -75.5t-25 -110z" />
    <glyph glyph-name="P" unicode="P" horiz-adv-x="598" 
d="M65 667h258q112 0 175.5 -57t63.5 -157t-63.5 -159t-172.5 -59h-111v-235h-150v667zM411 450q0 46 -27 71t-77 25h-92v-190h92q50 0 77 24.5t27 69.5z" />
    <glyph glyph-name="Q" unicode="Q" horiz-adv-x="781" 
d="M39 334q0 75 26.5 138.5t74 111t111.5 73.5t139 26q76 0 140 -26t111.5 -73.5t74 -111.5t26.5 -139q0 -77 -27.5 -142t-76.5 -112l73 -87l-78 -67l-80 95q-36 -17 -77 -26.5t-85 -9.5q-76 0 -140 26t-111.5 73.5t-74 111.5t-26.5 139zM198 329q0 -63 25 -112.5
t68.5 -77.5t99.5 -28q39 0 73 14l-88 104l78 67l90 -106q19 28 29.5 63t10.5 75q0 64 -25 113t-68.5 77.5t-99.5 28.5t-99.5 -28t-68.5 -77t-25 -113z" />
    <glyph glyph-name="R" unicode="R" horiz-adv-x="617" 
d="M65 667h259q111 0 174.5 -56.5t63.5 -154.5q0 -67 -29.5 -116t-82.5 -74l147 -266h-166l-121 241h-96v-241h-149v667zM414 453q0 45 -27.5 69.5t-77.5 24.5h-95v-187h95q50 0 77.5 24.5t27.5 68.5z" />
    <glyph glyph-name="S" unicode="S" horiz-adv-x="590" 
d="M397 186q0 32 -25 52.5t-88 37.5l-41 12q-85 23 -131 69.5t-46 119.5q0 61 30 107.5t84 72.5t126 26q70 0 130.5 -23.5t100.5 -65.5l-79 -99q-65 62 -149 62q-43 0 -67.5 -17.5t-24.5 -49.5q0 -28 23 -45.5t84 -34.5l39 -12q92 -26 140 -76.5t48 -127.5
q0 -63 -32.5 -110.5t-91 -73.5t-136.5 -26q-76 0 -143 26.5t-117 75.5l76 104q88 -80 185 -80q50 0 77.5 20.5t27.5 55.5z" />
    <glyph glyph-name="T" unicode="T" horiz-adv-x="623" 
d="M236 534h-216v133h582v-133h-215v-534h-151v534z" />
    <glyph glyph-name="U" unicode="U" horiz-adv-x="674" 
d="M55 261v406h152v-404q0 -70 33.5 -106t96.5 -36q64 0 97.5 36t33.5 106v404h151v-406q0 -130 -74.5 -203.5t-207.5 -73.5q-132 0 -207 73.5t-75 203.5z" />
    <glyph glyph-name="V" unicode="V" horiz-adv-x="670" 
d="M339 178l164 489h157l-247 -667h-156l-247 667h165z" />
    <glyph glyph-name="W" unicode="W" horiz-adv-x="918" 
d="M271 194l121 456h140l120 -458l98 475h155l-170 -667h-161l-115 433l-115 -433h-161l-170 667h161z" />
    <glyph glyph-name="X" unicode="X" horiz-adv-x="655" 
d="M327 234l-147 -234h-171l228 345l-212 322h173l133 -212l133 212h166l-212 -321l228 -346h-173z" />
    <glyph glyph-name="Y" unicode="Y" horiz-adv-x="646" 
d="M247 276l-236 391h168l148 -271l148 271h160l-236 -390v-277h-152v276z" />
    <glyph glyph-name="Z" unicode="Z" horiz-adv-x="623" 
d="M41 121l344 413h-324v133h514v-121l-348 -413h355v-133h-541v121z" />
    <glyph glyph-name="bracketleft" unicode="[" horiz-adv-x="344" 
d="M73 706h250v-114h-110v-571h110v-114h-250v799z" />
    <glyph glyph-name="backslash" unicode="\" horiz-adv-x="450" 
d="M20 683h148l263 -699h-149z" />
    <glyph glyph-name="bracketright" unicode="]" horiz-adv-x="344" 
d="M22 21h109v571h-109v114h249v-799h-249v114z" />
    <glyph glyph-name="asciicircum" unicode="^" 
d="M273 523l-98 -226h-138l176 370h119l176 -370h-138z" />
    <glyph glyph-name="underscore" unicode="_" horiz-adv-x="500" 
d="M0 -67h500v-131h-500v131z" />
    <glyph glyph-name="grave" unicode="`" horiz-adv-x="299" 
d="M268 540h-119l-120 163h159z" />
    <glyph glyph-name="a" unicode="a" horiz-adv-x="522" 
d="M30 132q0 77 55 121.5t164 44.5q18 0 38.5 -1.5t44.5 -4.5v9q0 73 -101 73q-76 0 -130 -39l-52 91q82 58 200 58q107 0 165 -49t58 -138v-297h-127l-5 51q-23 -31 -61 -48.5t-90 -17.5q-71 0 -115 40t-44 107zM166 149q0 -30 18.5 -45t52.5 -15q41 0 68 21.5t27 55.5v45
q-36 5 -65 5q-49 0 -75 -16t-26 -51z" />
    <glyph glyph-name="b" unicode="b" horiz-adv-x="570" 
d="M53 667h144v-245q23 29 58 45.5t79 16.5q61 0 107.5 -29t72.5 -82t26 -125q0 -82 -35 -141t-97 -90.5t-145 -31.5q-58 0 -114 11.5t-96 30.5v640zM395 239q0 55 -26.5 88t-72.5 33q-43 0 -71 -29.5t-28 -79.5v-134q31 -9 67 -9q62 0 96.5 34.5t34.5 96.5z" />
    <glyph glyph-name="c" unicode="c" horiz-adv-x="491" 
d="M30 233q0 73 34 129.5t92.5 89t132.5 32.5q110 0 183 -77l-76 -92q-40 45 -99 45q-52 0 -86 -34.5t-34 -90.5t34 -91t87 -35q58 0 103 46l74 -92q-72 -78 -189 -78q-74 0 -132 31.5t-91 87.5t-33 129z" />
    <glyph glyph-name="d" unicode="d" horiz-adv-x="570" 
d="M30 220q0 78 31.5 137.5t86 93t123.5 33.5q29 0 53.5 -6.5t47.5 -19.5v209h144v-667h-131l-7 57q-22 -34 -58.5 -53t-84.5 -19q-60 0 -106.5 29.5t-72.5 82.5t-26 123zM175 230q0 -56 27 -88.5t73 -32.5q44 0 70.5 30t26.5 79v120q-37 22 -78 22q-55 0 -87 -34.5
t-32 -95.5z" />
    <glyph glyph-name="e" unicode="e" horiz-adv-x="546" 
d="M40 231q0 74 31 131t85.5 89.5t125.5 32.5t124 -32.5t83 -91.5t30 -137v-32h-338q8 -44 41.5 -68.5t88.5 -24.5q76 0 139 48l56 -91q-36 -33 -90.5 -51.5t-116.5 -18.5q-78 0 -136.5 30t-90.5 85.5t-32 130.5zM352 343q-26 23 -66 23q-42 0 -69.5 -23.5t-34.5 -64.5h203
q-7 42 -33 65z" />
    <glyph glyph-name="f" unicode="f" horiz-adv-x="354" 
d="M12 469h76v12q0 95 51.5 148t142.5 53q78 0 138 -45l-51 -93q-29 26 -67 26q-70 0 -70 -80v-21h113v-112h-113v-357h-144v357h-76v112z" />
    <glyph glyph-name="g" unicode="g" horiz-adv-x="569" 
d="M376 19v45q-46 -68 -141 -68q-61 0 -107.5 28.5t-72 80.5t-25.5 121q0 79 35 137t99.5 89.5t152.5 31.5q50 0 102.5 -10.5t95.5 -28.5v-415q0 -121 -65 -183t-193 -62q-123 0 -205 60l55 99q67 -45 140 -45q129 0 129 120zM371 220v132q-34 8 -62 8q-62 0 -98.5 -34
t-36.5 -96q0 -54 27.5 -86t73.5 -32q44 0 70 29.5t26 78.5z" />
    <glyph glyph-name="h" unicode="h" horiz-adv-x="564" 
d="M53 667h144v-259q23 36 61 56t88 20q79 0 123.5 -50.5t44.5 -139.5v-294h-144v264q0 92 -79 92q-43 0 -68.5 -30.5t-25.5 -83.5v-242h-144v667z" />
    <glyph glyph-name="i" unicode="i" horiz-adv-x="251" 
d="M53 469h144v-469h-144v469zM51 663h149v-125h-149v125z" />
    <glyph glyph-name="j" unicode="j" horiz-adv-x="251" 
d="M53 -11v481h144v-480q0 -204 -177 -204q-39 0 -70 9.5t-59 27.5l49 100q29 -19 56 -19q30 0 43.5 20t13.5 65zM51 663h149v-125h-149v125z" />
    <glyph glyph-name="k" unicode="k" horiz-adv-x="540" 
d="M197 0h-144v667h144v-361l157 163h161l-177 -176l195 -293h-163l-127 208l-46 -45v-163z" />
    <glyph glyph-name="l" unicode="l" horiz-adv-x="251" 
d="M53 667h144v-667h-144v667z" />
    <glyph glyph-name="m" unicode="m" horiz-adv-x="863" 
d="M53 469h132l7 -63q21 37 59.5 57.5t88.5 20.5q102 0 139 -83q24 42 65 62.5t94 20.5q82 0 128.5 -50.5t46.5 -140.5v-293h-144v264q0 92 -74 92q-41 0 -65 -30.5t-24 -83.5v-242h-144v264q0 92 -75 92q-41 0 -65.5 -30.5t-24.5 -83.5v-242h-144v469z" />
    <glyph glyph-name="n" unicode="n" horiz-adv-x="564" 
d="M53 469h132l7 -61q22 35 62 55.5t90 20.5q80 0 125 -50.5t45 -139.5v-294h-144v264q0 92 -79 92q-43 0 -68.5 -30.5t-25.5 -83.5v-242h-144v469z" />
    <glyph glyph-name="o" unicode="o" horiz-adv-x="573" 
d="M30 235q0 72 33.5 128.5t91.5 88.5t131 32q74 0 132 -32t91.5 -88t33.5 -129q0 -72 -33.5 -128.5t-91.5 -89t-132 -32.5q-73 0 -131 32t-91.5 88.5t-33.5 129.5zM174 234q0 -56 31.5 -90.5t80.5 -34.5q50 0 81.5 34.5t31.5 91.5q0 56 -31 90.5t-81 34.5t-81.5 -34.5
t-31.5 -91.5z" />
    <glyph glyph-name="p" unicode="p" horiz-adv-x="570" 
d="M53 469h132l8 -53q46 68 143 68q61 0 107 -29.5t71.5 -82t25.5 -123.5q0 -77 -30.5 -137t-84 -93.5t-122.5 -33.5q-29 0 -55.5 7t-50.5 19v-211h-144v669zM395 238q0 56 -27 88t-73 32q-43 0 -70.5 -29t-27.5 -79v-122q38 -22 79 -22q55 0 87 35.5t32 96.5z" />
    <glyph glyph-name="q" unicode="q" horiz-adv-x="570" 
d="M372 48q-22 -30 -57.5 -46.5t-81.5 -16.5q-61 0 -106.5 28.5t-71 81.5t-25.5 124q0 83 35.5 142t100.5 91t153 32q52 0 104.5 -10.5t92.5 -28.5v-645h-144v248zM175 229q0 -55 27.5 -87.5t72.5 -32.5q44 0 70.5 29.5t26.5 78.5v136q-33 7 -63 7q-61 0 -97.5 -34.5
t-36.5 -96.5z" />
    <glyph glyph-name="r" unicode="r" horiz-adv-x="391" 
d="M53 469h132l8 -70q23 37 59.5 57t80.5 20q28 0 50 -7l-18 -127q-24 9 -48 9q-52 0 -86 -34.5t-34 -90.5v-226h-144v469z" />
    <glyph glyph-name="s" unicode="s" horiz-adv-x="482" 
d="M311 128q0 21 -17.5 32.5t-68.5 21.5l-33 7q-75 16 -109 53t-34 89q0 71 56 112t153 41q103 0 178 -57l-50 -93q-28 20 -60.5 31.5t-68.5 11.5q-37 0 -54 -8.5t-17 -27.5t14.5 -28.5t55.5 -17.5l39 -8q83 -17 119 -55t36 -90q0 -53 -28.5 -88t-78 -52t-113.5 -17t-118 18
t-89 49l59 98q34 -26 72 -42t84 -16q73 0 73 36z" />
    <glyph glyph-name="t" unicode="t" horiz-adv-x="405" 
d="M14 469h76v153h144v-153h123v-112h-123v-187q0 -70 58 -70q31 0 59 24l50 -93q-28 -22 -62 -34t-76 -12q-173 0 -173 179v193h-76v112z" />
    <glyph glyph-name="u" unicode="u" horiz-adv-x="560" 
d="M50 175v294h144v-262q0 -94 76 -94q43 0 68 32t25 87v237h144v-469h-129l-7 64q-23 -37 -63 -58t-89 -21q-79 0 -124 50.5t-45 139.5z" />
    <glyph glyph-name="v" unicode="v" 
d="M276 158l112 311h151l-201 -469h-131l-201 469h158z" />
    <glyph glyph-name="w" unicode="w" horiz-adv-x="769" 
d="M620 469h140l-161 -469h-125l-89 276l-90 -276h-124l-162 469h146l88 -303l92 303h105l93 -302z" />
    <glyph glyph-name="x" unicode="x" horiz-adv-x="529" 
d="M261 152l-96 -152h-158l175 240l-162 229h163l86 -134l86 134h154l-162 -223l175 -246h-166z" />
    <glyph glyph-name="y" unicode="y" 
d="M388 469h151l-211 -507q-40 -97 -83.5 -137t-109.5 -40q-69 0 -124 37l49 101q35 -22 62 -22q23 0 42 17t37 60l12 30l-207 461h158l117 -316z" />
    <glyph glyph-name="z" unicode="z" horiz-adv-x="496" 
d="M42 100l241 257h-232v112h403v-100l-241 -257h244v-112h-415v100z" />
    <glyph glyph-name="braceleft" unicode="{" horiz-adv-x="331" 
d="M27 346q69 3 75 77l14 162q4 47 15.5 75t33.5 46h143q-42 -42 -48 -117l-15 -173q-8 -89 -81 -109q73 -20 81 -109l13 -167q6 -79 50 -123h-143q-22 18 -33.5 46t-15.5 75l-14 162q-6 74 -75 77v78z" />
    <glyph glyph-name="bar" unicode="|" horiz-adv-x="258" 
d="M65 833h128v-997h-128v997z" />
    <glyph glyph-name="braceright" unicode="}" horiz-adv-x="331" 
d="M303 268q-69 -3 -75 -77l-13 -162q-4 -47 -15.5 -75t-34.5 -46h-142q43 43 49 123l14 167q7 89 81 109q-74 20 -81 109l-15 173q-7 75 -48 117h142q23 -18 34.5 -46t15.5 -75l13 -162q6 -74 75 -77v-78z" />
    <glyph glyph-name="asciitilde" unicode="~" 
d="M35 332q64 74 142 74q21 0 43.5 -6t53.5 -20q45 -22 78 -22q47 0 90 43l69 -87q-64 -75 -143 -75q-20 0 -42.5 6t-53.5 20q-23 11 -42 17t-37 6q-23 0 -45 -10.5t-45 -33.5z" />
    <glyph glyph-name="uni00A0" unicode="&#xa0;" horiz-adv-x="173" 
 />
    <glyph glyph-name="exclamdown" unicode="&#xa1;" horiz-adv-x="279" 
d="M70 255h139l10 -452h-159zM63 470h153v-151h-153v151z" />
    <glyph glyph-name="cent" unicode="&#xa2;" 
d="M270 68q-62 10 -109 43t-72.5 84.5t-25.5 116.5t26 117.5t72.5 86.5t108.5 44v86h90v-85q86 -13 141 -79l-88 -91q-21 30 -53 43v-238q34 12 58 45l87 -94q-55 -66 -145 -79v-84h-90v84zM270 430q-29 -15 -46.5 -45.5t-17.5 -70.5t17.5 -70t46.5 -44v230z" />
    <glyph glyph-name="sterling" unicode="&#xa3;" 
d="M28 365h72v52q0 107 58 168t162 61q110 0 186 -75l-80 -98q-43 44 -92 44q-86 0 -86 -107v-45h174v-93h-174v-148h265v-124h-413v272h-72v93z" />
    <glyph glyph-name="currency" unicode="&#xa4;" 
d="M76 325q0 53 25 98l-65 64l73 75l65 -65q46 26 99 26t99 -26l65 65l73 -75l-65 -64q25 -45 25 -98t-25 -98l65 -65l-73 -74l-65 65q-46 -26 -99 -26t-99 26l-65 -65l-73 74l65 65q-25 45 -25 98zM186 325q0 -38 25 -63.5t62 -25.5q38 0 62.5 25.5t24.5 63.5t-24.5 63
t-62.5 25q-37 0 -62 -25t-25 -63z" />
    <glyph glyph-name="yen" unicode="&#xa5;" 
d="M63 196h134v62h-134v79h94l-157 293h158l117 -272l117 272h154l-157 -293h94v-79h-134v-62h134v-79h-134v-117h-152v117h-134v79z" />
    <glyph glyph-name="brokenbar" unicode="&#xa6;" horiz-adv-x="258" 
d="M65 215h128v-379h-128v379zM65 833h128v-379h-128v379z" />
    <glyph glyph-name="section" unicode="&#xa7;" horiz-adv-x="488" 
d="M62 496q0 53 25 95.5t70.5 67t105.5 24.5q44 0 85.5 -15t75.5 -45l-67 -101q-25 20 -44.5 29t-37.5 9q-31 0 -50 -18t-19 -47q0 -41 50 -74l182 -118l-74 -112l-187 120q-115 75 -115 185zM286 -26q0 40 -50 73l-182 118l75 112l186 -120q115 -75 115 -185
q0 -53 -25 -95.5t-70 -67t-106 -24.5q-44 0 -85 15t-76 45l67 101q48 -38 83 -38q30 0 49 18t19 48z" />
    <glyph glyph-name="dieresis" unicode="&#xa8;" horiz-adv-x="381" 
d="M30 663h129v-115h-129v115zM223 663h128v-115h-128v115z" />
    <glyph glyph-name="copyright" unicode="&#xa9;" horiz-adv-x="810" 
d="M53 334q0 74 26.5 137.5t74.5 111t112.5 74t139.5 26.5t138.5 -26.5t111.5 -74t74.5 -111t26.5 -137.5q0 -75 -26.5 -138.5t-74 -111t-111.5 -74t-139 -26.5t-139.5 26.5t-112.5 74t-74.5 111t-26.5 138.5zM135 334q0 -79 35 -141t96 -97.5t139 -35.5t139 35.5t96 97.5
t35 141t-35 140.5t-96 97t-139 35.5t-139 -35.5t-96 -97t-35 -140.5zM220 331q0 57 25 100.5t69 68.5t100 25q87 0 140 -64l-59 -61q-16 20 -36 31t-45 11q-43 0 -71 -30.5t-28 -78.5t27.5 -78t72.5 -30q52 0 84 43l60 -62q-55 -64 -145 -64q-57 0 -101 24t-68.5 66.5
t-24.5 98.5z" />
    <glyph glyph-name="ordfeminine" unicode="&#xaa;" horiz-adv-x="386" 
d="M38 411q0 50 40.5 79t110.5 29q24 0 48 -4v7q0 46 -64 46q-49 0 -87 -28l-40 64q29 21 65 31.5t76 10.5q71 0 109.5 -31.5t38.5 -90.5v-198h-91l-4 33q-16 -21 -42 -32t-56 -11q-46 0 -75 26t-29 69zM135 421q0 -36 42 -36q26 0 43 13t17 34v28q-20 4 -37 4
q-65 0 -65 -43z" />
    <glyph glyph-name="guillemotleft" unicode="&#xab;" horiz-adv-x="583" 
d="M198 238l104 -198h-139l-110 198l110 198h139zM423 238l104 -198h-139l-110 198l110 198h139z" />
    <glyph glyph-name="logicalnot" unicode="&#xac;" 
d="M357 264h-299v114h416v-248h-117v134z" />
    <glyph glyph-name="uni00AD" unicode="&#xad;" horiz-adv-x="447" 
d="M64 347h319v-134h-319v134z" />
    <glyph glyph-name="registered" unicode="&#xae;" horiz-adv-x="525" 
d="M34 457q0 67 29 118t80.5 79.5t118.5 28.5q68 0 119 -28.5t80 -79.5t29 -118t-29 -118t-80 -79.5t-119 -28.5q-67 0 -118.5 28.5t-80.5 79.5t-29 118zM94 457q0 -78 46 -125t122 -47q77 0 122.5 47t45.5 125t-45.5 125t-122.5 47q-76 0 -122 -47t-46 -125zM237 353h-56
v219h92q38 0 59.5 -19t21.5 -52q0 -46 -37 -65l49 -83h-62l-39 74h-28v-74zM265 527h-28v-56h28q33 0 33 28t-33 28z" />
    <glyph glyph-name="macron" unicode="&#xaf;" horiz-adv-x="358" 
d="M30 655h298v-99h-298v99z" />
    <glyph glyph-name="degree" unicode="&#xb0;" horiz-adv-x="348" 
d="M28 523q0 42 19 74.5t52 51t75 18.5q64 0 105 -41t41 -103q0 -41 -18.5 -73.5t-51.5 -51.5t-75 -19t-75.5 19t-52.5 51.5t-19 73.5zM116 523q0 -27 16.5 -43.5t41.5 -16.5q26 0 42 16.5t16 43.5t-16 43.5t-42 16.5q-25 0 -41.5 -16.5t-16.5 -43.5z" />
    <glyph glyph-name="plusminus" unicode="&#xb1;" 
d="M64 114h417v-114h-417v114zM214 308h-150v114h150v147h117v-147h150v-114h-150v-147h-117v147z" />
    <glyph glyph-name="uni00B2" unicode="&#xb2;" horiz-adv-x="360" 
d="M41 421q0 34 20.5 62.5t66.5 57.5l29 18q29 18 40 30t11 25q0 31 -42 31q-41 0 -73 -39l-62 56q50 68 143 68q62 0 99.5 -28t37.5 -76q0 -31 -18.5 -57.5t-63.5 -55.5l-29 -19q-32 -22 -42 -34h155v-81h-272v42z" />
    <glyph glyph-name="uni00B3" unicode="&#xb3;" horiz-adv-x="360" 
d="M210 493q0 35 -53 35q-11 0 -23.5 -1.5t-23.5 -5.5l-22 46l98 75h-131v78h245v-69l-86 -63q46 -3 73 -29t27 -70q0 -57 -43.5 -88.5t-114.5 -31.5q-80 0 -136 43l47 71q41 -32 83 -32q27 0 43.5 11.5t16.5 30.5z" />
    <glyph glyph-name="acute" unicode="&#xb4;" horiz-adv-x="299" 
d="M110 703h158l-119 -163h-119z" />
    <glyph glyph-name="mu" unicode="&#xb5;" horiz-adv-x="562" 
d="M53 469h144v-263q0 -94 75 -94q43 0 68 31.5t25 86.5v239h144v-469h-131l-7 57q-17 -30 -48 -47.5t-68 -17.5q-36 0 -60 22v-214h-142v669z" />
    <glyph glyph-name="paragraph" unicode="&#xb6;" horiz-adv-x="564" 
d="M366 667h133v-789h-133v789zM31 482q0 90 61 137.5t179 47.5h33v-370h-33q-118 0 -179 47t-61 138zM304 -122h-133v378q19 -5 36 -7.5t39.5 -3.5t57.5 -1v-366z" />
    <glyph glyph-name="periodcentered" unicode="&#xb7;" horiz-adv-x="284" 
d="M60 307h163v-155h-163v155z" />
    <glyph glyph-name="cedilla" unicode="&#xb8;" horiz-adv-x="299" 
d="M173 -147q0 31 -52 31q-16 0 -34 -3t-35 -10l13 65q36 12 77 12q59 0 93 -24t34 -68q0 -48 -39.5 -77t-103.5 -29q-50 0 -96 17l14 69q19 -7 38 -10.5t37 -3.5q54 0 54 31z" />
    <glyph glyph-name="uni00B9" unicode="&#xb9;" horiz-adv-x="360" 
d="M163 620l-76 -39l-38 73l123 66h94v-341h-103v241z" />
    <glyph glyph-name="ordmasculine" unicode="&#xba;" horiz-adv-x="419" 
d="M43 482q0 74 46 119t120 45q75 0 121 -45t46 -119t-46 -119.5t-121 -45.5q-74 0 -120 45.5t-46 119.5zM140 482q0 -36 19 -56t50 -20q32 0 51 20t19 56q0 35 -19 55t-51 20q-31 0 -50 -20t-19 -55z" />
    <glyph glyph-name="guillemotright" unicode="&#xbb;" horiz-adv-x="583" 
d="M160 238l-103 198h138l111 -198l-111 -198h-138zM385 238l-103 198h138l111 -198l-111 -198h-138z" />
    <glyph glyph-name="onequarter" unicode="&#xbc;" horiz-adv-x="865" 
d="M163 530l-76 -39l-38 73l123 66h94v-341h-103v241zM298 0h-128l400 630h125zM528 136l161 205h111v-204h40v-77h-40v-60h-97v60h-175v76zM708 255l-97 -123h97v123z" />
    <glyph glyph-name="onehalf" unicode="&#xbd;" horiz-adv-x="865" 
d="M163 530l-76 -39l-38 73l123 66h94v-341h-103v241zM298 0h-128l400 630h125zM546 42q0 34 20.5 62.5t66.5 57.5l29 18q29 18 40 30t11 25q0 31 -42 31q-41 0 -73 -39l-62 56q50 68 143 68q62 0 99.5 -28t37.5 -76q0 -31 -18.5 -57.5t-63.5 -55.5l-29 -19q-32 -22 -42 -34
h155v-81h-272v42z" />
    <glyph glyph-name="threequarters" unicode="&#xbe;" horiz-adv-x="865" 
d="M210 403q0 35 -53 35q-11 0 -23.5 -1.5t-23.5 -5.5l-22 46l98 75h-131v78h245v-69l-86 -63q46 -3 73 -29t27 -70q0 -57 -43.5 -88.5t-114.5 -31.5q-80 0 -136 43l47 71q41 -32 83 -32q27 0 43.5 11.5t16.5 30.5zM298 0h-128l400 630h125zM528 136l161 205h111v-204h40
v-77h-40v-60h-97v60h-175v76zM708 255l-97 -123h97v123z" />
    <glyph glyph-name="questiondown" unicode="&#xbf;" horiz-adv-x="532" 
d="M29 -35q0 47 23.5 84.5t75.5 77.5l19 15q35 26 48.5 46.5t13.5 48.5v18h135v-23q0 -52 -17.5 -89t-62.5 -70l-19 -15q-40 -28 -54 -46.5t-14 -38.5q0 -28 23 -44.5t63 -16.5q79 0 140 63l84 -89q-93 -99 -235 -99q-102 0 -162.5 48.5t-60.5 129.5zM198 470h154v-151h-154
v151z" />
    <glyph glyph-name="Agrave" unicode="&#xc0;" horiz-adv-x="685" 
d="M167 0h-157l248 667h170l247 -667h-163l-51 153h-244zM339 524l-85 -258h170zM413 725h-122l-136 150h169z" />
    <glyph glyph-name="Aacute" unicode="&#xc1;" horiz-adv-x="685" 
d="M167 0h-157l248 667h170l247 -667h-163l-51 153h-244zM339 524l-85 -258h170zM361 875h169l-136 -150h-122z" />
    <glyph glyph-name="Acircumflex" unicode="&#xc2;" horiz-adv-x="685" 
d="M167 0h-157l248 667h170l247 -667h-163l-51 153h-244zM339 524l-85 -258h170zM343 801l-55 -76h-123l122 150h113l121 -150h-123z" />
    <glyph glyph-name="Atilde" unicode="&#xc3;" horiz-adv-x="685" 
d="M167 0h-157l248 667h170l247 -667h-163l-51 153h-244zM339 524l-85 -258h170zM551 797q-60 -73 -135 -73q-34 0 -78 24q-45 24 -73 24q-21 0 -38 -9.5t-37 -30.5l-56 66q60 73 135 73q34 0 79 -24t73 -24q38 0 75 41z" />
    <glyph glyph-name="Adieresis" unicode="&#xc4;" horiz-adv-x="685" 
d="M167 0h-157l248 667h170l247 -667h-163l-51 153h-244zM339 524l-85 -258h170zM171 858h134v-122h-134v122zM381 858h134v-122h-134v122z" />
    <glyph glyph-name="Aring" unicode="&#xc5;" horiz-adv-x="685" 
d="M208 756q0 56 38 93t97 37t96.5 -37t37.5 -93q0 -31 -12 -57t-33 -43l243 -656h-163l-51 153h-244l-50 -153h-157l243 656q-45 37 -45 100zM339 524l-85 -258h170zM376.5 792.5q-12.5 13.5 -33.5 13.5q-22 0 -34.5 -13.5t-12.5 -36.5t12.5 -37t34.5 -14q21 0 33.5 14
t12.5 37t-12.5 36.5z" />
    <glyph glyph-name="AE" unicode="&#xc6;" horiz-adv-x="992" 
d="M934 537h-305v-136h230v-120h-230v-151h329v-130h-472v148h-228l-83 -148h-165l392 667h532v-130zM486 539h-10l-155 -278h165v278z" />
    <glyph glyph-name="Ccedilla" unicode="&#xc7;" horiz-adv-x="679" 
d="M39 333q0 102 44 181t122 124t178 45q86 0 156.5 -34.5t113.5 -96.5l-101 -93q-60 88 -160 88q-57 0 -101 -27t-68.5 -74.5t-24.5 -111.5q0 -63 25 -111.5t69 -75.5t102 -27q97 0 166 89l98 -89q-46 -66 -116.5 -101t-158.5 -35q-100 0 -178 44.5t-122 123.5t-44 181z
M404 -151q0 28 -50 28q-36 0 -69 -11l14 69q20 6 41.5 9.5t42.5 3.5q59 0 93 -26t34 -71q0 -49 -41 -80t-107 -31q-53 0 -99 18l15 75q40 -14 75 -14q51 0 51 30z" />
    <glyph glyph-name="Egrave" unicode="&#xc8;" horiz-adv-x="578" 
d="M65 667h455v-130h-305v-136h230v-120h-230v-151h329v-130h-479v667zM359 725h-122l-136 150h169z" />
    <glyph glyph-name="Eacute" unicode="&#xc9;" horiz-adv-x="578" 
d="M65 667h455v-130h-305v-136h230v-120h-230v-151h329v-130h-479v667zM307 875h169l-136 -150h-122z" />
    <glyph glyph-name="Ecircumflex" unicode="&#xca;" horiz-adv-x="578" 
d="M65 667h455v-130h-305v-136h230v-120h-230v-151h329v-130h-479v667zM289 801l-55 -76h-123l122 150h113l121 -150h-123z" />
    <glyph glyph-name="Edieresis" unicode="&#xcb;" horiz-adv-x="578" 
d="M65 667h455v-130h-305v-136h230v-120h-230v-151h329v-130h-479v667zM117 858h134v-122h-134v122zM327 858h134v-122h-134v122z" />
    <glyph glyph-name="Igrave" unicode="&#xcc;" horiz-adv-x="282" 
d="M65 667h152v-667h-152v667zM211 725h-122l-136 150h169z" />
    <glyph glyph-name="Iacute" unicode="&#xcd;" horiz-adv-x="282" 
d="M65 667h152v-667h-152v667zM159 875h169l-136 -150h-122z" />
    <glyph glyph-name="Icircumflex" unicode="&#xce;" horiz-adv-x="282" 
d="M65 667h152v-667h-152v667zM141 801l-55 -76h-123l122 150h113l121 -150h-123z" />
    <glyph glyph-name="Idieresis" unicode="&#xcf;" horiz-adv-x="282" 
d="M65 667h152v-667h-152v667zM-31 858h134v-122h-134v122zM179 858h134v-122h-134v122z" />
    <glyph glyph-name="Eth" unicode="&#xd0;" horiz-adv-x="724" 
d="M8 384h65v283h250q113 0 194 -39.5t124.5 -113.5t43.5 -179t-43.5 -180t-124.5 -115t-195 -40h-249v293h-65v91zM526 334q0 95 -55 147t-154 52h-93v-149h129v-91h-129v-159h94q99 0 153.5 53t54.5 147z" />
    <glyph glyph-name="Ntilde" unicode="&#xd1;" horiz-adv-x="712" 
d="M65 667h138l296 -426v426h148v-667h-138l-296 427v-427h-148v667zM564 797q-60 -73 -135 -73q-34 0 -78 24q-45 24 -73 24q-21 0 -38 -9.5t-37 -30.5l-56 66q60 73 135 73q34 0 79 -24t73 -24q38 0 75 41z" />
    <glyph glyph-name="Ograve" unicode="&#xd2;" horiz-adv-x="781" 
d="M39 334q0 75 26.5 138.5t74 111t111.5 73.5t139 26q76 0 140 -26t111.5 -73.5t74 -111.5t26.5 -139t-26 -138.5t-73.5 -111t-111.5 -73.5t-140 -26t-140 26t-111.5 73.5t-74 111.5t-26.5 139zM198 334q0 -62 25 -110.5t68.5 -76t99.5 -27.5t99.5 27.5t68.5 75.5t25 110
t-25 110.5t-68.5 76t-99.5 27.5t-99.5 -27.5t-68.5 -75.5t-25 -110zM461 725h-122l-136 150h169z" />
    <glyph glyph-name="Oacute" unicode="&#xd3;" horiz-adv-x="781" 
d="M39 334q0 75 26.5 138.5t74 111t111.5 73.5t139 26q76 0 140 -26t111.5 -73.5t74 -111.5t26.5 -139t-26 -138.5t-73.5 -111t-111.5 -73.5t-140 -26t-140 26t-111.5 73.5t-74 111.5t-26.5 139zM198 334q0 -62 25 -110.5t68.5 -76t99.5 -27.5t99.5 27.5t68.5 75.5t25 110
t-25 110.5t-68.5 76t-99.5 27.5t-99.5 -27.5t-68.5 -75.5t-25 -110zM409 875h169l-136 -150h-122z" />
    <glyph glyph-name="Ocircumflex" unicode="&#xd4;" horiz-adv-x="781" 
d="M39 334q0 75 26.5 138.5t74 111t111.5 73.5t139 26q76 0 140 -26t111.5 -73.5t74 -111.5t26.5 -139t-26 -138.5t-73.5 -111t-111.5 -73.5t-140 -26t-140 26t-111.5 73.5t-74 111.5t-26.5 139zM198 334q0 -62 25 -110.5t68.5 -76t99.5 -27.5t99.5 27.5t68.5 75.5t25 110
t-25 110.5t-68.5 76t-99.5 27.5t-99.5 -27.5t-68.5 -75.5t-25 -110zM391 801l-55 -76h-123l122 150h113l121 -150h-123z" />
    <glyph glyph-name="Otilde" unicode="&#xd5;" horiz-adv-x="781" 
d="M39 334q0 75 26.5 138.5t74 111t111.5 73.5t139 26q76 0 140 -26t111.5 -73.5t74 -111.5t26.5 -139t-26 -138.5t-73.5 -111t-111.5 -73.5t-140 -26t-140 26t-111.5 73.5t-74 111.5t-26.5 139zM198 334q0 -62 25 -110.5t68.5 -76t99.5 -27.5t99.5 27.5t68.5 75.5t25 110
t-25 110.5t-68.5 76t-99.5 27.5t-99.5 -27.5t-68.5 -75.5t-25 -110zM599 797q-60 -73 -135 -73q-34 0 -78 24q-45 24 -73 24q-21 0 -38 -9.5t-37 -30.5l-56 66q60 73 135 73q34 0 79 -24t73 -24q38 0 75 41z" />
    <glyph glyph-name="Odieresis" unicode="&#xd6;" horiz-adv-x="781" 
d="M39 334q0 75 26.5 138.5t74 111t111.5 73.5t139 26q76 0 140 -26t111.5 -73.5t74 -111.5t26.5 -139t-26 -138.5t-73.5 -111t-111.5 -73.5t-140 -26t-140 26t-111.5 73.5t-74 111.5t-26.5 139zM198 334q0 -62 25 -110.5t68.5 -76t99.5 -27.5t99.5 27.5t68.5 75.5t25 110
t-25 110.5t-68.5 76t-99.5 27.5t-99.5 -27.5t-68.5 -75.5t-25 -110zM219 858h134v-122h-134v122zM429 858h134v-122h-134v122z" />
    <glyph glyph-name="multiply" unicode="&#xd7;" 
d="M273 237l-123 -123l-80 80l123 123l-123 122l80 80l123 -122l122 122l80 -80l-122 -122l122 -123l-80 -80z" />
    <glyph glyph-name="Oslash" unicode="&#xd8;" horiz-adv-x="781" 
d="M39 334q0 75 26.5 138.5t74 111t111.5 73.5t139 26q45 0 86 -9.5t78 -27.5l63 92l72 -49l-63 -91q54 -47 85 -115.5t31 -149.5q0 -75 -26 -138.5t-73.5 -111t-111.5 -73.5t-140 -26q-45 0 -86 9.5t-77 27.5l-63 -92l-72 49l62 91q-54 47 -85 115t-31 150zM198 334
q0 -41 11.5 -77t32.5 -63l231 335q-38 18 -82 18q-56 0 -99.5 -27.5t-68.5 -75.5t-25 -110zM309 138q38 -18 82 -18q56 0 99.5 27.5t68.5 75.5t25 110q0 41 -11.5 77t-32.5 63z" />
    <glyph glyph-name="Ugrave" unicode="&#xd9;" horiz-adv-x="674" 
d="M55 261v406h152v-404q0 -70 33.5 -106t96.5 -36q64 0 97.5 36t33.5 106v404h151v-406q0 -130 -74.5 -203.5t-207.5 -73.5q-132 0 -207 73.5t-75 203.5zM406 725h-122l-136 150h169z" />
    <glyph glyph-name="Uacute" unicode="&#xda;" horiz-adv-x="674" 
d="M55 261v406h152v-404q0 -70 33.5 -106t96.5 -36q64 0 97.5 36t33.5 106v404h151v-406q0 -130 -74.5 -203.5t-207.5 -73.5q-132 0 -207 73.5t-75 203.5zM354 875h169l-136 -150h-122z" />
    <glyph glyph-name="Ucircumflex" unicode="&#xdb;" horiz-adv-x="674" 
d="M55 261v406h152v-404q0 -70 33.5 -106t96.5 -36q64 0 97.5 36t33.5 106v404h151v-406q0 -130 -74.5 -203.5t-207.5 -73.5q-132 0 -207 73.5t-75 203.5zM336 801l-55 -76h-123l122 150h113l121 -150h-123z" />
    <glyph glyph-name="Udieresis" unicode="&#xdc;" horiz-adv-x="674" 
d="M55 261v406h152v-404q0 -70 33.5 -106t96.5 -36q64 0 97.5 36t33.5 106v404h151v-406q0 -130 -74.5 -203.5t-207.5 -73.5q-132 0 -207 73.5t-75 203.5zM164 858h134v-122h-134v122zM374 858h134v-122h-134v122z" />
    <glyph glyph-name="Yacute" unicode="&#xdd;" horiz-adv-x="646" 
d="M247 276l-236 391h168l148 -271l148 271h160l-236 -390v-277h-152v276zM341 875h169l-136 -150h-122z" />
    <glyph glyph-name="Thorn" unicode="&#xde;" horiz-adv-x="598" 
d="M65 667h150v-109h108q112 0 175.5 -57t63.5 -158q0 -100 -63.5 -159t-172.5 -59h-111v-125h-150v667zM411 341q0 46 -27 71t-77 25h-92v-191h92q50 0 77 24.5t27 70.5z" />
    <glyph glyph-name="germandbls" unicode="&#xdf;" horiz-adv-x="612" 
d="M50 463q0 105 61.5 162t172.5 57q99 0 157.5 -44t58.5 -119q0 -31 -14.5 -60t-44.5 -63q-17 -19 -23.5 -31.5t-6.5 -24.5q0 -17 12.5 -29t41.5 -24l16 -7q57 -22 83.5 -55.5t26.5 -84.5q0 -74 -51.5 -114.5t-140.5 -40.5q-95 0 -158 49l55 91q45 -35 94 -35q64 0 64 47
q0 20 -15 34.5t-56 30.5l-21 9q-49 21 -70 47.5t-21 64.5q0 27 11.5 50.5t39.5 56.5q25 29 33.5 47t8.5 34q0 29 -21.5 45t-56.5 16q-45 0 -69 -29t-24 -84v-459h-143v463z" />
    <glyph glyph-name="agrave" unicode="&#xe0;" horiz-adv-x="520" 
d="M30 132q0 77 55 121.5t164 44.5q18 0 38.5 -1.5t44.5 -4.5v9q0 73 -101 73q-76 0 -130 -39l-52 91q82 58 200 58q107 0 165 -49t58 -138v-297h-127l-5 51q-23 -31 -61 -48.5t-90 -17.5q-71 0 -115 40t-44 107zM166 149q0 -30 18.5 -45t52.5 -15q41 0 68 21.5t27 55.5v45
q-36 5 -65 5q-49 0 -75 -16t-26 -51zM320 540h-119l-120 163h159z" />
    <glyph glyph-name="aacute" unicode="&#xe1;" horiz-adv-x="520" 
d="M30 132q0 77 55 121.5t164 44.5q18 0 38.5 -1.5t44.5 -4.5v9q0 73 -101 73q-76 0 -130 -39l-52 91q82 58 200 58q107 0 165 -49t58 -138v-297h-127l-5 51q-23 -31 -61 -48.5t-90 -17.5q-71 0 -115 40t-44 107zM166 149q0 -30 18.5 -45t52.5 -15q41 0 68 21.5t27 55.5v45
q-36 5 -65 5q-49 0 -75 -16t-26 -51zM271 703h158l-119 -163h-119z" />
    <glyph glyph-name="acircumflex" unicode="&#xe2;" horiz-adv-x="520" 
d="M30 132q0 77 55 121.5t164 44.5q18 0 38.5 -1.5t44.5 -4.5v9q0 73 -101 73q-76 0 -130 -39l-52 91q82 58 200 58q107 0 165 -49t58 -138v-297h-127l-5 51q-23 -31 -61 -48.5t-90 -17.5q-71 0 -115 40t-44 107zM166 149q0 -30 18.5 -45t52.5 -15q41 0 68 21.5t27 55.5v45
q-36 5 -65 5q-49 0 -75 -16t-26 -51zM256 629l-47 -89h-116l105 163h116l105 -163h-116z" />
    <glyph glyph-name="atilde" unicode="&#xe3;" horiz-adv-x="520" 
d="M30 132q0 77 55 121.5t164 44.5q18 0 38.5 -1.5t44.5 -4.5v9q0 73 -101 73q-76 0 -130 -39l-52 91q82 58 200 58q107 0 165 -49t58 -138v-297h-127l-5 51q-23 -31 -61 -48.5t-90 -17.5q-71 0 -115 40t-44 107zM166 149q0 -30 18.5 -45t52.5 -15q41 0 68 21.5t27 55.5v45
q-36 5 -65 5q-49 0 -75 -16t-26 -51zM325 547q-33 0 -75 24t-70 24q-37 0 -71 -40l-51 61q56 71 129 71q32 0 74 -24q23 -12 39 -18t31 -6q37 0 71 40l51 -61q-55 -71 -128 -71z" />
    <glyph glyph-name="adieresis" unicode="&#xe4;" horiz-adv-x="520" 
d="M30 132q0 77 55 121.5t164 44.5q18 0 38.5 -1.5t44.5 -4.5v9q0 73 -101 73q-76 0 -130 -39l-52 91q82 58 200 58q107 0 165 -49t58 -138v-297h-127l-5 51q-23 -31 -61 -48.5t-90 -17.5q-71 0 -115 40t-44 107zM166 149q0 -30 18.5 -45t52.5 -15q41 0 68 21.5t27 55.5v45
q-36 5 -65 5q-49 0 -75 -16t-26 -51zM95 663h129v-115h-129v115zM288 663h128v-115h-128v115z" />
    <glyph glyph-name="aring" unicode="&#xe5;" horiz-adv-x="520" 
d="M30 132q0 77 55 121.5t164 44.5q18 0 38.5 -1.5t44.5 -4.5v9q0 73 -101 73q-76 0 -130 -39l-52 91q82 58 200 58q107 0 165 -49t58 -138v-297h-127l-5 51q-23 -31 -61 -48.5t-90 -17.5q-71 0 -115 40t-44 107zM166 149q0 -30 18.5 -45t52.5 -15q41 0 68 21.5t27 55.5v45
q-36 5 -65 5q-49 0 -75 -16t-26 -51zM138 643q0 50 33.5 82.5t84.5 32.5t84.5 -32.5t33.5 -82.5q0 -49 -33.5 -82t-84.5 -33t-84.5 33t-33.5 82zM214 643q0 -20 11.5 -32.5t30.5 -12.5t30.5 12.5t11.5 32.5t-11.5 33t-30.5 13t-30.5 -13t-11.5 -33z" />
    <glyph glyph-name="ae" unicode="&#xe6;" horiz-adv-x="836" 
d="M30 132q0 74 54 120t167 46q38 0 81 -6v9q0 73 -101 73q-77 0 -130 -39l-52 91q84 58 193 58q120 0 167 -75q60 75 167 75q69 0 121.5 -33t82 -91.5t29.5 -136.5v-32h-338q8 -44 41.5 -68.5t89.5 -24.5q75 0 138 48l56 -91q-35 -32 -90 -51t-114 -19q-64 0 -115 22.5
t-82 65.5q-65 -88 -184 -88q-84 0 -132.5 39t-48.5 108zM166 148q0 -59 70 -59q43 0 69.5 22.5t26.5 58.5v41q-36 5 -65 5q-101 0 -101 -68zM642 343q-26 23 -66 23q-42 0 -69.5 -23.5t-34.5 -64.5h203q-7 42 -33 65z" />
    <glyph glyph-name="ccedilla" unicode="&#xe7;" horiz-adv-x="491" 
d="M30 233q0 73 34 129.5t92.5 89t132.5 32.5q110 0 183 -77l-76 -92q-40 45 -99 45q-52 0 -86 -34.5t-34 -90.5t34 -91t87 -35q58 0 103 46l74 -92q-72 -78 -189 -78q-74 0 -132 31.5t-91 87.5t-33 129zM298 -147q0 31 -52 31q-16 0 -34 -3t-35 -10l13 65q36 12 77 12
q59 0 93 -24t34 -68q0 -48 -39.5 -77t-103.5 -29q-50 0 -96 17l14 69q19 -7 38 -10.5t37 -3.5q54 0 54 31z" />
    <glyph glyph-name="egrave" unicode="&#xe8;" horiz-adv-x="541" 
d="M40 231q0 74 31 131t85.5 89.5t125.5 32.5t124 -32.5t83 -91.5t30 -137v-32h-338q8 -44 41.5 -68.5t88.5 -24.5q76 0 139 48l56 -91q-36 -33 -90.5 -51.5t-116.5 -18.5q-78 0 -136.5 30t-90.5 85.5t-32 130.5zM352 343q-26 23 -66 23q-42 0 -69.5 -23.5t-34.5 -64.5h203
q-7 42 -33 65zM332 540h-119l-120 163h159z" />
    <glyph glyph-name="eacute" unicode="&#xe9;" horiz-adv-x="541" 
d="M40 231q0 74 31 131t85.5 89.5t125.5 32.5t124 -32.5t83 -91.5t30 -137v-32h-338q8 -44 41.5 -68.5t88.5 -24.5q76 0 139 48l56 -91q-36 -33 -90.5 -51.5t-116.5 -18.5q-78 0 -136.5 30t-90.5 85.5t-32 130.5zM352 343q-26 23 -66 23q-42 0 -69.5 -23.5t-34.5 -64.5h203
q-7 42 -33 65zM283 703h158l-119 -163h-119z" />
    <glyph glyph-name="ecircumflex" unicode="&#xea;" horiz-adv-x="541" 
d="M40 231q0 74 31 131t85.5 89.5t125.5 32.5t124 -32.5t83 -91.5t30 -137v-32h-338q8 -44 41.5 -68.5t88.5 -24.5q76 0 139 48l56 -91q-36 -33 -90.5 -51.5t-116.5 -18.5q-78 0 -136.5 30t-90.5 85.5t-32 130.5zM352 343q-26 23 -66 23q-42 0 -69.5 -23.5t-34.5 -64.5h203
q-7 42 -33 65zM268 629l-47 -89h-116l105 163h116l105 -163h-116z" />
    <glyph glyph-name="edieresis" unicode="&#xeb;" horiz-adv-x="541" 
d="M40 231q0 74 31 131t85.5 89.5t125.5 32.5t124 -32.5t83 -91.5t30 -137v-32h-338q8 -44 41.5 -68.5t88.5 -24.5q76 0 139 48l56 -91q-36 -33 -90.5 -51.5t-116.5 -18.5q-78 0 -136.5 30t-90.5 85.5t-32 130.5zM352 343q-26 23 -66 23q-42 0 -69.5 -23.5t-34.5 -64.5h203
q-7 42 -33 65zM107 663h129v-115h-129v115zM300 663h128v-115h-128v115z" />
    <glyph glyph-name="igrave" unicode="&#xec;" horiz-adv-x="251" 
d="M53 469h144v-469h-144v469zM190 540h-119l-120 163h159z" />
    <glyph glyph-name="iacute" unicode="&#xed;" horiz-adv-x="251" 
d="M53 469h144v-469h-144v469zM141 703h158l-119 -163h-119z" />
    <glyph glyph-name="icircumflex" unicode="&#xee;" horiz-adv-x="251" 
d="M53 469h144v-469h-144v469zM126 629l-47 -89h-116l105 163h116l105 -163h-116z" />
    <glyph glyph-name="idieresis" unicode="&#xef;" horiz-adv-x="251" 
d="M53 469h144v-469h-144v469zM-35 663h129v-115h-129v115zM158 663h128v-115h-128v115z" />
    <glyph glyph-name="eth" unicode="&#xf0;" horiz-adv-x="557" 
d="M527 269q0 -141 -69 -212.5t-189 -71.5q-71 0 -125 28t-84 77.5t-30 113.5q0 65 28.5 115.5t80.5 79.5t120 29q57 0 104 -22q-27 77 -92 121l-108 -81l-45 60l77 57q-45 15 -100 20l19 99q101 -9 182 -44l76 56l44 -59l-50 -37q78 -55 119.5 -139t41.5 -190zM385 258
q0 12 -0.5 23.5t-2.5 22.5q-48 24 -92 24q-54 0 -86 -32.5t-32 -86.5q0 -51 29 -83t75 -32q109 0 109 164z" />
    <glyph glyph-name="ntilde" unicode="&#xf1;" horiz-adv-x="564" 
d="M53 469h132l7 -61q22 35 62 55.5t90 20.5q80 0 125 -50.5t45 -139.5v-294h-144v264q0 92 -79 92q-43 0 -68.5 -30.5t-25.5 -83.5v-242h-144v469zM356 547q-33 0 -75 24t-70 24q-37 0 -71 -40l-51 61q56 71 129 71q32 0 74 -24q23 -12 39 -18t31 -6q37 0 71 40l51 -61
q-55 -71 -128 -71z" />
    <glyph glyph-name="ograve" unicode="&#xf2;" horiz-adv-x="573" 
d="M30 235q0 72 33.5 128.5t91.5 88.5t131 32q74 0 132 -32t91.5 -88t33.5 -129q0 -72 -33.5 -128.5t-91.5 -89t-132 -32.5q-73 0 -131 32t-91.5 88.5t-33.5 129.5zM174 234q0 -56 31.5 -90.5t80.5 -34.5q50 0 81.5 34.5t31.5 91.5q0 56 -31 90.5t-81 34.5t-81.5 -34.5
t-31.5 -91.5zM350 540h-119l-120 163h159z" />
    <glyph glyph-name="oacute" unicode="&#xf3;" horiz-adv-x="573" 
d="M30 235q0 72 33.5 128.5t91.5 88.5t131 32q74 0 132 -32t91.5 -88t33.5 -129q0 -72 -33.5 -128.5t-91.5 -89t-132 -32.5q-73 0 -131 32t-91.5 88.5t-33.5 129.5zM174 234q0 -56 31.5 -90.5t80.5 -34.5q50 0 81.5 34.5t31.5 91.5q0 56 -31 90.5t-81 34.5t-81.5 -34.5
t-31.5 -91.5zM301 703h158l-119 -163h-119z" />
    <glyph glyph-name="ocircumflex" unicode="&#xf4;" horiz-adv-x="573" 
d="M30 235q0 72 33.5 128.5t91.5 88.5t131 32q74 0 132 -32t91.5 -88t33.5 -129q0 -72 -33.5 -128.5t-91.5 -89t-132 -32.5q-73 0 -131 32t-91.5 88.5t-33.5 129.5zM174 234q0 -56 31.5 -90.5t80.5 -34.5q50 0 81.5 34.5t31.5 91.5q0 56 -31 90.5t-81 34.5t-81.5 -34.5
t-31.5 -91.5zM286 629l-47 -89h-116l105 163h116l105 -163h-116z" />
    <glyph glyph-name="otilde" unicode="&#xf5;" horiz-adv-x="573" 
d="M30 235q0 72 33.5 128.5t91.5 88.5t131 32q74 0 132 -32t91.5 -88t33.5 -129q0 -72 -33.5 -128.5t-91.5 -89t-132 -32.5q-73 0 -131 32t-91.5 88.5t-33.5 129.5zM174 234q0 -56 31.5 -90.5t80.5 -34.5q50 0 81.5 34.5t31.5 91.5q0 56 -31 90.5t-81 34.5t-81.5 -34.5
t-31.5 -91.5zM355 547q-33 0 -75 24t-70 24q-37 0 -71 -40l-51 61q56 71 129 71q32 0 74 -24q23 -12 39 -18t31 -6q37 0 71 40l51 -61q-55 -71 -128 -71z" />
    <glyph glyph-name="odieresis" unicode="&#xf6;" horiz-adv-x="573" 
d="M30 235q0 72 33.5 128.5t91.5 88.5t131 32q74 0 132 -32t91.5 -88t33.5 -129q0 -72 -33.5 -128.5t-91.5 -89t-132 -32.5q-73 0 -131 32t-91.5 88.5t-33.5 129.5zM174 234q0 -56 31.5 -90.5t80.5 -34.5q50 0 81.5 34.5t31.5 91.5q0 56 -31 90.5t-81 34.5t-81.5 -34.5
t-31.5 -91.5zM125 663h129v-115h-129v115zM318 663h128v-115h-128v115z" />
    <glyph glyph-name="divide" unicode="&#xf7;" 
d="M64 378h417v-114h-417v114zM207 204h131v-120h-131v120zM207 558h131v-120h-131v120z" />
    <glyph glyph-name="oslash" unicode="&#xf8;" horiz-adv-x="567" 
d="M30 235q0 72 32.5 128.5t90 88.5t131.5 32q62 0 114 -24l47 68l60 -41l-47 -66q37 -34 58 -81.5t21 -104.5q0 -72 -32.5 -128.5t-89.5 -89t-131 -32.5q-62 0 -114 24l-48 -68l-59 41l46 66q-37 33 -58 81t-21 106zM155 234q0 -52 23 -88l156 223q-22 9 -49 9
q-58 0 -94 -39.5t-36 -104.5zM234 100q23 -9 50 -9q58 0 93 39.5t35 104.5q0 52 -22 88z" />
    <glyph glyph-name="ugrave" unicode="&#xf9;" horiz-adv-x="560" 
d="M50 175v294h144v-262q0 -94 76 -94q43 0 68 32t25 87v237h144v-469h-129l-7 64q-23 -37 -63 -58t-89 -21q-79 0 -124 50.5t-45 139.5zM341 540h-119l-120 163h159z" />
    <glyph glyph-name="uacute" unicode="&#xfa;" horiz-adv-x="560" 
d="M50 175v294h144v-262q0 -94 76 -94q43 0 68 32t25 87v237h144v-469h-129l-7 64q-23 -37 -63 -58t-89 -21q-79 0 -124 50.5t-45 139.5zM292 703h158l-119 -163h-119z" />
    <glyph glyph-name="ucircumflex" unicode="&#xfb;" horiz-adv-x="560" 
d="M50 175v294h144v-262q0 -94 76 -94q43 0 68 32t25 87v237h144v-469h-129l-7 64q-23 -37 -63 -58t-89 -21q-79 0 -124 50.5t-45 139.5zM277 629l-47 -89h-116l105 163h116l105 -163h-116z" />
    <glyph glyph-name="udieresis" unicode="&#xfc;" horiz-adv-x="560" 
d="M50 175v294h144v-262q0 -94 76 -94q43 0 68 32t25 87v237h144v-469h-129l-7 64q-23 -37 -63 -58t-89 -21q-79 0 -124 50.5t-45 139.5zM116 663h129v-115h-129v115zM309 663h128v-115h-128v115z" />
    <glyph glyph-name="yacute" unicode="&#xfd;" 
d="M388 469h151l-211 -507q-40 -97 -83.5 -137t-109.5 -40q-69 0 -124 37l49 101q35 -22 62 -22q23 0 42 17t37 60l12 30l-207 461h158l117 -316zM287 703h158l-119 -163h-119z" />
    <glyph glyph-name="thorn" unicode="&#xfe;" horiz-adv-x="570" 
d="M53 667h144v-245q23 29 58 45.5t78 16.5q62 0 108.5 -29.5t72.5 -82t26 -123.5q0 -77 -30.5 -137t-84 -93.5t-122.5 -33.5q-29 0 -55.5 7t-50.5 19v-211h-144v867zM395 238q0 56 -26.5 88t-72.5 32q-43 0 -71 -29t-28 -79v-122q39 -22 80 -22q54 0 86 35.5t32 96.5z" />
    <glyph glyph-name="ydieresis" unicode="&#xff;" 
d="M388 469h151l-211 -507q-40 -97 -83.5 -137t-109.5 -40q-69 0 -124 37l49 101q35 -22 62 -22q23 0 42 17t37 60l12 30l-207 461h158l117 -316zM111 663h129v-115h-129v115zM304 663h128v-115h-128v115z" />
    <glyph glyph-name="Amacron" unicode="&#x100;" horiz-adv-x="685" 
d="M167 0h-157l248 667h170l247 -667h-163l-51 153h-244zM339 524l-85 -258h170zM161 848h365v-101h-365v101z" />
    <glyph glyph-name="amacron" unicode="&#x101;" horiz-adv-x="520" 
d="M30 132q0 77 55 121.5t164 44.5q18 0 38.5 -1.5t44.5 -4.5v9q0 73 -101 73q-76 0 -130 -39l-52 91q82 58 200 58q107 0 165 -49t58 -138v-297h-127l-5 51q-23 -31 -61 -48.5t-90 -17.5q-71 0 -115 40t-44 107zM166 149q0 -30 18.5 -45t52.5 -15q41 0 68 21.5t27 55.5v45
q-36 5 -65 5q-49 0 -75 -16t-26 -51zM107 655h298v-99h-298v99z" />
    <glyph glyph-name="Abreve" unicode="&#x102;" horiz-adv-x="685" 
d="M167 0h-157l248 667h170l247 -667h-163l-51 153h-244zM339 524l-85 -258h170zM459.5 755.5q-44.5 -42.5 -116.5 -42.5t-116.5 42.5t-46.5 113.5h106q2 -29 17 -46t40 -17t40.5 17t16.5 46h106q-2 -71 -46.5 -113.5z" />
    <glyph glyph-name="abreve" unicode="&#x103;" horiz-adv-x="520" 
d="M30 132q0 77 55 121.5t164 44.5q18 0 38.5 -1.5t44.5 -4.5v9q0 73 -101 73q-76 0 -130 -39l-52 91q82 58 200 58q107 0 165 -49t58 -138v-297h-127l-5 51q-23 -31 -61 -48.5t-90 -17.5q-71 0 -115 40t-44 107zM166 149q0 -30 18.5 -45t52.5 -15q41 0 68 21.5t27 55.5v45
q-36 5 -65 5q-49 0 -75 -16t-26 -51zM216.5 631.5q14.5 -16.5 39.5 -16.5q26 0 40 16.5t14 45.5h103q0 -67 -43 -108t-114 -41q-70 0 -113.5 41t-43.5 108h103q0 -29 14.5 -45.5z" />
    <glyph glyph-name="Aogonek" unicode="&#x104;" horiz-adv-x="685" 
d="M167 0h-157l248 667h170l247 -667h-163l-51 153h-244zM339 524l-85 -258h170zM435 -107q0 43 31 78.5t89 51.5l109 -23q-62 -9 -84.5 -31.5t-22.5 -42.5q0 -16 8.5 -25.5t25.5 -9.5q25 0 45 14l33 -74q-48 -37 -120 -37q-54 0 -84 28t-30 71z" />
    <glyph glyph-name="aogonek" unicode="&#x105;" horiz-adv-x="520" 
d="M30 132q0 77 55 121.5t164 44.5q18 0 38.5 -1.5t44.5 -4.5v9q0 73 -101 73q-76 0 -130 -39l-52 91q82 58 200 58q107 0 165 -49t58 -138v-297h-127l-5 51q-23 -31 -61 -48.5t-90 -17.5q-71 0 -115 40t-44 107zM166 149q0 -30 18.5 -45t52.5 -15q41 0 68 21.5t27 55.5v45
q-36 5 -65 5q-49 0 -75 -16t-26 -51zM251 -116q0 77 105 132l114 -16q-55 -17 -81.5 -40t-26.5 -46q0 -31 32 -31q20 0 39 13l34 -72q-20 -15 -46.5 -23.5t-60.5 -8.5q-49 0 -79 25t-30 67z" />
    <glyph glyph-name="Cacute" unicode="&#x106;" horiz-adv-x="679" 
d="M39 333q0 102 44 181t122 124t178 45q86 0 156.5 -34.5t113.5 -96.5l-101 -93q-60 88 -160 88q-57 0 -101 -27t-68.5 -74.5t-24.5 -111.5q0 -63 25 -111.5t69 -75.5t102 -27q97 0 166 89l98 -89q-46 -66 -116.5 -101t-158.5 -35q-100 0 -178 44.5t-122 123.5t-44 181z
M400 875h169l-136 -150h-122z" />
    <glyph glyph-name="cacute" unicode="&#x107;" horiz-adv-x="491" 
d="M30 233q0 73 34 129.5t92.5 89t132.5 32.5q110 0 183 -77l-76 -92q-40 45 -99 45q-52 0 -86 -34.5t-34 -90.5t34 -91t87 -35q58 0 103 46l74 -92q-72 -78 -189 -78q-74 0 -132 31.5t-91 87.5t-33 129zM287 703h158l-119 -163h-119z" />
    <glyph glyph-name="Ccircumflex" unicode="&#x108;" horiz-adv-x="679" 
d="M39 333q0 102 44 181t122 124t178 45q86 0 156.5 -34.5t113.5 -96.5l-101 -93q-60 88 -160 88q-57 0 -101 -27t-68.5 -74.5t-24.5 -111.5q0 -63 25 -111.5t69 -75.5t102 -27q97 0 166 89l98 -89q-46 -66 -116.5 -101t-158.5 -35q-100 0 -178 44.5t-122 123.5t-44 181z
M382 801l-55 -76h-123l122 150h113l121 -150h-123z" />
    <glyph glyph-name="ccircumflex" unicode="&#x109;" horiz-adv-x="491" 
d="M30 233q0 73 34 129.5t92.5 89t132.5 32.5q110 0 183 -77l-76 -92q-40 45 -99 45q-52 0 -86 -34.5t-34 -90.5t34 -91t87 -35q58 0 103 46l74 -92q-72 -78 -189 -78q-74 0 -132 31.5t-91 87.5t-33 129zM272 629l-47 -89h-116l105 163h116l105 -163h-116z" />
    <glyph glyph-name="Cdotaccent" unicode="&#x10a;" horiz-adv-x="679" 
d="M39 333q0 102 44 181t122 124t178 45q86 0 156.5 -34.5t113.5 -96.5l-101 -93q-60 88 -160 88q-57 0 -101 -27t-68.5 -74.5t-24.5 -111.5q0 -63 25 -111.5t69 -75.5t102 -27q97 0 166 89l98 -89q-46 -66 -116.5 -101t-158.5 -35q-100 0 -178 44.5t-122 123.5t-44 181z
M304 864h156v-128h-156v128z" />
    <glyph glyph-name="cdotaccent" unicode="&#x10b;" horiz-adv-x="491" 
d="M30 233q0 73 34 129.5t92.5 89t132.5 32.5q110 0 183 -77l-76 -92q-40 45 -99 45q-52 0 -86 -34.5t-34 -90.5t34 -91t87 -35q58 0 103 46l74 -92q-72 -78 -189 -78q-74 0 -132 31.5t-91 87.5t-33 129zM197 663h149v-125h-149v125z" />
    </font>
</defs>
</svg>
